<svg xmlns="http://www.w3.org/2000/svg" xmlns:xlink="http://www.w3.org/1999/xlink" width="90.106" height="78.842" viewBox="0 0 90.106 78.842">
  <defs>
    <linearGradient id="linear-gradient" y1="0.5" x2="1" y2="0.5" gradientUnits="objectBoundingBox">
      <stop offset="0.192" stop-color="#44ffc9"/>
      <stop offset="0.702" stop-color="#44ffc9"/>
    </linearGradient>
  </defs>
  <g id="icon-24" transform="translate(-437.945 -412.843)">
    <path id="Trazado_647" data-name="Trazado 647" d="M1128,429.738h-12.825a11.263,11.263,0,1,0-19.4,0h-12.825v12.825a11.263,11.263,0,1,1,0,19.4v12.825h12.825a11.15,11.15,0,0,0-1.561,5.631,11.263,11.263,0,1,0,22.526,0,11.151,11.151,0,0,0-1.562-5.631H1128Zm0,0" transform="translate(-645.003)" fill="url(#linear-gradient)"/>
    <path id="Trazado_648" data-name="Trazado 648" d="M1173.054,429.738h-12.825a11.151,11.151,0,0,0,1.562-5.632,11.263,11.263,0,1,0-22.526,0,11.15,11.15,0,0,0,1.561,5.632H1128v45.053h12.825a11.149,11.149,0,0,0-1.561,5.631,11.263,11.263,0,1,0,22.526,0,11.15,11.15,0,0,0-1.562-5.631h12.825Zm0,0" transform="translate(-645.003)" fill="#6427c3"/>
    <path id="Trazado_649" data-name="Trazado 649" d="M1133.633,441a11.154,11.154,0,0,0-5.632,1.562v19.4A11.244,11.244,0,1,0,1133.633,441Zm0,0" transform="translate(-645.003)" fill="#9866ff"/>
  </g>
</svg>
