<svg xmlns="http://www.w3.org/2000/svg" xmlns:xlink="http://www.w3.org/1999/xlink" width="111.108" height="111.108" viewBox="0 0 111.108 111.108">
  <defs>
    <linearGradient id="linear-gradient" y1="0.5" x2="1" y2="0.5" gradientUnits="objectBoundingBox">
      <stop offset="0.192" stop-color="#44ffc9"/>
      <stop offset="0.702" stop-color="#44ffc9"/>
    </linearGradient>
  </defs>
  <g id="icon-28" transform="translate(-98.251 -655.197)">
    <path id="Trazado_604" data-name="Trazado 604" d="M826.585,710.751a27.777,27.777,0,1,1-27.777-27.777,27.777,27.777,0,0,1,27.777,27.777Zm0,0" transform="translate(-645.003)" fill="#6427c3"/>
    <path id="Trazado_605" data-name="Trazado 605" d="M798.808,707.279a3.472,3.472,0,1,1,3.472-3.472h6.944a10.386,10.386,0,0,0-6.944-9.779v-4.11h-6.944v4.11a10.392,10.392,0,0,0,3.472,20.2,3.473,3.473,0,1,1-3.472,3.472h-6.945a10.387,10.387,0,0,0,6.945,9.779v4.11h6.944v-4.11a10.392,10.392,0,0,0-3.472-20.2Zm0,0" transform="translate(-645.003)" fill="url(#linear-gradient)"/>
    <path id="Trazado_606" data-name="Trazado 606" d="M847.418,738.528V703.807H819.641V717.7h13.888v20.833h-6.944L840.474,766.3l13.888-27.777Zm0,0" transform="translate(-645.003)" fill="#fff"/>
    <path id="Trazado_607" data-name="Trazado 607" d="M777.975,703.807H764.087V682.974h6.944L757.142,655.2l-13.888,27.777H750.2V717.7h27.777Zm0,0" transform="translate(-645.003)" fill="#fff"/>
    <path id="Trazado_608" data-name="Trazado 608" d="M819.641,717.7H825.6a25.043,25.043,0,0,0,0-13.888h-5.962Zm0,0" transform="translate(-645.003)" fill="#9866ff"/>
    <path id="Trazado_609" data-name="Trazado 609" d="M777.975,717.7h-5.962a25.043,25.043,0,0,1,0-13.888h5.962Zm0,0" transform="translate(-645.003)" fill="#9866ff"/>
  </g>
</svg>
