<svg xmlns="http://www.w3.org/2000/svg" xmlns:xlink="http://www.w3.org/1999/xlink" width="115.978" height="68.862" viewBox="0 0 115.978 68.862">
  <defs>
    <linearGradient id="linear-gradient" y1="0.5" x2="1" y2="0.5" gradientUnits="objectBoundingBox">
      <stop offset="0.192" stop-color="#44ffc9"/>
      <stop offset="0.702" stop-color="#44ffc9"/>
    </linearGradient>
  </defs>
  <g id="icon-08" transform="translate(-327.263 -370.085)">
    <path id="Trazado_768" data-name="Trazado 768" d="M363.506,428.074a10.873,10.873,0,0,1-21.746,0l10.873-3.624Zm0,0" fill="#6427c3"/>
    <path id="Trazado_769" data-name="Trazado 769" d="M428.743,428.074a10.873,10.873,0,1,1-21.745,0l10.872-3.624Zm0,0" fill="#6427c3"/>
    <path id="Trazado_770" data-name="Trazado 770" d="M435.992,409.953l7.249,3.624v14.5h-14.5L417.87,424.45,407,428.074H363.506l-10.873-3.624-10.873,3.624h-14.5v-14.5l7.248-3.624-7.248-3.625V377.334a7.271,7.271,0,0,1,7.248-7.249h76.111a10.909,10.909,0,0,1,7.684,3.19l21.746,21.745a10.912,10.912,0,0,1,3.189,7.684v3.624Zm0,0" fill="url(#linear-gradient)"/>
    <rect id="Rectángulo_326" data-name="Rectángulo 326" width="7.249" height="7.249" transform="translate(327.263 406.328)" fill="#9866ff"/>
    <rect id="Rectángulo_327" data-name="Rectángulo 327" width="7.249" height="7.249" transform="translate(435.992 406.328)" fill="#9866ff"/>
    <rect id="Rectángulo_328" data-name="Rectángulo 328" width="57.989" height="21.746" transform="translate(334.511 377.334)" fill="#6427c3"/>
    <path id="Trazado_771" data-name="Trazado 771" d="M399.749,399.08h34.112L413.181,378.4a3.657,3.657,0,0,0-2.559-1.065H399.749Zm0,0" fill="#6427c3"/>
    <path id="Trazado_772" data-name="Trazado 772" d="M363.506,428.074H341.76a10.873,10.873,0,1,1,21.746,0Zm0,0" fill="#9866ff"/>
    <path id="Trazado_773" data-name="Trazado 773" d="M428.743,428.074H407a10.873,10.873,0,1,1,21.745,0Zm0,0" fill="#9866ff"/>
  </g>
</svg>
