<svg xmlns="http://www.w3.org/2000/svg" xmlns:xlink="http://www.w3.org/1999/xlink" width="500" height="500" viewBox="0 0 500 500">
  <defs>
    <linearGradient id="linear-gradient" y1="0.5" x2="1" y2="0.5" gradientUnits="objectBoundingBox">
      <stop offset="0.192" stop-color="#44ffc9"/>
      <stop offset="0.702" stop-color="#44ffc9"/>
    </linearGradient>
  </defs>
  <g id="icon-31" transform="translate(-10187 14419)">
    <rect id="Rectángulo_7692" data-name="Rectángulo 7692" width="500" height="500" transform="translate(10187 -14419)" fill="#fff" opacity="0"/>
    <g id="Grupo_148" data-name="Grupo 148" transform="translate(8978.615 -15728.941)">
      <path id="Trazado_116" data-name="Trazado 116" d="M1499.232,1371.012v377.21a27.025,27.025,0,0,1-26.952,26.951H1310.622a27.022,27.022,0,0,1-26.953-26.952v-377.21a27.021,27.021,0,0,1,26.952-26.952H1472.28A27.026,27.026,0,0,1,1499.232,1371.012Zm0,0" transform="translate(0 0)" fill="#fff"/>
      <path id="Trazado_117" data-name="Trazado 117" d="M1411.839,1364.46v215.546a107.773,107.773,0,1,1,0-215.546Zm0,0" transform="translate(87.393 87.407)" fill="#9866ff"/>
      <path id="Trazado_118" data-name="Trazado 118" d="M1432.227,1384.85a107.739,107.739,0,0,1-107.77,107.77V1384.85Zm0,0" transform="translate(174.76 174.772)" fill="url(#linear-gradient)"/>
      <path id="Trazado_119" data-name="Trazado 119" d="M1437.332,1467.114H1329.556V1359.36a107.757,107.757,0,0,1,107.776,107.8Zm0,0" transform="translate(196.607 65.555)" fill="url(#linear-gradient)"/>
      <path id="Trazado_120" data-name="Trazado 120" d="M1339.388,1376.112h-26.952a13.475,13.475,0,1,1,0-26.951h26.952a13.476,13.476,0,0,1,0,26.952Zm0,0" transform="translate(65.514 21.852)" fill="url(#linear-gradient)"/>
      <path id="Trazado_121" data-name="Trazado 121" d="M1328.453,1423.812a13.47,13.47,0,1,1-13.47-13.47A13.471,13.471,0,0,1,1328.453,1423.812Zm0,0" transform="translate(76.448 283.993)" fill="url(#linear-gradient)"/>
    </g>
  </g>
</svg>
