<svg xmlns="http://www.w3.org/2000/svg" xmlns:xlink="http://www.w3.org/1999/xlink" width="93.401" height="106.743" viewBox="0 0 93.401 106.743">
  <defs>
    <linearGradient id="linear-gradient" y1="0.5" x2="1" y2="0.5" gradientUnits="objectBoundingBox">
      <stop offset="0.192" stop-color="#44ffc9"/>
      <stop offset="0.702" stop-color="#44ffc9"/>
    </linearGradient>
  </defs>
  <g id="icon-30" transform="translate(-436.298 -644.979)">
    <path id="Trazado_663" data-name="Trazado 663" d="M1128,658.322a33.358,33.358,0,0,0-33.358,33.357A32.819,32.819,0,0,0,1101.9,712.3a41.752,41.752,0,0,1,9.422,26.077h33.357A41.747,41.747,0,0,1,1154.1,712.3a32.818,32.818,0,0,0,7.256-20.623A33.358,33.358,0,0,0,1128,658.322Zm0,0" transform="translate(-645.003)" fill="#6427c3"/>
    <path id="Trazado_664" data-name="Trazado 664" d="M1154.687,691.679A26.686,26.686,0,1,1,1128,664.993a26.686,26.686,0,0,1,26.686,26.686Zm0,0" transform="translate(-645.003)" fill="#9866ff"/>
    <path id="Trazado_665" data-name="Trazado 665" d="M1128,688.343a3.336,3.336,0,1,1,3.336-3.336h6.671a9.979,9.979,0,0,0-6.671-9.394v-3.948h-6.672v3.948a9.984,9.984,0,0,0,3.336,19.4,3.335,3.335,0,1,1-3.336,3.335h-6.671a9.979,9.979,0,0,0,6.671,9.4v3.948h6.672v-3.948a9.984,9.984,0,0,0-3.336-19.4Zm0,0" transform="translate(-645.003)" fill="url(#linear-gradient)"/>
    <rect id="Rectángulo_283" data-name="Rectángulo 283" width="6.671" height="6.671" transform="translate(479.662 644.979)" fill="url(#linear-gradient)"/>
    <rect id="Rectángulo_284" data-name="Rectángulo 284" width="6.671" height="6.671" transform="translate(523.027 688.343)" fill="url(#linear-gradient)"/>
    <rect id="Rectángulo_285" data-name="Rectángulo 285" width="6.671" height="6.671" transform="translate(436.298 688.343)" fill="url(#linear-gradient)"/>
    <path id="Trazado_666" data-name="Trazado 666" d="M1153.936,661.023l4.717-4.717,4.717,4.717-4.717,4.716Zm0,0" transform="translate(-645.003)" fill="url(#linear-gradient)"/>
    <path id="Trazado_667" data-name="Trazado 667" d="M1092.61,722.337l4.717-4.717,4.717,4.717-4.717,4.716Zm0,0" transform="translate(-645.003)" fill="url(#linear-gradient)"/>
    <path id="Trazado_668" data-name="Trazado 668" d="M1097.338,665.737l-4.716-4.717,4.716-4.717,4.716,4.717Zm0,0" transform="translate(-645.003)" fill="url(#linear-gradient)"/>
    <path id="Trazado_669" data-name="Trazado 669" d="M1158.665,727.077l-4.717-4.717,4.717-4.717,4.717,4.717Zm0,0" transform="translate(-645.003)" fill="url(#linear-gradient)"/>
    <path id="Trazado_670" data-name="Trazado 670" d="M1141.344,731.708h-26.686l1.112,6.671h24.462Zm0,0" transform="translate(-645.003)" fill="#9866ff"/>
    <path id="Trazado_671" data-name="Trazado 671" d="M1115.77,738.379l2.224,13.343h20.014l2.224-13.343Zm0,0" transform="translate(-645.003)" fill="url(#linear-gradient)"/>
  </g>
</svg>
