<svg xmlns="http://www.w3.org/2000/svg" xmlns:xlink="http://www.w3.org/1999/xlink" width="94.5" height="108" viewBox="0 0 94.5 108">
  <defs>
    <linearGradient id="linear-gradient" y1="0.5" x2="1" y2="0.5" gradientUnits="objectBoundingBox">
      <stop offset="0.192" stop-color="#44ffc9"/>
      <stop offset="0.702" stop-color="#44ffc9"/>
    </linearGradient>
  </defs>
  <g id="icon-12" transform="translate(-148.918 -637.19)">
    <path id="Trazado_693" data-name="Trazado 693" d="M216.418,738.44v6.75h-47.25v-6.75h13.5V718.19h6.75l3.375,6.75,3.375-6.75h6.75v20.25Zm0,0" fill="#6427c3"/>
    <path id="Trazado_694" data-name="Trazado 694" d="M169.168,691.19v13.5h-13.5v-13.5l6.75-6.75Zm0,0" fill="#6427c3"/>
    <rect id="Rectángulo_301" data-name="Rectángulo 301" width="6.75" height="6.75" transform="translate(155.668 670.94)" fill="#ff98ff"/>
    <rect id="Rectángulo_302" data-name="Rectángulo 302" width="6.75" height="6.75" transform="translate(223.168 670.94)" fill="#ff98ff"/>
    <path id="Trazado_695" data-name="Trazado 695" d="M236.668,664.19v27h-33.75l-10.125-6.75-10.125,6.75h-13.5l-6.75-6.75-6.75,6.75h-6.75v-27h10.125l8.5-22.612a6.709,6.709,0,0,1,6.278-4.388H211.76a6.709,6.709,0,0,1,6.278,4.388l8.505,22.612Zm0,0" fill="url(#linear-gradient)"/>
    <path id="Trazado_696" data-name="Trazado 696" d="M219.334,664.19l-7.593-20.25H173.848l-7.6,20.25Zm0,0" fill="#6427c3"/>
    <rect id="Rectángulo_303" data-name="Rectángulo 303" width="47.25" height="6.75" transform="translate(169.168 670.94)" fill="#6427c3"/>
    <path id="Trazado_697" data-name="Trazado 697" d="M202.918,691.19v6.75h-6.75v20.25l-3.375,6.75-3.375-6.75V697.94h-6.75v-6.75l10.125-6.75Zm0,0" fill="#6427c3"/>
    <path id="Trazado_698" data-name="Trazado 698" d="M233.293,724.94a10.125,10.125,0,1,0,10.125,10.125,10.124,10.124,0,0,0-10.125-10.125Zm0,13.5a3.375,3.375,0,1,1,3.375-3.375,3.377,3.377,0,0,1-3.375,3.375Zm0,0" fill="#6427c3"/>
    <rect id="Rectángulo_304" data-name="Rectángulo 304" width="20.25" height="6.75" transform="translate(182.668 684.44)" fill="#9866ff"/>
    <rect id="Rectángulo_305" data-name="Rectángulo 305" width="6.75" height="6.75" transform="translate(189.418 718.19)" fill="#9866ff"/>
    <rect id="Rectángulo_306" data-name="Rectángulo 306" width="13.5" height="6.75" transform="translate(155.668 684.44)" fill="#9866ff"/>
  </g>
</svg>
