<svg xmlns="http://www.w3.org/2000/svg" xmlns:xlink="http://www.w3.org/1999/xlink" width="500" height="500" viewBox="0 0 500 500">
  <defs>
    <linearGradient id="linear-gradient" y1="0.5" x2="1" y2="0.5" gradientUnits="objectBoundingBox">
      <stop offset="0.192" stop-color="#44ffc9"/>
      <stop offset="0.702" stop-color="#44ffc9"/>
    </linearGradient>
  </defs>
  <g id="icon-32" transform="translate(-10187 14419)">
    <rect id="Rectángulo_7692" data-name="Rectángulo 7692" width="500" height="500" transform="translate(10187 -14419)" fill="#fff" opacity="0"/>
    <g id="Grupo_149" data-name="Grupo 149" transform="translate(8832.559 -15800.874)">
      <path id="Trazado_147" data-name="Trazado 147" d="M1544.773,1461.94a215.522,215.522,0,0,0-29.524,11l-11.435,12.414-13.256,1.005a218.366,218.366,0,0,0-22.007,15.835l-8.687,13.124-10.639,5.128a212.806,212.806,0,0,0-59.317,147.616v53.7h26.848v-53.7a186.118,186.118,0,0,1,51.8-129.367l7.626-16.214,12.5-2.034a150.939,150.939,0,0,1,23.623-15.836l8.082-11.441,20.9-1.979h.274a181.113,181.113,0,0,1,63.07-11Zm0,0" transform="translate(0 111.431)" fill="url(#linear-gradient)"/>
      <path id="Trazado_148" data-name="Trazado 148" d="M1592.491,1520.463l-13.724-6.453-5.6-11.8a218.376,218.376,0,0,0-22.007-15.836l-13.493-1.146-11.2-12.287a215.548,215.548,0,0,0-29.524-11l-59.854,18.253a181.115,181.115,0,0,1,63.07,11h.274l21.387,3.344,7.609,10.075a151.159,151.159,0,0,1,23.622,15.836l14.771,7.162,5.356,11.085a186.118,186.118,0,0,1,51.8,129.368v53.7h26.848v-53.7a212.8,212.8,0,0,0-59.317-147.616Zm0,0" transform="translate(167.523 111.428)" fill="url(#linear-gradient)"/>
      <path id="Trazado_149" data-name="Trazado 149" d="M1562.741,1488.21l-64.418-13.419a143.334,143.334,0,0,0-27.909,15.836l-3.7,10.507-18.043,7.736A159.785,159.785,0,0,0,1401.7,1622.4v53.7h26.848v-53.7a134.231,134.231,0,0,1,44.813-100.1l3.136-10.019,23.181-8.219a131.608,131.608,0,0,1,63.07-15.836Zm0,0" transform="translate(41.872 157.059)" fill="url(#linear-gradient)"/>
      <path id="Trazado_150" data-name="Trazado 150" d="M1551.162,1508.879l-18.233-9.556-3.509-8.687a143.341,143.341,0,0,0-27.909-15.835l-64.418,13.419a131.624,131.624,0,0,1,63.071,15.836l23.535,10.116,2.772,8.132a134.246,134.246,0,0,1,44.818,100.112v53.7h26.848v-53.7a159.79,159.79,0,0,0-46.97-113.532Zm0,0" transform="translate(167.534 157.096)" fill="url(#linear-gradient)"/>
      <path id="Trazado_151" data-name="Trazado 151" d="M1461.012,1487.65l59.853,8.587a80.754,80.754,0,0,0-80.517,80.517v53.7H1413.5v-53.7a107.219,107.219,0,0,1,47.5-89.1Zm0,0" transform="translate(83.762 202.716)" fill="url(#linear-gradient)"/>
      <path id="Trazado_152" data-name="Trazado 152" d="M1544.452,1576.753v53.7H1517.6v-53.7a80.755,80.755,0,0,0-80.518-80.517l59.853-8.587a107.231,107.231,0,0,1,47.5,89.1Zm0,0" transform="translate(167.509 202.713)" fill="url(#linear-gradient)"/>
      <path id="Trazado_153" data-name="Trazado 153" d="M1532.674,1549.126a53.7,53.7,0,1,1-53.7-53.7A53.7,53.7,0,0,1,1532.674,1549.126Zm0,0" transform="translate(125.59 230.339)" fill="#fff"/>
      <path id="Trazado_154" data-name="Trazado 154" d="M1468.551,1613.625l-8.687,13.125-10.639,5.128a212.826,212.826,0,0,1-59.317-147.621v-53.7h26.848v53.7a186.121,186.121,0,0,0,51.8,129.367Zm0,0" transform="translate(0 0.018)" fill="#fff"/>
      <path id="Trazado_155" data-name="Trazado 155" d="M1427.314,1474.8a151.663,151.663,0,0,0,23.621,15.836l-3.7,10.506-18.043,7.735a216.787,216.787,0,0,1-22.007-15.836l7.627-16.213Zm0,0" transform="translate(61.351 157.091)" fill="#6427c3"/>
      <path id="Trazado_156" data-name="Trazado 156" d="M1506.827,1492.211l-59.854,18.252a215.406,215.406,0,0,1-29.524-11.007l3.126-10.011,23.181-8.219a181.15,181.15,0,0,0,63.071,11Zm0,0" transform="translate(97.786 179.908)" fill="#6427c3"/>
      <path id="Trazado_157" data-name="Trazado 157" d="M1500.161,1481.22l23.535,10.116,2.772,8.132a215.556,215.556,0,0,1-29.524,11.008l-59.854-18.253a181.177,181.177,0,0,0,63.07-11Zm0,0" transform="translate(167.523 179.886)" fill="#6427c3"/>
      <path id="Trazado_158" data-name="Trazado 158" d="M1501.125,1493.044a216.858,216.858,0,0,1-22.007,15.836l-18.234-9.557-3.508-8.687A151.437,151.437,0,0,0,1481,1474.8l14.771,7.162Zm0,0" transform="translate(239.549 157.095)" fill="#6427c3"/>
      <path id="Trazado_159" data-name="Trazado 159" d="M1545.631,1430.56v53.7a212.82,212.82,0,0,1-59.317,147.62l-13.724-6.453-5.6-11.8a186.112,186.112,0,0,0,51.8-129.367v-53.7Zm0,0" transform="translate(273.678 0.015)" fill="#fff"/>
      <path id="Trazado_160" data-name="Trazado 160" d="M1473.365,1584.369l-11.435,12.414-13.255,1a159.783,159.783,0,0,1-46.971-113.532v-53.7h26.848v53.7a134.236,134.236,0,0,0,44.813,100.1Zm0,0" transform="translate(41.875 0.015)" fill="#fff"/>
      <path id="Trazado_161" data-name="Trazado 161" d="M1509.128,1484.206l-64.418,13.419a143.608,143.608,0,0,1-27.909-15.836l8.082-11.441,20.9-1.979h.273a131.664,131.664,0,0,0,63.071,15.835Zm0,0" transform="translate(95.485 134.26)" fill="#6427c3"/>
      <path id="Trazado_162" data-name="Trazado 162" d="M1500.423,1468.37l21.387,3.344,7.609,10.075a143.535,143.535,0,0,1-27.908,15.836l-64.418-13.419a131.648,131.648,0,0,0,63.071-15.836Zm0,0" transform="translate(167.534 134.261)" fill="#6427c3"/>
      <path id="Trazado_163" data-name="Trazado 163" d="M1528.394,1430.57v53.7a159.779,159.779,0,0,1-46.971,113.532l-13.493-1.146-11.2-12.287a134.211,134.211,0,0,0,44.818-100.112v-53.7Zm0,0" transform="translate(237.263 0.004)" fill="#fff"/>
      <path id="Trazado_164" data-name="Trazado 164" d="M1520.855,1564.771,1461,1573.362a107.228,107.228,0,0,1-47.5-89.109v-53.7h26.848v53.7a80.751,80.751,0,0,0,80.518,80.517Zm0,0" transform="translate(83.759)" fill="#fff"/>
      <path id="Trazado_165" data-name="Trazado 165" d="M1544.444,1430.56v53.7a107.236,107.236,0,0,1-47.5,89.109l-59.853-8.591a80.749,80.749,0,0,0,80.517-80.518v-53.7Zm0,0" transform="translate(167.516 0.015)" fill="#fff"/>
      <path id="Trazado_166" data-name="Trazado 166" d="M1532.674,1484.256a53.7,53.7,0,1,1-53.7-53.7,53.7,53.7,0,0,1,53.7,53.7Zm0,0" transform="translate(125.59 0.015)" fill="url(#linear-gradient)"/>
      <path id="Trazado_167" data-name="Trazado 167" d="M1543.641,1468.642a107.259,107.259,0,0,1-119.707,0,212.793,212.793,0,0,1,119.707,0Zm0,0" transform="translate(120.812 104.728)" fill="#9866ff"/>
      <path id="Trazado_168" data-name="Trazado 168" d="M1462.748,1482.611a158.206,158.206,0,0,0-28.987,13.419,156.9,156.9,0,0,1-21.738-18.251,240.557,240.557,0,0,1,24.692-13.42A126.154,126.154,0,0,0,1462.748,1482.611Zm0,0" transform="translate(78.522 120.02)" fill="#9866ff"/>
      <path id="Trazado_169" data-name="Trazado 169" d="M1442.394,1489.041a143.956,143.956,0,0,0-20.128,18.247,178.289,178.289,0,0,1-19.326-18.247,178.276,178.276,0,0,1,19.326-18.252,143.795,143.795,0,0,0,20.128,18.251Zm0,0" transform="translate(46.271 142.85)" fill="#9866ff"/>
      <path id="Trazado_170" data-name="Trazado 170" d="M1501.737,1477.78A156.648,156.648,0,0,1,1480,1496.032a158.091,158.091,0,0,0-28.982-13.419,126.283,126.283,0,0,0,26.033-18.252A241.118,241.118,0,0,1,1501.737,1477.78Zm0,0" transform="translate(216.958 120.028)" fill="#9866ff"/>
      <path id="Trazado_171" data-name="Trazado 171" d="M1502.023,1489.041a178.3,178.3,0,0,1-19.326,18.248,143.882,143.882,0,0,0-20.127-18.248,143.789,143.789,0,0,0,20.127-18.251A178.3,178.3,0,0,1,1502.023,1489.041Zm0,0" transform="translate(257.991 142.85)" fill="#9866ff"/>
      <path id="Trazado_172" data-name="Trazado 172" d="M1501.951,1496.527a241.228,241.228,0,0,1-24.691,13.419,118.143,118.143,0,0,0-26.307-18.247,160.905,160.905,0,0,0,29.26-13.419,156.774,156.774,0,0,1,21.738,18.246Zm0,0" transform="translate(216.745 169.448)" fill="#9866ff"/>
      <path id="Trazado_173" data-name="Trazado 173" d="M1551.763,1485.271c0,7.413-28.841,13.419-64.418,13.419s-64.418-6.006-64.418-13.419,28.842-13.419,64.418-13.419S1551.763,1477.858,1551.763,1485.271Zm0,0" transform="translate(117.24 146.621)" fill="#9866ff"/>
      <path id="Trazado_174" data-name="Trazado 174" d="M1543.641,1501.891a212.884,212.884,0,0,1-119.707,0A107.261,107.261,0,0,1,1543.641,1501.891Zm0,0" transform="translate(120.812 188.474)" fill="#9866ff"/>
      <path id="Trazado_175" data-name="Trazado 175" d="M1463.021,1491.69a118.131,118.131,0,0,0-26.307,18.248,241.11,241.11,0,0,1-24.69-13.419,156.652,156.652,0,0,1,21.742-18.248,160.735,160.735,0,0,0,29.255,13.42Zm0,0" transform="translate(78.522 169.415)" fill="#9866ff"/>
    </g>
  </g>
</svg>
