<svg xmlns="http://www.w3.org/2000/svg" xmlns:xlink="http://www.w3.org/1999/xlink" width="72" height="96" viewBox="0 0 72 96">
  <defs>
    <linearGradient id="linear-gradient" y1="0.5" x2="1" y2="0.5" gradientUnits="objectBoundingBox">
      <stop offset="0.192" stop-color="#44ffc9"/>
      <stop offset="0.702" stop-color="#44ffc9"/>
    </linearGradient>
  </defs>
  <g id="icon-16" transform="translate(-462.153 -50.305)">
    <rect id="Rectángulo_269" data-name="Rectángulo 269" width="48" height="96" transform="translate(462.153 50.305)" fill="#6427c3"/>
    <path id="Trazado_635" data-name="Trazado 635" d="M1155.156,71.305v48a24,24,0,0,0,0-48Zm0,0" transform="translate(-645.003)" fill="url(#linear-gradient)"/>
    <path id="Trazado_636" data-name="Trazado 636" d="M1131.156,95.305a23.927,23.927,0,0,0,7.029,16.971l-7.029,7.029h24v-48a24,24,0,0,0-24,24Zm0,0" transform="translate(-645.003)" fill="#9866ff"/>
    <rect id="Rectángulo_270" data-name="Rectángulo 270" width="12" height="6" transform="translate(480.153 62.305)" fill="url(#linear-gradient)"/>
    <rect id="Rectángulo_271" data-name="Rectángulo 271" width="12" height="6" transform="translate(480.153 128.305)" fill="url(#linear-gradient)"/>
    <path id="Trazado_637" data-name="Trazado 637" d="M1167.156,95.305a3,3,0,1,1-3-3,3,3,0,0,1,3,3Zm0,0" transform="translate(-645.003)" fill="#6427c3"/>
    <path id="Trazado_638" data-name="Trazado 638" d="M1149.156,95.305a3,3,0,1,1-3-3,3,3,0,0,1,3,3Zm0,0" transform="translate(-645.003)" fill="#6427c3"/>
    <path id="Trazado_639" data-name="Trazado 639" d="M1158.156,95.305a3,3,0,1,1-3-3,3,3,0,0,1,3,3Zm0,0" transform="translate(-645.003)" fill="#6427c3"/>
  </g>
</svg>
