<svg xmlns="http://www.w3.org/2000/svg" width="101.108" height="113.534" viewBox="0 0 101.108 113.534">
  <g id="Grupo_146" data-name="Grupo 146" transform="translate(66.757 -884.906)">
    <path id="Trazado_13" data-name="Trazado 13" d="M-4.68,962.966-9.2,965.183h-4.567a17.308,17.308,0,0,1-3.547,8.6l3.192,3.192,1.827,4.647-4.975-1.5-3.192-3.192a17.313,17.313,0,0,1-8.6,3.547V985l-2.217,4.567-2.217-4.523v-4.566a17.321,17.321,0,0,1-8.6-3.547l-3.191,3.192-4.789,1.685,1.641-4.833,3.192-3.192a17.308,17.308,0,0,1-3.547-8.6h-4.523l-4.566-2.217,4.522-2.218h4.567a17.3,17.3,0,0,1,3.547-8.6l-3.192-3.193-1.419-5.054,4.567,1.907L-42.1,949a17.309,17.309,0,0,1,8.6-3.548V940.93l2.216-4.566,2.217,4.522v4.566a17.313,17.313,0,0,1,8.6,3.548l3.192-3.192,4.687-1.786-1.54,4.934-3.192,3.192a17.3,17.3,0,0,1,3.547,8.6h4.523Zm0,0" fill="#6427c3"/>
    <path id="Trazado_14" data-name="Trazado 14" d="M-30.75,927.5a35.465,35.465,0,0,0-36,34.938,35.463,35.463,0,0,0,34.938,36,35.465,35.465,0,0,0,36-34.937,35.464,35.464,0,0,0-34.938-36ZM-9.2,965.183a21.844,21.844,0,0,1-4.922,11.793l1.827,4.647-4.975-1.5A21.921,21.921,0,0,1-29.065,985l-2.217,4.566-2.217-4.522a21.832,21.832,0,0,1-11.793-4.921l-4.789,1.685,1.641-4.833a21.933,21.933,0,0,1-4.878-11.793l-4.566-2.217,4.522-2.218a21.844,21.844,0,0,1,4.922-11.793l-1.419-5.054,4.567,1.907A21.914,21.914,0,0,1-33.5,940.93l2.217-4.566,2.217,4.521a21.834,21.834,0,0,1,11.793,4.923l4.688-1.787-1.54,4.934a21.933,21.933,0,0,1,4.878,11.793l4.566,2.218Zm0,0"/>
    <path id="Trazado_15" data-name="Trazado 15" d="M-10.887,980.213l-3.148,3.148-3.237-3.237a21.1,21.1,0,0,0,3.148-3.148Zm0,0" fill="#9866ff"/>
    <path id="Trazado_16" data-name="Trazado 16" d="M-10.887,945.719l-3.237,3.236a21.1,21.1,0,0,0-3.148-3.147l3.237-3.237Zm0,0" fill="#9866ff"/>
    <path id="Trazado_17" data-name="Trazado 17" d="M-4.68,960.748v4.435H-9.2c.044-.621.088-1.242.088-1.863a24.556,24.556,0,0,0-.132-2.572Zm0,0" fill="#9866ff"/>
    <path id="Trazado_18" data-name="Trazado 18" d="M-45.292,980.124l-3.237,3.237-3.148-3.148,3.237-3.237a21.1,21.1,0,0,0,3.148,3.148Zm0,0" fill="#9866ff"/>
    <path id="Trazado_19" data-name="Trazado 19" d="M-53.318,965.183h-4.566v-4.435h4.522c-.044.622-.088,1.242-.088,1.863a24.541,24.541,0,0,0,.132,2.572Zm0,0" fill="#9866ff"/>
    <path id="Trazado_20" data-name="Trazado 20" d="M-45.292,945.808a21.1,21.1,0,0,0-3.148,3.147l-3.237-3.236,3.148-3.148Zm0,0" fill="#9866ff"/>
    <circle id="Elipse_4" data-name="Elipse 4" cx="7.757" cy="7.757" r="7.757" transform="translate(-39.039 955.209)" fill="#9866ff"/>
    <circle id="Elipse_7" data-name="Elipse 7" cx="24.216" cy="24.216" r="24.216" transform="translate(-14.079 884.906)" fill="#fff"/>
    <path id="Trazado_110" data-name="Trazado 110" d="M10.136,924.3a15.181,15.181,0,0,0,15.181-15.181H-5.045A15.181,15.181,0,0,0,10.136,924.3Z" fill="#6427c3"/>
  </g>
</svg>
