<svg xmlns="http://www.w3.org/2000/svg" xmlns:xlink="http://www.w3.org/1999/xlink" width="95.996" height="96.862" viewBox="0 0 95.996 96.862">
  <defs>
    <linearGradient id="linear-gradient" y1="0.5" x2="1" y2="0.5" gradientUnits="objectBoundingBox">
      <stop offset="0.192" stop-color="#44ffc9"/>
      <stop offset="0.702" stop-color="#44ffc9"/>
    </linearGradient>
  </defs>
  <g id="icon-27" transform="translate(-435 -520.217)">
    <path id="Trazado_650" data-name="Trazado 650" d="M1170.378,568.648A42.377,42.377,0,1,1,1128,526.271a42.377,42.377,0,0,1,42.377,42.377Zm0,0" transform="translate(-645.003)" fill="#6427c3"/>
    <path id="Trazado_651" data-name="Trazado 651" d="M1152.216,568.648A24.215,24.215,0,1,1,1128,544.433a24.215,24.215,0,0,1,24.215,24.215Zm0,0" transform="translate(-645.003)" fill="#9866ff"/>
    <path id="Trazado_652" data-name="Trazado 652" d="M1128,565.622a3.027,3.027,0,1,1,3.027-3.027h6.054a9.056,9.056,0,0,0-6.054-8.526v-3.582h-6.054v3.582A9.06,9.06,0,0,0,1128,571.675a3.027,3.027,0,1,1-3.027,3.027h-6.054a9.054,9.054,0,0,0,6.054,8.525v3.583h6.054v-3.583a9.059,9.059,0,0,0-3.027-17.6Zm0,0" transform="translate(-645.003)" fill="url(#linear-gradient)"/>
    <rect id="Rect치ngulo_281" data-name="Rect치ngulo 281" width="24.216" height="12.108" transform="translate(470.89 520.217)" fill="url(#linear-gradient)"/>
    <path id="Trazado_653" data-name="Trazado 653" d="M1140.109,528.026a42.645,42.645,0,0,0-24.216,0v4.3h24.216Zm0,0" transform="translate(-645.003)" fill="#9866ff"/>
    <rect id="Rect치ngulo_282" data-name="Rect치ngulo 282" width="24.216" height="12.108" transform="translate(470.89 604.972)" fill="url(#linear-gradient)"/>
    <path id="Trazado_654" data-name="Trazado 654" d="M1115.893,609.271a42.645,42.645,0,0,0,24.216,0v-4.3h-24.216Zm0,0" transform="translate(-645.003)" fill="#9866ff"/>
    <path id="Trazado_655" data-name="Trazado 655" d="M1176,582.376l-12.107,20.971-10.486-6.054,12.107-20.971Zm0,0" transform="translate(-645.003)" fill="url(#linear-gradient)"/>
    <path id="Trazado_656" data-name="Trazado 656" d="M1157.117,599.439a42.3,42.3,0,0,0,12.116-20.966l-3.722-2.149L1153.4,597.3Zm0,0" transform="translate(-645.003)" fill="#9866ff"/>
    <path id="Trazado_657" data-name="Trazado 657" d="M1080,554.919l12.108-20.971L1102.6,540l-12.108,20.971Zm0,0" transform="translate(-645.003)" fill="url(#linear-gradient)"/>
    <path id="Trazado_658" data-name="Trazado 658" d="M1098.884,537.858a42.31,42.31,0,0,0-12.115,20.966l3.721,2.149L1102.6,540Zm0,0" transform="translate(-645.003)" fill="#9866ff"/>
    <path id="Trazado_659" data-name="Trazado 659" d="M1090.492,576.324l12.108,20.971-10.486,6.054-12.108-20.971Zm0,0" transform="translate(-645.003)" fill="url(#linear-gradient)"/>
    <path id="Trazado_660" data-name="Trazado 660" d="M1098.884,599.439a42.31,42.31,0,0,1-12.115-20.966l3.721-2.149L1102.6,597.3Zm0,0" transform="translate(-645.003)" fill="#9866ff"/>
    <path id="Trazado_661" data-name="Trazado 661" d="M1153.4,540l10.486-6.054L1176,554.918l-10.487,6.054Zm0,0" transform="translate(-645.003)" fill="url(#linear-gradient)"/>
    <path id="Trazado_662" data-name="Trazado 662" d="M1157.117,537.858a42.323,42.323,0,0,1,12.116,20.966l-3.722,2.149L1153.4,540Zm0,0" transform="translate(-645.003)" fill="#9866ff"/>
  </g>
</svg>
