<svg xmlns="http://www.w3.org/2000/svg" xmlns:xlink="http://www.w3.org/1999/xlink" width="80.547" height="80.547" viewBox="0 0 80.547 80.547">
  <defs>
    <linearGradient id="linear-gradient" y1="0.5" x2="1" y2="0.5" gradientUnits="objectBoundingBox">
      <stop offset="0.192" stop-color="#44ffc9"/>
      <stop offset="0.702" stop-color="#44ffc9"/>
    </linearGradient>
    <linearGradient id="linear-gradient-2" x1="0" y1="0.5" x2="1" y2="0.5" xlink:href="#linear-gradient"/>
  </defs>
  <g id="icon-03" transform="translate(-149.073 -169.08)">
    <path id="Trazado_699" data-name="Trazado 699" d="M159.141,189.217a10.069,10.069,0,1,1,9.716-12.585H179.63v5.034H168.857a10.045,10.045,0,0,1-9.716,7.551Zm0,0" fill="#6427c3"/>
    <rect id="Rectángulo_307" data-name="Rectángulo 307" width="10.773" height="5.034" transform="translate(199.062 176.632)" fill="#6427c3"/>
    <rect id="Rectángulo_308" data-name="Rectángulo 308" width="5.034" height="10.773" transform="translate(217.034 188.865)" fill="#6427c3"/>
    <path id="Trazado_700" data-name="Trazado 700" d="M168.857,211.871v-5.034H179.63a10.026,10.026,0,0,1,19.432,0h10.773v5.034H199.062a10.026,10.026,0,0,1-19.432,0Zm0,0" fill="#6427c3"/>
    <rect id="Rectángulo_309" data-name="Rectángulo 309" width="5.034" height="10.773" transform="translate(156.624 219.07)" fill="#6427c3"/>
    <rect id="Rectángulo_310" data-name="Rectángulo 310" width="10.773" height="5.034" transform="translate(168.857 237.042)" fill="#6427c3"/>
    <path id="Trazado_701" data-name="Trazado 701" d="M229.62,239.559a10.05,10.05,0,0,1-19.785,2.517H199.062v-5.034h10.773a10.05,10.05,0,0,1,19.785,2.517Zm0,0" fill="#6427c3"/>
    <path id="Trazado_702" data-name="Trazado 702" d="M219.551,239.559a5.041,5.041,0,0,1,5.034,5.034H214.517a5.041,5.041,0,0,1,5.034-5.034Zm0,0" fill="url(#linear-gradient)"/>
    <rect id="Rectángulo_311" data-name="Rectángulo 311" width="10.068" height="5.034" transform="translate(184.312 209.354)" fill="url(#linear-gradient-2)"/>
    <path id="Trazado_703" data-name="Trazado 703" d="M159.141,184.183a5.041,5.041,0,0,0,5.034-5.034H154.107a5.041,5.041,0,0,0,5.034,5.034Zm0,0" fill="url(#linear-gradient-2)"/>
    <path id="Trazado_704" data-name="Trazado 704" d="M199.062,237.042a10.026,10.026,0,0,0-19.432,0v5.034a10.026,10.026,0,0,0,19.432,0Zm0,0" fill="#6427c3"/>
    <path id="Trazado_705" data-name="Trazado 705" d="M168.857,237.042a10.023,10.023,0,0,0-7.2-7.2h-5.034a10.05,10.05,0,1,0,12.233,12.233Zm0,0" fill="#6427c3"/>
    <path id="Trazado_706" data-name="Trazado 706" d="M222.068,199.638h-5.034a10.024,10.024,0,0,0-7.2,7.2v5.034a10.05,10.05,0,1,0,12.233-12.233Zm0,0" fill="#6427c3"/>
    <path id="Trazado_707" data-name="Trazado 707" d="M168.857,206.837a10.05,10.05,0,1,0-12.233,12.233h5.034a10.026,10.026,0,0,0,7.2-7.2Zm0,0" fill="#6427c3"/>
    <path id="Trazado_708" data-name="Trazado 708" d="M219.551,169.08a10.046,10.046,0,0,0-9.716,7.552v5.034a10.026,10.026,0,0,0,7.2,7.2h5.034a10.05,10.05,0,0,0-2.517-19.785Zm0,0" fill="#6427c3"/>
    <path id="Trazado_709" data-name="Trazado 709" d="M199.062,176.632a10.026,10.026,0,0,0-19.432,0v5.034a10.026,10.026,0,0,0,19.432,0Zm0,0" fill="#6427c3"/>
    <path id="Trazado_710" data-name="Trazado 710" d="M169.21,239.559a8.447,8.447,0,0,1-.353,2.517H156.624V229.843a9.15,9.15,0,0,1,5.034,0v7.2h7.2a8.434,8.434,0,0,1,.353,2.517Zm0,0" fill="#9866ff"/>
    <path id="Trazado_711" data-name="Trazado 711" d="M169.21,209.354a8.447,8.447,0,0,1-.353,2.517h-7.2v7.2a9.175,9.175,0,0,1-5.034,0V206.837h12.233a8.434,8.434,0,0,1,.353,2.517Zm0,0" fill="#9866ff"/>
    <path id="Trazado_712" data-name="Trazado 712" d="M199.415,239.559a8.447,8.447,0,0,1-.353,2.517H179.63a9.175,9.175,0,0,1,0-5.034h19.432a8.434,8.434,0,0,1,.353,2.517Zm0,0" fill="#9866ff"/>
    <path id="Trazado_713" data-name="Trazado 713" d="M222.068,199.638v12.233H209.835a9.175,9.175,0,0,1,0-5.034h7.2v-7.2a9.15,9.15,0,0,1,5.034,0Zm0,0" fill="#9866ff"/>
    <path id="Trazado_714" data-name="Trazado 714" d="M222.068,176.632v12.233a9.175,9.175,0,0,1-5.034,0v-7.2h-7.2a9.175,9.175,0,0,1,0-5.034Zm0,0" fill="#9866ff"/>
    <path id="Trazado_715" data-name="Trazado 715" d="M199.415,179.149a8.447,8.447,0,0,1-.353,2.517H179.63a9.175,9.175,0,0,1,0-5.034h19.432a8.434,8.434,0,0,1,.353,2.517Zm0,0" fill="#9866ff"/>
  </g>
</svg>
