<svg xmlns="http://www.w3.org/2000/svg" xmlns:xlink="http://www.w3.org/1999/xlink" width="90.918" height="103.907" viewBox="0 0 90.918 103.907">
  <defs>
    <linearGradient id="linear-gradient" y1="0.5" x2="1" y2="0.5" gradientUnits="objectBoundingBox">
      <stop offset="0.192" stop-color="#44ffc9"/>
      <stop offset="0.702" stop-color="#44ffc9"/>
    </linearGradient>
  </defs>
  <g id="icon-15" transform="translate(-282.999 -46.352)">
    <path id="Trazado_610" data-name="Trazado 610" d="M973.461,46.352a64.781,64.781,0,0,0-17.153,19.482h34.306a64.781,64.781,0,0,0-17.153-19.482Zm0,0" transform="translate(-645.003)" fill="url(#linear-gradient)"/>
    <path id="Trazado_611" data-name="Trazado 611" d="M956.308,65.834a64.821,64.821,0,0,0-8.824,32.471V137.27h51.954V98.305a64.821,64.821,0,0,0-8.824-32.471Zm0,0" transform="translate(-645.003)" fill="#6427c3"/>
    <rect id="Rect치ngulo_242" data-name="Rect치ngulo 242" width="12.988" height="19.483" transform="translate(321.964 130.776)" fill="#6427c3"/>
    <rect id="Rect치ngulo_243" data-name="Rect치ngulo 243" width="12.988" height="6.494" transform="translate(321.964 130.776)" fill="#9866ff"/>
    <path id="Trazado_612" data-name="Trazado 612" d="M973.461,95.058a3.247,3.247,0,1,1,3.247-3.247H983.2a9.713,9.713,0,0,0-6.494-9.145V78.823h-6.494v3.843a9.718,9.718,0,0,0,3.247,18.886,3.247,3.247,0,1,1-3.247,3.247H963.72a9.714,9.714,0,0,0,6.494,9.146v3.843h6.494v-3.843a9.719,9.719,0,0,0-3.247-18.887Zm0,0" transform="translate(-645.003)" fill="url(#linear-gradient)"/>
    <path id="Trazado_613" data-name="Trazado 613" d="M1018.92,117.788H992.944V85.317l8.551,4.275a31.527,31.527,0,0,1,17.425,28.2Zm0,0" transform="translate(-645.003)" fill="url(#linear-gradient)"/>
    <path id="Trazado_614" data-name="Trazado 614" d="M928,117.788h25.976V85.317l-8.551,4.275A31.527,31.527,0,0,0,928,117.788Zm0,0" transform="translate(-645.003)" fill="url(#linear-gradient)"/>
    <path id="Trazado_615" data-name="Trazado 615" d="M992.944,117.788h6.494V98.305a64.1,64.1,0,0,0-.819-10.15l-5.675-2.838Zm0,0" transform="translate(-645.003)" fill="#9866ff"/>
    <path id="Trazado_616" data-name="Trazado 616" d="M953.978,85.317,948.3,88.155a64.1,64.1,0,0,0-.819,10.15v19.483h6.494Zm0,0" transform="translate(-645.003)" fill="#9866ff"/>
  </g>
</svg>
