<svg xmlns="http://www.w3.org/2000/svg" xmlns:xlink="http://www.w3.org/1999/xlink" width="84.555" height="63.416" viewBox="0 0 84.555 63.416">
  <defs>
    <linearGradient id="linear-gradient" y1="0.5" x2="1" y2="0.5" gradientUnits="objectBoundingBox">
      <stop offset="0.192" stop-color="#44ffc9"/>
      <stop offset="0.702" stop-color="#44ffc9"/>
    </linearGradient>
  </defs>
  <g id="icon-10" transform="translate(-338.468 -473.309)">
    <path id="Trazado_745" data-name="Trazado 745" d="M375.461,491.8c0,12.631-12.155,18.391-15.167,29.33l-3.33,2.378-3.329-2.378c-3.013-10.939-15.167-16.7-15.167-29.33a18.5,18.5,0,0,1,36.993,0Zm0,0" fill="url(#linear-gradient)"/>
    <path id="Trazado_746" data-name="Trazado 746" d="M423.023,491.8c0,12.631-12.155,18.391-15.167,29.33l-3.33,2.378-3.329-2.378c-3.012-10.939-15.167-16.7-15.167-29.33a18.5,18.5,0,0,1,36.993,0Zm0,0" fill="url(#linear-gradient)"/>
    <path id="Trazado_747" data-name="Trazado 747" d="M417.738,528.8c0,4.386-5.918,7.927-13.212,7.927-5.76,0-10.569-2.22-12.418-5.285H369.383c-1.849,3.065-6.658,5.285-12.419,5.285-7.293,0-13.211-3.541-13.211-7.927,0-3.7,4.227-6.817,9.882-7.663l3.329,2.378,3.33-2.378c4.227.634,7.61,2.59,9.089,5.021h22.725c1.479-2.431,4.861-4.387,9.089-5.021l3.329,2.378,3.33-2.378c5.655.846,9.882,3.964,9.882,7.663Zm0,0" fill="#6427c3"/>
    <path id="Trazado_748" data-name="Trazado 748" d="M364.891,491.8a7.927,7.927,0,1,1-7.927-7.927,7.927,7.927,0,0,1,7.927,7.927Zm0,0" fill="#9866ff"/>
    <path id="Trazado_749" data-name="Trazado 749" d="M412.453,491.8a7.927,7.927,0,1,1-7.927-7.927,7.926,7.926,0,0,1,7.927,7.927Zm0,0" fill="#9866ff"/>
    <path id="Trazado_750" data-name="Trazado 750" d="M360.294,521.135a19.19,19.19,0,0,0-.687,5.021h-5.285a19.19,19.19,0,0,0-.687-5.021,21.124,21.124,0,0,1,6.659,0Zm0,0" fill="#9866ff"/>
    <path id="Trazado_751" data-name="Trazado 751" d="M407.856,521.135a19.191,19.191,0,0,0-.687,5.021h-5.285a19.19,19.19,0,0,0-.687-5.021,21.124,21.124,0,0,1,6.659,0Zm0,0" fill="#9866ff"/>
  </g>
</svg>
