<svg xmlns="http://www.w3.org/2000/svg" xmlns:xlink="http://www.w3.org/1999/xlink" width="88.44" height="88.44" viewBox="0 0 88.44 88.44">
  <defs>
    <linearGradient id="linear-gradient" y1="0.5" x2="1" y2="0.5" gradientUnits="objectBoundingBox">
      <stop offset="0.192" stop-color="#44ffc9"/>
      <stop offset="0.702" stop-color="#44ffc9"/>
    </linearGradient>
    <linearGradient id="linear-gradient-2" y1="0.5" x2="1" y2="0.5" gradientUnits="objectBoundingBox">
      <stop offset="0.191" stop-color="#44ffc9"/>
      <stop offset="0.928" stop-color="#44ffc9"/>
    </linearGradient>
  </defs>
  <g id="icon-13" transform="translate(-337.603 -668.437)">
    <path id="Trazado_759" data-name="Trazado 759" d="M370.768,685.019a16.442,16.442,0,0,1-3.316,9.95l-9.729,12.989h-7.075l-9.729-12.989a16.583,16.583,0,1,1,29.849-9.95Zm0,0" fill="url(#linear-gradient)"/>
    <path id="Trazado_760" data-name="Trazado 760" d="M426.043,718.184a16.442,16.442,0,0,1-3.316,9.95L413,741.123h-7.075l-9.729-12.989a16.583,16.583,0,1,1,29.849-9.95Zm0,0" fill="url(#linear-gradient-2)"/>
    <path id="Trazado_761" data-name="Trazado 761" d="M362.476,715.421a8.291,8.291,0,0,1-16.582,0,8.156,8.156,0,0,1,4.754-7.463h7.075a8.157,8.157,0,0,1,4.753,7.463Zm0,0" fill="#6427c3"/>
    <path id="Trazado_762" data-name="Trazado 762" d="M417.752,748.586a8.292,8.292,0,0,1-16.583,0,8.156,8.156,0,0,1,4.754-7.463H413a8.158,8.158,0,0,1,4.754,7.463Zm0,0" fill="#6427c3"/>
    <path id="Trazado_763" data-name="Trazado 763" d="M395.642,751.35H354.185a11.055,11.055,0,0,1,0-22.11H376.3a5.528,5.528,0,1,0,0-11.056H368v-5.527H376.3a11.055,11.055,0,0,1,0,22.11h-22.11a5.527,5.527,0,0,0,0,11.055h41.457Zm0,0" fill="#6427c3"/>
    <path id="Trazado_764" data-name="Trazado 764" d="M362.476,682.256v5.527H351.421V676.728h5.528v5.528Zm0,0" fill="#9866ff"/>
    <path id="Trazado_765" data-name="Trazado 765" d="M401.169,720.948v-5.527h11.055v11.055H406.7v-5.528Zm0,0" fill="#9866ff"/>
    <path id="Trazado_766" data-name="Trazado 766" d="M357.723,707.958l-3.538,4.7-3.537-4.7a7.962,7.962,0,0,1,7.075,0Zm0,0" fill="#9866ff"/>
    <path id="Trazado_767" data-name="Trazado 767" d="M413,741.123l-3.538,4.7-3.537-4.7a7.971,7.971,0,0,1,7.075,0Zm0,0" fill="#9866ff"/>
  </g>
</svg>
