<svg xmlns="http://www.w3.org/2000/svg" xmlns:xlink="http://www.w3.org/1999/xlink" width="98.657" height="98.656" viewBox="0 0 98.657 98.656">
  <defs>
    <linearGradient id="linear-gradient" y1="0.5" x2="1" y2="0.5" gradientUnits="objectBoundingBox">
      <stop offset="0.192" stop-color="#44ffc9"/>
      <stop offset="0.702" stop-color="#44ffc9"/>
    </linearGradient>
  </defs>
  <g id="icon-22" transform="translate(-95.259 -390.604)">
    <path id="Trazado_596" data-name="Trazado 596" d="M838.919,421.434a30.83,30.83,0,1,1-9.03-21.8,30.83,30.83,0,0,1,9.03,21.8Zm0,0" transform="translate(-645.003)" fill="#6427c3"/>
    <path id="Trazado_597" data-name="Trazado 597" d="M808.089,418.351a3.083,3.083,0,1,1,3.083-3.083h6.166a9.222,9.222,0,0,0-6.166-8.683v-3.649h-6.166v3.649a9.227,9.227,0,0,0,3.083,17.932,3.083,3.083,0,1,1-3.083,3.083H798.84a9.222,9.222,0,0,0,6.166,8.683v3.649h6.166v-3.649a9.227,9.227,0,0,0-3.083-17.932Zm0,0" transform="translate(-645.003)" fill="url(#linear-gradient)"/>
    <path id="Trazado_598" data-name="Trazado 598" d="M740.262,458.43a30.83,30.83,0,1,1,30.831,30.83H740.262l9.031-9.03a30.733,30.733,0,0,1-9.031-21.8Zm0,0" transform="translate(-645.003)" fill="url(#linear-gradient)"/>
    <rect id="Rect치ngulo_239" data-name="Rect치ngulo 239" width="30.83" height="6.166" transform="translate(110.675 449.181)" fill="#6427c3"/>
    <rect id="Rect치ngulo_240" data-name="Rect치ngulo 240" width="30.83" height="6.166" transform="translate(110.675 461.513)" fill="#6427c3"/>
    <path id="Trazado_599" data-name="Trazado 599" d="M801.135,451.476a31.271,31.271,0,0,1-23.089-23.088,30.716,30.716,0,0,1,23.089,23.088Zm0,0" transform="translate(-645.003)" fill="#9866ff"/>
  </g>
</svg>
