<svg xmlns="http://www.w3.org/2000/svg" xmlns:xlink="http://www.w3.org/1999/xlink" width="117.282" height="88.942" viewBox="0 0 117.282 88.942">
  <defs>
    <linearGradient id="linear-gradient" y1="0.5" x2="1" y2="0.5" gradientUnits="objectBoundingBox">
      <stop offset="0.192" stop-color="#44ffc9"/>
      <stop offset="0.702" stop-color="#44ffc9"/>
    </linearGradient>
  </defs>
  <g id="Grupo_147" data-name="Grupo 147" transform="translate(-367.402 -913.015)">
    <path id="Trazado_81" data-name="Trazado 81" d="M470.939,979.309v12.942H458l-9.707-3.236-9.706,3.236H399.757l-9.706-3.236-9.707,3.236H367.4V979.309l6.471-3.236-6.471-3.235v-6.472l11-16.5a6.552,6.552,0,0,1,5.436-2.912h39.667a6.653,6.653,0,0,1,3.883,1.295l24.137,18.118h12.942a6.491,6.491,0,0,1,6.471,6.472l-6.471,3.235Zm0,0" fill="#fff"/>
    <path id="Trazado_82" data-name="Trazado 82" d="M399.757,992.251a9.706,9.706,0,0,1-19.413,0l9.707-3.236Zm0,0" fill="#6427c3"/>
    <path id="Trazado_83" data-name="Trazado 83" d="M458,992.251a9.706,9.706,0,0,1-19.413,0l9.706-3.236Zm0,0" fill="#6427c3"/>
    <rect id="Rectángulo_18" data-name="Rectángulo 18" width="6.471" height="6.471" transform="translate(367.402 972.838)" fill="#9866ff"/>
    <rect id="Rectángulo_19" data-name="Rectángulo 19" width="12.942" height="6.471" transform="translate(399.757 972.838)" fill="#6427c3"/>
    <rect id="Rectángulo_20" data-name="Rectángulo 20" width="12.942" height="6.471" transform="translate(457.997 972.838)" fill="#9866ff"/>
    <path id="Trazado_84" data-name="Trazado 84" d="M383.807,953.424l-8.628,12.942h18.107V953.424Zm0,0" fill="#6427c3"/>
    <path id="Trazado_85" data-name="Trazado 85" d="M423.484,953.424H399.757v12.942h40.982Zm0,0" fill="#6427c3"/>
    <path id="Trazado_86" data-name="Trazado 86" d="M399.757,992.251H380.344a9.706,9.706,0,1,1,19.413,0Zm0,0" fill="#9866ff"/>
    <path id="Trazado_87" data-name="Trazado 87" d="M458,992.251H438.584a9.706,9.706,0,1,1,19.413,0Zm0,0" fill="#9866ff"/>
    <path id="Trazado_88" data-name="Trazado 88" d="M484.684,937.231a24.215,24.215,0,1,1-24.216-24.216,24.215,24.215,0,0,1,24.216,24.216Zm0,0" fill="url(#linear-gradient)"/>
    <g id="Grupo_11" data-name="Grupo 11">
      <circle id="Elipse_10" data-name="Elipse 10" cx="24.216" cy="24.216" r="24.216" transform="translate(436.253 913.015)" fill="#353535"/>
      <path id="Trazado_781" data-name="Trazado 781" d="M465.3,925.47l-7.732,16.587-1.935-4.827h-6.012l4.714,11.761h6.012l10.964-23.521Z" fill="#4af4ca"/>
    </g>
  </g>
</svg>
