<svg xmlns="http://www.w3.org/2000/svg" xmlns:xlink="http://www.w3.org/1999/xlink" width="92.546" height="92.547" viewBox="0 0 92.546 92.547">
  <defs>
    <linearGradient id="linear-gradient" y1="0.5" x2="1" y2="0.5" gradientUnits="objectBoundingBox">
      <stop offset="0.192" stop-color="#44ffc9"/>
      <stop offset="0.702" stop-color="#44ffc9"/>
    </linearGradient>
  </defs>
  <g id="icon-25" transform="translate(-116.813 -525.267)">
    <path id="Trazado_600" data-name="Trazado 600" d="M808.089,617.814H767.6a5.784,5.784,0,0,1-5.784-5.784V531.051a5.784,5.784,0,0,1,5.784-5.784h40.489a5.784,5.784,0,0,1,5.784,5.784V612.03a5.785,5.785,0,0,1-5.784,5.784Zm0,0" transform="translate(-645.003)" fill="#6427c3"/>
    <rect id="Rectángulo_241" data-name="Rectángulo 241" width="52.057" height="69.41" transform="translate(116.813 536.836)" fill="#fff"/>
    <path id="Trazado_601" data-name="Trazado 601" d="M854.362,571.541A23.137,23.137,0,1,1,831.225,548.4a23.136,23.136,0,0,1,23.137,23.137Zm0,0" transform="translate(-645.003)" fill="#6427c3"/>
    <path id="Trazado_602" data-name="Trazado 602" d="M831.225,568.648a2.892,2.892,0,1,1,2.893-2.892H839.9a8.652,8.652,0,0,0-5.784-8.145v-3.423h-5.785v3.423a8.656,8.656,0,0,0,2.892,16.822,2.892,2.892,0,1,1-2.892,2.892h-5.784a8.652,8.652,0,0,0,5.784,8.145v3.423h5.785V585.47a8.656,8.656,0,0,0-2.893-16.822Zm0,0" transform="translate(-645.003)" fill="url(#linear-gradient)"/>
    <path id="Trazado_603" data-name="Trazado 603" d="M808.817,565.756h-12.3v-5.784l-23.137,11.569,23.137,11.568v-5.784h12.3a23.559,23.559,0,0,0,5.056,9.519V556.237a23.559,23.559,0,0,0-5.056,9.519Zm0,0" transform="translate(-645.003)" fill="#9866ff"/>
  </g>
</svg>
