<?xml version="1.0" encoding="UTF-8"?>
<!DOCTYPE svg PUBLIC "-//W3C//DTD SVG 1.1//EN" "http://www.w3.org/Graphics/SVG/1.1/DTD/svg11.dtd">
<!-- Creator: CorelDRAW X7 -->
<svg xmlns="http://www.w3.org/2000/svg" xml:space="preserve" width="100%" height="100%" version="1.1" style="shape-rendering:geometricPrecision; text-rendering:geometricPrecision; image-rendering:optimizeQuality; fill-rule:evenodd; clip-rule:evenodd" viewBox="0 0 25334 25334" xmlns:xlink="http://www.w3.org/1999/xlink">
 <defs>
  <style type="text/css">
   <![CDATA[

    .fil0{fill:black fill-rule:nonzero, -webkit-animation: anima 7s linear 1s infinite; animation: anima 7s linear 1s infinite; -webkit-transform: scale(0.1); transform: scale(0.1); -webkit-transform-origin: 50% 50%; transform-origin: 50% 50%; opacity: 0.1}

    @-webkit-keyframes anima
    {
        0%{-webkit-transform: scale(0.1); transform: scale(0.1); opacity: 0.1}
        33%{-webkit-transform: scale(0.4); transform: scale(0.4); opacity: 0.2}
        66%{-webkit-transform: scale(0.7); transform: scale(0.7); opacity: 0}
        90%{-webkit-transform: scale(1); transform: scale(1); opacity: 0}
        100%{-webkit-transform: scale(0.3); transform: scale(0.3); opacity: 0}
    }

    @keyframes anima
    {
        0%{-webkit-transform: scale(0.1); transform: scale(0.1); opacity: 0.1}
        33%{-webkit-transform: scale(0.4); transform: scale(0.4); opacity: 0.2}
        66%{-webkit-transform: scale(0.7); transform: scale(0.7); opacity: 0}
        90%{-webkit-transform: scale(1); transform: scale(1); opacity: 0}
        100%{-webkit-transform: scale(0.3); transform: scale(0.3); opacity: 0}
    }

    .fil0:nth-child(1){-webkit-animation-duration: 3.5s; animation-duration: 3.5s; -webkit-animation-delay: 0.5s; animation-delay: 0.5s}
    .fil0:nth-child(2){-webkit-animation-duration: 2.2s; animation-duration: 2.2s; -webkit-animation-delay: 1.8s; animation-delay: 1.8s}
    .fil0:nth-child(3){-webkit-animation-duration: 1.8s; animation-duration: 1.8s; -webkit-animation-delay: 3.1s; animation-delay: 3.1s}

   ]]>
  </style>
 </defs>
 <g id="Capa_x0020_1">
  <metadata id="CorelCorpID_0Corel-Layer"/>
  <g id="_1972752855520">
   <path class="fil0" d="M12280 149c0,-79 59,-149 139,-149l10 0c69,0 139,60 139,139 0,80 -60,149 -139,149l0 0c-80,0 -149,-69 -149,-139zm606 25185c-80,0 -139,-59 -139,-139 0,-79 59,-149 139,-149l0 0c79,0 139,60 139,139 0,80 -60,149 -139,149zm-517 0c-79,0 -139,-69 -139,-149 0,-79 70,-139 149,-139 80,0 139,70 139,149 0,80 -69,139 -139,139l-10 0zm884 -149c0,-79 60,-149 139,-159 70,0 140,60 149,139 0,80 -59,149 -139,149l-10 0c-69,0 -139,-59 -139,-129zm-1400 129c-80,-9 -140,-79 -130,-158 0,-70 70,-130 149,-130 80,0 139,70 130,149 0,80 -60,139 -140,139l-9 0zm1907 -168c0,-80 50,-149 129,-149 80,-10 149,49 159,119 10,79 -50,149 -129,159l-10 0c-79,0 -139,-50 -149,-129zm-2424 119c-70,-10 -129,-80 -119,-149 10,-80 79,-139 149,-129 79,10 139,79 129,149 -10,79 -70,129 -139,129 -10,0 -10,0 -20,0zm2931 -169c-10,-80 49,-149 129,-159 69,-20 149,40 159,119 10,80 -50,149 -119,159 -10,0 -20,0 -20,0 -70,0 -139,-50 -149,-119zm-3438 109c-79,-10 -129,-89 -119,-159 10,-79 79,-139 159,-129 79,20 129,90 119,169 -10,70 -69,119 -139,119 -10,0 -10,0 -20,0zm3944 -189c-10,-79 40,-149 120,-159 79,-19 149,30 159,110 19,79 -30,149 -110,169 -10,0 -20,0 -29,0 -60,0 -120,-50 -140,-120zm-4450 100c-80,-10 -130,-90 -120,-159 20,-80 90,-129 169,-119 80,19 129,89 109,169 -9,69 -69,119 -139,119 -10,0 -10,-10 -19,-10zm4957 -199c-20,-69 30,-149 109,-169 70,-10 149,30 169,109 10,80 -30,159 -109,169 -10,10 -20,10 -30,10 -69,0 -129,-49 -139,-119zm-5464 99c-80,-19 -129,-99 -109,-168 19,-80 99,-130 168,-110 80,20 130,90 110,169 -20,70 -80,109 -139,109 -10,0 -20,0 -30,0zm5961 -208c-20,-80 20,-159 99,-179 80,-20 149,30 169,99 20,80 -20,159 -99,179 -10,0 -20,0 -30,0 -70,0 -119,-40 -139,-99zm-6468 79c-69,-20 -119,-99 -99,-179 20,-69 99,-119 179,-99l0 0c79,20 119,99 99,179 -20,60 -80,99 -139,99 -10,0 -20,0 -40,0zm6955 -218c-20,-70 20,-159 99,-179 70,-20 149,20 179,99 20,70 -20,149 -99,169 -10,10 -30,10 -40,10 -60,0 -119,-40 -139,-99zm-7442 69c-79,-20 -119,-99 -99,-179 30,-69 109,-119 179,-89l0 0c79,20 119,99 89,179 -10,59 -69,99 -129,99 -20,0 -30,0 -40,-10zm7928 -228c-19,-70 20,-149 90,-179 79,-30 159,10 179,89 30,70 -10,149 -80,179 -20,0 -30,10 -49,10 -60,0 -110,-40 -140,-99l0 0zm-8424 59c-70,-20 -110,-109 -80,-178 20,-70 109,-110 179,-90 69,30 109,109 89,189 -29,60 -79,89 -139,89 -10,0 -30,0 -49,-10l0 0zm8911 -238c-30,-70 0,-149 80,-179 69,-30 149,0 179,80 29,69 0,149 -80,178 -10,10 -30,10 -50,10 -59,0 -109,-29 -129,-89l0 0zm-9388 60c-80,-30 -110,-120 -80,-189 30,-70 109,-110 189,-80 70,30 99,120 70,189 -20,50 -70,89 -130,89 -20,0 -29,-9 -49,-9l0 0zm9855 -249c-30,-79 0,-159 70,-189 79,-39 159,0 189,70 39,69 9,149 -70,189 -20,10 -40,10 -60,10 -49,0 -99,-30 -129,-80zm-10332 40c-70,-30 -100,-119 -70,-189 40,-69 119,-99 189,-69 70,29 109,119 70,188 -20,50 -70,80 -130,80 -19,0 -39,0 -59,-10zm10799 -258c-30,-70 -10,-159 60,-189 69,-40 159,-10 199,59 29,70 0,159 -70,189 -20,10 -40,20 -60,20 -49,0 -99,-30 -129,-79zm-11256 29l0 0c-70,-29 -100,-119 -70,-188 40,-70 129,-100 199,-60l0 0c69,30 89,119 60,189 -30,49 -80,79 -130,79 -19,0 -39,-10 -59,-20zm11713 -268c-40,-69 -20,-149 50,-189 69,-39 159,-19 199,50 39,70 10,159 -60,199 -20,10 -40,20 -70,20 -49,0 -99,-30 -119,-80zm-12170 30c-70,-40 -90,-129 -60,-199 40,-69 129,-89 199,-49l0 0c69,39 89,119 50,188 -20,50 -70,80 -120,80 -20,0 -49,-10 -69,-20zm12617 -278c-49,-70 -20,-159 40,-199 70,-40 159,-20 199,50 39,69 20,149 -50,198 -20,10 -50,20 -69,20 -50,0 -100,-29 -120,-69zm-13064 10c-70,-40 -90,-129 -40,-189 40,-70 119,-89 189,-50 69,40 89,129 49,199 -29,40 -79,60 -119,60 -30,0 -49,0 -79,-20zm13491 -278c-39,-70 -19,-159 40,-199 70,-50 159,-30 199,40 40,59 30,149 -40,198 -20,10 -49,20 -79,20 -40,0 -90,-20 -120,-59zm-13919 0c-69,-40 -89,-130 -39,-199 39,-60 129,-80 198,-40 60,50 80,139 30,199 -20,40 -69,59 -109,59 -30,0 -60,0 -80,-19zm14347 -289c-50,-69 -40,-159 30,-198 59,-50 149,-40 198,30 50,59 30,149 -30,198 -29,20 -59,20 -89,20 -40,0 -79,-20 -109,-50l0 0zm-14774 -10c-59,-49 -79,-139 -30,-198 50,-60 140,-80 199,-30 70,50 80,139 30,199 -30,39 -70,59 -109,59 -30,0 -60,-10 -90,-30l0 0zm15181 -298c-50,-59 -40,-149 20,-198 69,-50 159,-40 199,20 49,59 39,149 -20,198 -30,20 -60,30 -90,30 -39,0 -79,-20 -109,-50l0 0zm-15588 -19c-60,-50 -70,-140 -20,-199 50,-60 139,-70 199,-20 59,50 69,139 20,199 -30,39 -70,59 -110,59 -29,0 -59,-20 -89,-39l0 0zm15985 -298c-49,-60 -39,-150 20,-209l-10 0c70,-50 149,-40 209,20 50,59 40,149 -20,198 -30,20 -59,40 -89,40 -40,0 -80,-20 -110,-49l0 0zm-16382 -30c-60,-50 -60,-139 -10,-199 49,-60 139,-70 198,-20 60,60 60,149 10,209 -30,30 -69,49 -109,49 -30,0 -60,-19 -89,-39l0 0zm16770 -308c-60,-60 -50,-149 0,-209l0 0c60,-50 149,-50 209,10 49,60 49,149 -10,199l0 0c-30,30 -60,39 -100,39 -39,0 -79,-9 -99,-39l0 0zm-17148 -40c-60,-50 -60,-139 -10,-199 60,-59 139,-59 199,-10 59,60 59,149 10,209 -30,20 -70,40 -110,40 -29,0 -69,-10 -89,-40l0 0zm17516 -318c-60,-50 -60,-139 0,-199 49,-59 139,-59 198,0 60,50 60,139 0,199 -30,30 -59,40 -99,40 -40,0 -70,-10 -99,-40l0 0zm-17884 -40c-59,-59 -59,-149 0,-208 50,-50 149,-50 199,10 60,49 50,139 0,198 -30,30 -69,40 -99,40 -40,0 -80,-20 -100,-40l0 0zm18241 -328c-59,-49 -69,-139 -10,-198 50,-60 139,-60 199,-10 60,49 60,139 10,199 -30,29 -70,49 -109,49 -30,0 -70,-10 -90,-40l0 0zm-18598 -49c-50,-60 -50,-149 10,-199 59,-60 149,-50 198,10 60,50 50,149 -10,199 -29,20 -59,39 -89,39 -40,0 -79,-19 -109,-49l0 0zm18936 -328c-60,-50 -70,-139 -20,-199 50,-59 139,-69 199,-20 59,50 69,139 20,199l0 0c-30,30 -70,50 -110,50 -29,0 -59,-10 -89,-30l0 0zm-19274 -70l0 0c-50,-59 -40,-149 20,-198 59,-50 149,-40 199,20 49,59 39,149 -20,198 -30,20 -60,40 -90,40 -39,0 -79,-20 -109,-60l0 0zm19592 -327c-60,-50 -70,-140 -20,-199 50,-60 139,-70 199,-30 59,50 69,139 30,209 -30,29 -80,49 -120,49 -30,0 -59,-10 -89,-29l0 0zm-19910 -70c-50,-70 -40,-159 20,-199 69,-49 159,-39 199,20 49,70 39,159 -20,199 -30,20 -60,30 -90,30 -39,0 -89,-20 -109,-50l0 0zm20218 -338c-60,-40 -80,-129 -30,-199 50,-59 139,-79 199,-29 59,39 79,129 30,198 -20,40 -70,60 -110,60 -30,0 -59,-10 -89,-30l0 0zm-20526 -79c-50,-70 -30,-159 30,-199 69,-50 159,-30 199,30 49,69 29,159 -30,199 -30,19 -50,29 -80,29 -49,0 -89,-20 -119,-59zm20824 -338c-70,-40 -89,-129 -40,-199 40,-59 129,-79 189,-40 69,40 89,130 50,199l0 0c-30,40 -80,60 -130,60 -19,0 -49,0 -69,-20zm-21112 -99c-40,-60 -20,-149 40,-189 69,-50 159,-30 198,40 40,69 20,158 -39,198 -30,10 -50,20 -80,20 -50,0 -89,-20 -119,-69zm21380 -328c-69,-40 -89,-129 -50,-199 40,-70 130,-89 199,-50 70,40 90,129 50,199 -30,40 -80,70 -119,70 -30,0 -50,-10 -80,-20zm-21648 -110c-40,-69 -20,-149 49,-198 70,-40 149,-10 189,59 40,60 20,149 -50,189 -19,10 -39,20 -69,20 -50,0 -99,-20 -119,-70zm21906 -337c-69,-30 -99,-120 -59,-189 40,-70 129,-99 199,-60 69,40 89,119 49,189 -20,50 -69,79 -119,79 -30,0 -50,-9 -70,-19zm-22165 -110c-29,-69 -10,-159 60,-198 70,-40 159,-10 199,59 30,70 10,159 -60,199 -20,10 -50,10 -69,10 -50,0 -100,-30 -130,-70zm22404 -337c-70,-40 -99,-120 -70,-189 40,-70 120,-100 189,-70 80,40 99,119 70,189 -20,50 -80,79 -129,79 -20,0 -40,0 -60,-9zm-22632 -130c-40,-69 -10,-159 69,-188 70,-30 149,0 189,69 30,70 0,149 -69,189 -20,10 -40,10 -60,10 -60,0 -109,-30 -129,-80zm22850 -327c-69,-40 -109,-120 -69,-189 30,-80 109,-110 179,-80 79,40 109,120 79,189 -30,50 -79,89 -129,89 -20,0 -40,-9 -60,-9l0 0zm-23069 -140c-29,-79 10,-159 80,-188 69,-30 149,0 189,69 29,80 -10,159 -80,189 -20,10 -40,10 -50,10 -59,0 -109,-30 -139,-80zm23268 -337c-69,-20 -109,-110 -79,-179 30,-70 109,-109 179,-80 79,30 109,110 89,179 -30,60 -80,90 -139,90 -20,0 -30,0 -50,-10l0 0zm-23456 -149c-30,-70 9,-149 79,-179 70,-30 159,10 179,79 30,80 0,159 -80,189 -19,0 -29,10 -49,10 -60,0 -110,-40 -129,-99l0 0zm23635 -328c-70,-20 -109,-100 -89,-179 29,-70 109,-109 188,-89 70,29 110,109 80,178 -20,60 -70,100 -129,100 -20,0 -30,0 -50,-10l0 0zm-23814 -159c-20,-70 20,-149 89,-179 80,-20 159,20 179,89 30,80 -10,159 -89,179 -10,10 -30,10 -40,10 -60,0 -119,-40 -139,-99zm23983 -318c-80,-30 -119,-109 -99,-179l0 0c19,-79 99,-119 178,-99 70,20 110,99 90,179l0 0c-20,59 -70,99 -129,99 -20,0 -30,0 -40,0zm-24132 -169c-30,-79 20,-159 89,-179 80,-20 159,20 179,100 20,69 -20,149 -99,168 -10,10 -20,10 -40,10 -60,0 -119,-39 -129,-99zm24271 -328c-79,-20 -129,-99 -109,-169 20,-79 99,-129 179,-109 69,20 119,99 99,179 -20,59 -70,109 -139,109 -10,0 -20,-10 -30,-10zm-24410 -179l0 0c-20,-69 29,-149 109,-169 69,-19 149,30 169,110 20,69 -30,149 -110,169 -9,0 -19,0 -29,0 -60,0 -120,-40 -139,-110zm24529 -318c-79,-19 -129,-89 -109,-169 10,-79 89,-129 169,-109 69,20 119,90 109,169 -20,70 -79,109 -139,109 -10,0 -20,0 -30,0zm-24639 -178c-20,-80 30,-159 110,-169 79,-20 149,29 168,109 10,79 -39,149 -109,169 -10,0 -20,0 -30,0 -69,0 -129,-40 -139,-109zm24739 -318c-80,-20 -130,-90 -120,-169 10,-80 90,-129 169,-119 70,19 129,89 110,168 -10,70 -70,120 -140,120 0,0 -9,0 -19,0zm-24838 -189c-10,-80 40,-159 119,-169 80,-10 149,40 169,119l0 0c10,80 -50,149 -119,159 -10,10 -20,10 -30,10 -60,0 -119,-50 -139,-119zm24917 -318c-79,-10 -129,-80 -119,-159 0,-79 79,-129 149,-119 79,10 139,79 129,159 -10,69 -70,119 -139,119 -10,0 -10,0 -20,0zm-24987 -199c-10,-79 50,-149 130,-159 69,-10 149,50 149,129 10,80 -40,149 -120,159 -10,0 -10,0 -19,0 -70,0 -130,-59 -140,-129zm25047 -308c-80,-10 -139,-79 -129,-159 9,-69 69,-129 149,-129 79,10 139,80 129,159 0,70 -70,129 -139,129 0,0 -10,0 -10,0zm-25096 -208c-10,-80 49,-139 129,-149 79,-10 149,49 159,129l-10 0c10,79 -50,149 -129,149l-10 0c-70,0 -129,-50 -139,-129zm25135 -298c-79,-10 -139,-70 -139,-149 0,-80 70,-140 149,-140 80,0 139,70 139,149 -10,80 -69,140 -149,140l0 0zm-25165 -219c0,-70 60,-139 139,-139 80,-10 139,50 149,129 0,80 -60,149 -139,149l-10 0c-70,0 -139,-60 -139,-139zm25185 -298c-79,0 -149,-60 -149,-139l0 0c0,-10 0,-20 10,-30 -10,0 -10,-10 -10,-20 0,-79 70,-139 149,-139 80,0 139,60 139,139 0,10 0,20 0,20 0,10 0,20 0,30 0,79 -59,139 -139,139l0 0zm-25195 -219c0,-69 60,-139 139,-139 80,0 149,70 149,149 0,70 -69,139 -149,139 -79,0 -139,-69 -139,-149zm25036 -477c0,-79 60,-139 139,-149 80,0 149,60 149,140 0,79 -59,149 -139,149l0 0c-79,0 -139,-60 -149,-140zm-24887 110c-79,0 -139,-70 -139,-149 0,-70 69,-139 149,-129 79,0 139,69 139,149 -10,69 -69,129 -149,129 0,0 0,0 0,0zm24858 -616c0,-70 49,-139 129,-149 79,-10 149,49 159,129 0,79 -50,149 -130,159 -9,0 -9,0 -9,0 -80,0 -140,-60 -149,-139zm-24838 109c-70,-10 -129,-79 -129,-149l0 0c10,-79 79,-139 159,-129 79,0 139,69 129,149 -10,69 -70,129 -139,129l-20 0zm24788 -606c-10,-79 50,-149 129,-159 70,-10 149,50 159,119 10,80 -50,149 -129,159 -10,0 -10,0 -20,0 -70,0 -129,-49 -139,-119zm-24738 99c-80,-10 -130,-79 -120,-159 10,-79 80,-129 159,-129 80,10 129,90 120,159 -10,80 -70,129 -140,129 -9,0 -9,0 -19,0zm24668 -606c-10,-69 40,-149 120,-159 79,-10 149,40 158,120 10,79 -39,149 -119,159 0,0 -10,10 -20,10 -69,0 -129,-50 -139,-130zm-24599 100c-79,-10 -129,-90 -119,-169 10,-70 89,-129 169,-109 69,9 129,79 109,159 -10,69 -69,119 -139,119 0,0 -10,0 -20,0zm24510 -586c-20,-80 30,-159 109,-169 80,-20 149,29 169,109 10,69 -40,149 -109,169 -10,0 -20,0 -30,0 -70,0 -129,-50 -139,-109zm-24420 79c-80,-10 -130,-89 -110,-169 10,-69 90,-119 169,-109 70,20 119,89 109,169 -19,69 -79,119 -139,119 -10,0 -20,-10 -29,-10zm24311 -576c-20,-80 19,-149 99,-169 79,-20 149,20 169,99l0 0c20,80 -30,159 -100,169 -9,10 -29,10 -39,10 -60,0 -119,-40 -129,-109zm-24202 79c-80,-20 -129,-99 -109,-169 19,-79 99,-129 178,-109 70,20 120,99 100,179 -20,60 -70,99 -139,99 -10,0 -20,0 -30,0zm24062 -566l0 0c-19,-79 20,-159 100,-179 69,-20 149,20 179,100 20,69 -20,149 -100,178 -10,0 -29,0 -39,0 -60,0 -120,-39 -140,-99zm-23933 70c-80,-20 -119,-100 -99,-179 19,-70 99,-110 178,-90 70,20 120,100 90,179l0 0c-10,60 -70,99 -129,99 -20,0 -30,0 -40,-9zm23784 -557c-29,-69 10,-149 90,-179 69,-20 159,20 179,90 30,79 -10,159 -90,179 -10,10 -30,10 -39,10 -70,0 -120,-40 -140,-100zm-23635 70c-79,-20 -119,-110 -89,-179 19,-80 99,-119 178,-90 70,30 110,110 90,179 -20,60 -80,100 -139,100 -10,0 -30,0 -40,-10zm23467 -537c-30,-79 0,-159 79,-189 70,-29 149,10 179,80 30,79 -10,159 -80,189 -19,0 -29,10 -49,10 -60,0 -110,-40 -129,-90l0 0zm-23298 60c-80,-30 -109,-119 -90,-189l0 0c30,-69 120,-109 189,-79 70,29 110,109 80,178 -20,60 -70,100 -129,100 -20,0 -40,-10 -50,-10l0 0zm23099 -537c-30,-69 10,-149 79,-178 70,-40 149,0 189,69 30,70 -10,159 -79,189 -20,10 -40,10 -50,10 -60,0 -109,-30 -139,-90l0 0zm-22910 60c-80,-30 -110,-119 -80,-189 30,-69 119,-109 189,-69 69,29 109,109 69,178 -19,60 -69,90 -129,90 -20,0 -39,0 -49,-10l0 0zm22701 -517c-30,-69 0,-159 70,-188 69,-30 159,0 189,69 29,70 0,149 -70,189 -20,10 -40,10 -60,10 -49,0 -99,-30 -129,-80zm-22503 50c-69,-30 -99,-119 -59,-189 30,-69 119,-99 189,-69 69,39 99,119 59,188 -20,60 -69,80 -119,80 -20,0 -50,0 -70,-10zm22275 -497c-40,-69 -10,-159 59,-198 70,-30 159,-10 189,59 40,70 10,159 -60,199 -19,10 -39,10 -59,10 -50,0 -99,-30 -129,-70zm-22046 40c-70,-40 -90,-119 -60,-189 40,-69 129,-99 199,-59 70,39 89,119 60,188 -30,50 -80,80 -130,80 -19,0 -49,-10 -69,-20zm21797 -487c-39,-69 -10,-149 50,-189 70,-39 159,-19 199,50 39,70 20,149 -50,189 -20,20 -50,20 -69,20 -50,0 -100,-20 -130,-70zm-21549 40c-69,-40 -89,-129 -49,-199 39,-59 129,-89 188,-49 70,39 90,129 50,198 -20,40 -70,70 -119,70 -20,0 -50,-10 -70,-20zm21291 -467l0 0c-50,-70 -30,-159 40,-199 59,-39 149,-20 198,40 40,70 20,159 -49,199 -20,20 -50,20 -70,20 -49,0 -99,-20 -119,-60zm-21032 30c-60,-40 -80,-129 -40,-199 40,-60 129,-79 199,-40 59,40 79,129 39,199 -30,40 -69,60 -119,60 -30,0 -50,0 -79,-20zm20744 -447c-40,-70 -30,-159 40,-199 59,-50 149,-30 198,30 40,69 30,159 -39,198 -20,20 -50,30 -80,30 -50,0 -89,-20 -119,-59zm-20456 20c-70,-40 -80,-130 -40,-199 50,-60 139,-80 199,-30 59,40 79,129 39,199 -29,39 -79,59 -119,59 -30,0 -59,-10 -79,-29zm20158 -428c-50,-69 -40,-149 30,-198 59,-50 149,-40 198,20 50,69 30,158 -29,198 -20,20 -50,30 -90,30 -40,0 -79,-20 -109,-50l0 0zm-19860 10c-70,-39 -80,-129 -30,-198 50,-60 139,-70 199,-20 59,39 69,139 29,198 -29,30 -69,50 -119,50 -30,0 -59,-10 -79,-30zm19542 -407c-50,-60 -40,-149 20,-199 59,-49 149,-39 199,20l0 0c49,60 49,149 -20,199 -20,20 -50,30 -90,30 -39,0 -79,-20 -109,-50l0 0zm-19234 10c-60,-50 -70,-139 -20,-199 50,-59 139,-69 208,-20 60,50 60,139 10,199 -29,40 -69,50 -109,50 -30,0 -59,-10 -89,-30l0 0zm18906 -388c-50,-59 -50,-149 10,-208 60,-50 149,-50 199,10 49,59 49,149 -10,208 -20,20 -60,30 -90,30 -39,0 -79,-10 -109,-40l0 0zm-18578 0c-50,-59 -60,-149 -10,-198 59,-60 149,-70 208,-10 50,49 60,139 10,198 -30,30 -69,40 -109,40 -30,0 -70,-10 -99,-30l0 0zm18230 -367c-49,-60 -49,-149 0,-209 60,-49 149,-49 209,10 50,50 50,139 -10,199 -20,30 -60,40 -99,40 -30,0 -70,-20 -100,-40l0 0zm-17883 -10c-49,-60 -49,-149 0,-199 60,-59 149,-59 199,0 60,50 60,139 0,199 -20,30 -60,40 -99,40 -30,0 -70,-10 -100,-40l0 0zm17526 -348c-60,-50 -60,-149 -10,-199 59,-59 149,-59 198,-9 60,59 60,149 10,198 -29,30 -59,50 -99,50 -40,0 -69,-10 -99,-40l0 0zm-17158 -10c-60,-59 -60,-149 0,-208 60,-50 149,-50 199,10 59,59 59,149 0,198 -30,30 -60,40 -100,40 -39,0 -79,-10 -99,-40l0 0zm16780 -328c-59,-49 -59,-139 -10,-198 50,-60 139,-70 199,-20 60,49 60,139 10,199 -20,39 -70,49 -99,49 -40,0 -70,-10 -100,-30l0 0zm-16413 -19c-49,-60 -39,-150 20,-199 60,-60 149,-50 199,10 50,59 50,149 -10,198 -30,30 -59,40 -99,40 -40,0 -80,-20 -110,-49l0 0zm16026 -308c-60,-50 -70,-140 -20,-199 50,-60 139,-70 199,-20 59,50 69,139 19,199 -29,39 -69,49 -109,49 -30,0 -59,-10 -89,-29l0 0zm-15628 -30c-50,-60 -40,-149 20,-199l0 0c59,-50 149,-40 198,30 50,59 40,149 -19,199 -30,19 -60,29 -90,29 -40,0 -89,-20 -109,-59l0 0zm15230 -278c-69,-40 -79,-130 -29,-189 39,-70 129,-80 198,-40 60,50 70,139 30,199 -30,39 -70,59 -119,59 -30,0 -60,-10 -80,-29zm-14833 -30c-49,-70 -30,-159 30,-199 70,-50 149,-40 199,30 49,59 30,149 -30,199 -30,19 -50,29 -79,29 -50,0 -90,-29 -120,-59zm14416 -259c-60,-39 -79,-129 -40,-198 50,-60 139,-80 199,-30 70,40 89,129 40,189 -30,49 -70,69 -119,69 -30,0 -50,-10 -80,-30zm-13998 -39c-50,-70 -30,-159 39,-199 60,-50 149,-30 199,40 40,59 20,149 -40,198 -30,10 -59,20 -79,20 -50,0 -90,-20 -119,-59zm13581 -229c-70,-40 -90,-129 -50,-199 40,-69 129,-89 199,-49 59,49 79,129 40,198 -20,50 -70,70 -120,70 -20,0 -49,-10 -69,-20zm-13154 -59c-40,-60 -20,-149 49,-189 60,-40 149,-20 189,40 40,69 20,158 -49,198 -20,20 -40,20 -70,20 -50,0 -89,-20 -119,-69zm12717 -199c-70,-40 -90,-119 -60,-189 40,-69 129,-99 199,-60 69,40 89,130 49,199 -19,40 -69,70 -119,70 -30,0 -50,-10 -69,-20zm-12280 -60c-40,-69 -10,-159 50,-198 69,-40 159,-10 198,59 40,70 10,149 -59,189 -20,20 -40,20 -70,20 -50,0 -89,-30 -119,-70zm11833 -179c-70,-29 -100,-119 -60,-188 30,-70 119,-100 189,-60 69,30 99,119 59,189 -20,49 -69,79 -119,79 -30,0 -50,-10 -69,-20zm-11386 -69c-30,-70 -10,-159 60,-189 69,-40 159,-10 198,60 30,69 0,159 -69,188 -20,10 -40,20 -60,20 -50,0 -99,-29 -129,-79zm10929 -149c-70,-30 -100,-119 -70,-189 40,-69 119,-99 189,-69 79,29 109,119 69,188 -20,50 -69,80 -129,80 -20,0 -40,0 -59,-10zm-10472 -80c-30,-69 0,-149 70,-188 79,-30 159,0 188,69 40,80 0,159 -69,189 -20,10 -40,20 -60,20 -50,0 -99,-30 -129,-90l0 0zm10015 -119c-70,-30 -110,-109 -80,-189 30,-69 119,-109 189,-79 69,30 109,119 79,189 -30,59 -79,89 -139,89 -10,0 -30,0 -49,-10l0 0zm-9548 -89c-30,-70 10,-149 79,-179 80,-30 159,0 189,69 30,80 -10,159 -79,189 -20,10 -40,10 -50,10 -60,0 -109,-30 -139,-89l0 0zm9081 -90c-80,-29 -120,-109 -90,-188 30,-70 109,-110 179,-80 79,20 119,109 89,179 -19,60 -79,99 -139,99 -10,0 -29,-10 -39,-10l0 0zm-8604 -99c-20,-70 10,-149 89,-179 70,-30 149,10 179,90 30,69 -10,149 -79,178 -20,0 -40,10 -50,10 -60,0 -119,-39 -139,-99l0 0zm8117 -70c-70,-19 -110,-99 -90,-178 20,-70 110,-110 179,-90 80,20 119,100 90,179 -20,60 -70,99 -130,99 -19,0 -29,0 -49,-10zm-7630 -99c-20,-69 20,-149 89,-179 80,-20 159,20 179,100 30,69 -20,149 -90,178 -19,0 -29,0 -39,0 -70,0 -119,-39 -139,-99zm7153 -40c-80,-20 -119,-99 -99,-179 19,-69 99,-119 168,-99 80,20 120,99 100,179 -20,60 -70,99 -139,99 -10,0 -20,0 -30,0zm-6667 -109c-19,-70 20,-149 100,-169 79,-20 159,20 179,99 20,70 -30,150 -100,169 -20,10 -30,10 -39,10 -60,0 -120,-39 -140,-109zm6170 -10c-69,-20 -119,-99 -99,-169 10,-79 89,-129 169,-109l0 0c69,20 119,89 99,169 -10,69 -70,109 -129,109 -10,0 -30,0 -40,0zm-5673 -119c-20,-70 30,-149 110,-169 69,-20 149,30 168,109 20,80 -29,149 -109,169 -10,0 -20,0 -30,0 -69,0 -129,-40 -139,-109zm5186 10c-79,-10 -129,-90 -119,-159 20,-80 90,-129 169,-119 79,20 129,89 109,169 -10,69 -69,119 -139,119 -10,0 -20,-10 -20,-10zm-4689 -119c-10,-70 40,-149 119,-159 70,-20 149,29 159,109 20,79 -40,149 -109,169 -10,0 -20,0 -30,0 -69,0 -129,-50 -139,-119zm4183 39c-70,-10 -130,-79 -120,-159 10,-79 90,-129 169,-119l0 0c70,10 129,80 120,159 -10,70 -70,119 -140,119 -10,0 -19,0 -29,0zm-3676 -119c-10,-79 39,-149 119,-169 79,-10 149,50 159,129 10,70 -40,149 -119,159 -10,0 -20,0 -20,0 -70,0 -129,-49 -139,-119zm3179 60l0 0c-80,-10 -139,-80 -129,-159 10,-80 79,-129 159,-119 79,0 129,69 129,149 -10,79 -70,129 -139,129 -10,0 -10,0 -20,0zm-2673 -129c-10,-80 50,-149 120,-159 79,-10 149,49 159,129 9,79 -50,149 -130,159 0,0 -10,0 -10,0 -69,0 -139,-60 -139,-129zm2166 89c-79,-10 -129,-70 -129,-149 0,-80 70,-139 149,-139 80,10 139,79 139,149 -10,79 -69,139 -149,139l-10 0zm-1659 -139c-10,-80 50,-139 129,-149 80,0 149,59 149,129 10,80 -49,149 -129,159 0,0 -10,0 -10,0 -69,0 -139,-60 -139,-139zm1162 119c-79,0 -149,-69 -139,-149 0,-79 60,-139 139,-139l0 0c80,0 140,70 140,149 0,70 -60,139 -140,139l0 0z"/>
   <circle class="fil0" cx="12667" cy="12667" r="10613"/>
   <circle class="fil0" cx="12667" cy="12667" r="8006"/>
  </g>
 </g>
</svg>
