<?xml version="1.0" encoding="UTF-8"?>
<!DOCTYPE svg PUBLIC "-//W3C//DTD SVG 1.1//EN" "http://www.w3.org/Graphics/SVG/1.1/DTD/svg11.dtd">
<!-- Creator: CorelDRAW X7 -->
<svg xmlns="http://www.w3.org/2000/svg" xml:space="preserve" width="100%" height="100%" version="1.1" style="shape-rendering:geometricPrecision; text-rendering:geometricPrecision; image-rendering:optimizeQuality; fill-rule:evenodd; clip-rule:evenodd"
viewBox="0 0 2550 2550"
 xmlns:xlink="http://www.w3.org/1999/xlink">
 <defs>
  <style type="text/css">
   <![CDATA[
    .fil0 {fill:black;fill-rule:nonzero}
    .fil0{-webkit-animation: anima 7s ease 1s infinite; animation: anima 7s ease 1s infinite; -webkit-transform-origin: 50% 50%; transform-origin: 50% 50%; opacity: .1}

    @-webkit-keyframes anima
    {
      50%{-webkit-transform: rotate(120deg); transform: rotate(120deg);}
    }

    @keyframes anima
    {
      50%{-webkit-transform: rotate(120deg); transform: rotate(120deg);}
    }
   ]]>
  </style>
 </defs>
 <g id="Capa_x0020_1">
  <metadata id="CorelCorpID_0Corel-Layer"/>
  <path class="fil0" d="M1236 15c0,-8 6,-15 14,-15l1 0c7,0 14,6 14,14 0,8 -6,15 -14,15l0 0c-8,0 -15,-7 -15,-14zm61 2535c-8,0 -14,-6 -14,-14 0,-8 6,-15 14,-15l0 0c8,0 14,6 14,14 0,8 -6,15 -14,15zm-52 0c-8,0 -14,-7 -14,-15 0,-8 7,-14 15,-14 8,0 14,7 14,15 0,8 -7,14 -14,14l-1 0zm89 -15c0,-8 6,-15 14,-16 7,0 14,6 15,14 0,8 -6,15 -14,15l-1 0c-7,0 -14,-6 -14,-13zm-141 13c-8,-1 -14,-8 -13,-16 0,-7 7,-13 15,-13 8,0 14,7 13,15 0,8 -6,14 -14,14l-1 0zm192 -17c0,-8 5,-15 13,-15 8,-1 15,5 16,12 1,8 -5,15 -13,16l-1 0c-8,0 -14,-5 -15,-13zm-244 12c-7,-1 -13,-8 -12,-15 1,-8 8,-14 15,-13 8,1 14,8 13,15 -1,8 -7,13 -14,13 -1,0 -1,0 -2,0zm295 -17c-1,-8 5,-15 13,-16 7,-2 15,4 16,12 1,8 -5,15 -12,16 -1,0 -2,0 -2,0 -7,0 -14,-5 -15,-12zm-346 11c-8,-1 -13,-9 -12,-16 1,-8 8,-14 16,-13 8,2 13,9 12,17 -1,7 -7,12 -14,12 -1,0 -1,0 -2,0zm397 -19c-1,-8 4,-15 12,-16 8,-2 15,3 16,11 2,8 -3,15 -11,17 -1,0 -2,0 -3,0 -6,0 -12,-5 -14,-12zm-448 10c-8,-1 -13,-9 -12,-16 2,-8 9,-13 17,-12 8,2 13,9 11,17 -1,7 -7,12 -14,12 -1,0 -1,-1 -2,-1zm499 -20c-2,-7 3,-15 11,-17 7,-1 15,3 17,11 1,8 -3,16 -11,17 -1,1 -2,1 -3,1 -7,0 -13,-5 -14,-12zm-550 10c-8,-2 -13,-10 -11,-17 2,-8 10,-13 17,-11 8,2 13,9 11,17 -2,7 -8,11 -14,11 -1,0 -2,0 -3,0zm600 -21c-2,-8 2,-16 10,-18 8,-2 15,3 17,10 2,8 -2,16 -10,18 -1,0 -2,0 -3,0 -7,0 -12,-4 -14,-10zm-651 8c-7,-2 -12,-10 -10,-18 2,-7 10,-12 18,-10l0 0c8,2 12,10 10,18 -2,6 -8,10 -14,10 -1,0 -2,0 -4,0zm700 -22c-2,-7 2,-16 10,-18 7,-2 15,2 18,10 2,7 -2,15 -10,17 -1,1 -3,1 -4,1 -6,0 -12,-4 -14,-10zm-749 7c-8,-2 -12,-10 -10,-18 3,-7 11,-12 18,-9l0 0c8,2 12,10 9,18 -1,6 -7,10 -13,10 -2,0 -3,0 -4,-1zm798 -23c-2,-7 2,-15 9,-18 8,-3 16,1 18,9 3,7 -1,15 -8,18 -2,0 -3,1 -5,1 -6,0 -11,-4 -14,-10zm-848 6c-7,-2 -11,-11 -8,-18 2,-7 11,-11 18,-9 7,3 11,11 9,19 -3,6 -8,9 -14,9 -1,0 -3,0 -5,-1zm897 -24c-3,-7 0,-15 8,-18 7,-3 15,0 18,8 3,7 0,15 -8,18 -1,1 -3,1 -5,1 -6,0 -11,-3 -13,-9zm-945 6c-8,-3 -11,-12 -8,-19 3,-7 11,-11 19,-8 7,3 10,12 7,19 -2,5 -7,9 -13,9 -2,0 -3,-1 -5,-1zm992 -25c-3,-8 0,-16 7,-19 8,-4 16,0 19,7 4,7 1,15 -7,19 -2,1 -4,1 -6,1 -5,0 -10,-3 -13,-8zm-1040 4c-7,-3 -10,-12 -7,-19 4,-7 12,-10 19,-7 7,3 11,12 7,19 -2,5 -7,8 -13,8 -2,0 -4,0 -6,-1zm1087 -26c-3,-7 -1,-16 6,-19 7,-4 16,-1 20,6 3,7 0,16 -7,19 -2,1 -4,2 -6,2 -5,0 -10,-3 -13,-8zm-1133 3l0 0c-7,-3 -10,-12 -7,-19 4,-7 13,-10 20,-6l0 0c7,3 9,12 6,19 -3,5 -8,8 -13,8 -2,0 -4,-1 -6,-2zm1179 -27c-4,-7 -2,-15 5,-19 7,-4 16,-2 20,5 4,7 1,16 -6,20 -2,1 -4,2 -7,2 -5,0 -10,-3 -12,-8zm-1225 3c-7,-4 -9,-13 -6,-20 4,-7 13,-9 20,-5l0 0c7,4 9,12 5,19 -2,5 -7,8 -12,8 -2,0 -5,-1 -7,-2zm1270 -28c-5,-7 -2,-16 4,-20 7,-4 16,-2 20,5 4,7 2,15 -5,20 -2,1 -5,2 -7,2 -5,0 -10,-3 -12,-7zm-1315 1c-7,-4 -9,-13 -4,-19 4,-7 12,-9 19,-5 7,4 9,13 5,20 -3,4 -8,6 -12,6 -3,0 -5,0 -8,-2zm1358 -28c-4,-7 -2,-16 4,-20 7,-5 16,-3 20,4 4,6 3,15 -4,20 -2,1 -5,2 -8,2 -4,0 -9,-2 -12,-6zm-1401 0c-7,-4 -9,-13 -4,-20 4,-6 13,-8 20,-4 6,5 8,14 3,20 -2,4 -7,6 -11,6 -3,0 -6,0 -8,-2zm1444 -29c-5,-7 -4,-16 3,-20 6,-5 15,-4 20,3 5,6 3,15 -3,20 -3,2 -6,2 -9,2 -4,0 -8,-2 -11,-5zm-1487 -1c-6,-5 -8,-14 -3,-20 5,-6 14,-8 20,-3 7,5 8,14 3,20 -3,4 -7,6 -11,6 -3,0 -6,-1 -9,-3zm1528 -30c-5,-6 -4,-15 2,-20 7,-5 16,-4 20,2 5,6 4,15 -2,20 -3,2 -6,3 -9,3 -4,0 -8,-2 -11,-5zm-1569 -2c-6,-5 -7,-14 -2,-20 5,-6 14,-7 20,-2 6,5 7,14 2,20 -3,4 -7,6 -11,6 -3,0 -6,-2 -9,-4zm1609 -30c-5,-6 -4,-15 2,-21l-1 0c7,-5 15,-4 21,2 5,6 4,15 -2,20 -3,2 -6,4 -9,4 -4,0 -8,-2 -11,-5zm-1649 -3c-6,-5 -6,-14 -1,-20 5,-6 14,-7 20,-2 6,6 6,15 1,21 -3,3 -7,5 -11,5 -3,0 -6,-2 -9,-4zm1688 -31c-6,-6 -5,-15 0,-21l0 0c6,-5 15,-5 21,1 5,6 5,15 -1,20l0 0c-3,3 -6,4 -10,4 -4,0 -8,-1 -10,-4zm-1726 -4c-6,-5 -6,-14 -1,-20 6,-6 14,-6 20,-1 6,6 6,15 1,21 -3,2 -7,4 -11,4 -3,0 -7,-1 -9,-4zm1763 -32c-6,-5 -6,-14 0,-20 5,-6 14,-6 20,0 6,5 6,14 0,20 -3,3 -6,4 -10,4 -4,0 -7,-1 -10,-4zm-1800 -4c-6,-6 -6,-15 0,-21 5,-5 15,-5 20,1 6,5 5,14 0,20 -3,3 -7,4 -10,4 -4,0 -8,-2 -10,-4zm1836 -33c-6,-5 -7,-14 -1,-20 5,-6 14,-6 20,-1 6,5 6,14 1,20 -3,3 -7,5 -11,5 -3,0 -7,-1 -9,-4zm-1872 -5c-5,-6 -5,-15 1,-20 6,-6 15,-5 20,1 6,5 5,15 -1,20 -3,2 -6,4 -9,4 -4,0 -8,-2 -11,-5zm1906 -33c-6,-5 -7,-14 -2,-20 5,-6 14,-7 20,-2 6,5 7,14 2,20l0 0c-3,3 -7,5 -11,5 -3,0 -6,-1 -9,-3zm-1940 -7l0 0c-5,-6 -4,-15 2,-20 6,-5 15,-4 20,2 5,6 4,15 -2,20 -3,2 -6,4 -9,4 -4,0 -8,-2 -11,-6zm1972 -33c-6,-5 -7,-14 -2,-20 5,-6 14,-7 20,-3 6,5 7,14 3,21 -3,3 -8,5 -12,5 -3,0 -6,-1 -9,-3zm-2004 -7c-5,-7 -4,-16 2,-20 7,-5 16,-4 20,2 5,7 4,16 -2,20 -3,2 -6,3 -9,3 -4,0 -9,-2 -11,-5zm2035 -34c-6,-4 -8,-13 -3,-20 5,-6 14,-8 20,-3 6,4 8,13 3,20 -2,4 -7,6 -11,6 -3,0 -6,-1 -9,-3zm-2066 -8c-5,-7 -3,-16 3,-20 7,-5 16,-3 20,3 5,7 3,16 -3,20 -3,2 -5,3 -8,3 -5,0 -9,-2 -12,-6zm2096 -34c-7,-4 -9,-13 -4,-20 4,-6 13,-8 19,-4 7,4 9,13 5,20l0 0c-3,4 -8,6 -13,6 -2,0 -5,0 -7,-2zm-2125 -10c-4,-6 -2,-15 4,-19 7,-5 16,-3 20,4 4,7 2,16 -4,20 -3,1 -5,2 -8,2 -5,0 -9,-2 -12,-7zm2152 -33c-7,-4 -9,-13 -5,-20 4,-7 13,-9 20,-5 7,4 9,13 5,20 -3,4 -8,7 -12,7 -3,0 -5,-1 -8,-2zm-2179 -11c-4,-7 -2,-15 5,-20 7,-4 15,-1 19,6 4,6 2,15 -5,19 -2,1 -4,2 -7,2 -5,0 -10,-2 -12,-7zm2205 -34c-7,-3 -10,-12 -6,-19 4,-7 13,-10 20,-6 7,4 9,12 5,19 -2,5 -7,8 -12,8 -3,0 -5,-1 -7,-2zm-2231 -11c-3,-7 -1,-16 6,-20 7,-4 16,-1 20,6 3,7 1,16 -6,20 -2,1 -5,1 -7,1 -5,0 -10,-3 -13,-7zm2255 -34c-7,-4 -10,-12 -7,-19 4,-7 12,-10 19,-7 8,4 10,12 7,19 -2,5 -8,8 -13,8 -2,0 -4,0 -6,-1zm-2278 -13c-4,-7 -1,-16 7,-19 7,-3 15,0 19,7 3,7 0,15 -7,19 -2,1 -4,1 -6,1 -6,0 -11,-3 -13,-8zm2300 -33c-7,-4 -11,-12 -7,-19 3,-8 11,-11 18,-8 8,4 11,12 8,19 -3,5 -8,9 -13,9 -2,0 -4,-1 -6,-1zm-2322 -14c-3,-8 1,-16 8,-19 7,-3 15,0 19,7 3,8 -1,16 -8,19 -2,1 -4,1 -5,1 -6,0 -11,-3 -14,-8zm2342 -34c-7,-2 -11,-11 -8,-18 3,-7 11,-11 18,-8 8,3 11,11 9,18 -3,6 -8,9 -14,9 -2,0 -3,0 -5,-1zm-2361 -15c-3,-7 1,-15 8,-18 7,-3 16,1 18,8 3,8 0,16 -8,19 -2,0 -3,1 -5,1 -6,0 -11,-4 -13,-10zm2379 -33c-7,-2 -11,-10 -9,-18 3,-7 11,-11 19,-9 7,3 11,11 8,18 -2,6 -7,10 -13,10 -2,0 -3,0 -5,-1zm-2397 -16c-2,-7 2,-15 9,-18 8,-2 16,2 18,9 3,8 -1,16 -9,18 -1,1 -3,1 -4,1 -6,0 -12,-4 -14,-10zm2414 -32c-8,-3 -12,-11 -10,-18l0 0c2,-8 10,-12 18,-10 7,2 11,10 9,18l0 0c-2,6 -7,10 -13,10 -2,0 -3,0 -4,0zm-2429 -17c-3,-8 2,-16 9,-18 8,-2 16,2 18,10 2,7 -2,15 -10,17 -1,1 -2,1 -4,1 -6,0 -12,-4 -13,-10zm2443 -33c-8,-2 -13,-10 -11,-17 2,-8 10,-13 18,-11 7,2 12,10 10,18 -2,6 -7,11 -14,11 -1,0 -2,-1 -3,-1zm-2457 -18l0 0c-2,-7 3,-15 11,-17 7,-2 15,3 17,11 2,7 -3,15 -11,17 -1,0 -2,0 -3,0 -6,0 -12,-4 -14,-11zm2469 -32c-8,-2 -13,-9 -11,-17 1,-8 9,-13 17,-11 7,2 12,9 11,17 -2,7 -8,11 -14,11 -1,0 -2,0 -3,0zm-2480 -18c-2,-8 3,-16 11,-17 8,-2 15,3 17,11 1,8 -4,15 -11,17 -1,0 -2,0 -3,0 -7,0 -13,-4 -14,-11zm2490 -32c-8,-2 -13,-9 -12,-17 1,-8 9,-13 17,-12 7,2 13,9 11,17 -1,7 -7,12 -14,12 0,0 -1,0 -2,0zm-2500 -19c-1,-8 4,-16 12,-17 8,-1 15,4 17,12l0 0c1,8 -5,15 -12,16 -1,1 -2,1 -3,1 -6,0 -12,-5 -14,-12zm2508 -32c-8,-1 -13,-8 -12,-16 0,-8 8,-13 15,-12 8,1 14,8 13,16 -1,7 -7,12 -14,12 -1,0 -1,0 -2,0zm-2515 -20c-1,-8 5,-15 13,-16 7,-1 15,5 15,13 1,8 -4,15 -12,16 -1,0 -1,0 -2,0 -7,0 -13,-6 -14,-13zm2521 -31c-8,-1 -14,-8 -13,-16 1,-7 7,-13 15,-13 8,1 14,8 13,16 0,7 -7,13 -14,13 0,0 -1,0 -1,0zm-2526 -21c-1,-8 5,-14 13,-15 8,-1 15,5 16,13l-1 0c1,8 -5,15 -13,15l-1 0c-7,0 -13,-5 -14,-13zm2530 -30c-8,-1 -14,-7 -14,-15 0,-8 7,-14 15,-14 8,0 14,7 14,15 -1,8 -7,14 -15,14l0 0zm-2533 -22c0,-7 6,-14 14,-14 8,-1 14,5 15,13 0,8 -6,15 -14,15l-1 0c-7,0 -14,-6 -14,-14zm2535 -30c-8,0 -15,-6 -15,-14l0 0c0,-1 0,-2 1,-3 -1,0 -1,-1 -1,-2 0,-8 7,-14 15,-14 8,0 14,6 14,14 0,1 0,2 0,2 0,1 0,2 0,3 0,8 -6,14 -14,14l0 0zm-2536 -22c0,-7 6,-14 14,-14 8,0 15,7 15,15 0,7 -7,14 -15,14 -8,0 -14,-7 -14,-15zm2520 -48c0,-8 6,-14 14,-15 8,0 15,6 15,14 0,8 -6,15 -14,15l0 0c-8,0 -14,-6 -15,-14zm-2505 11c-8,0 -14,-7 -14,-15 0,-7 7,-14 15,-13 8,0 14,7 14,15 -1,7 -7,13 -15,13 0,0 0,0 0,0zm2502 -62c0,-7 5,-14 13,-15 8,-1 15,5 16,13 0,8 -5,15 -13,16 -1,0 -1,0 -1,0 -8,0 -14,-6 -15,-14zm-2500 11c-7,-1 -13,-8 -13,-15l0 0c1,-8 8,-14 16,-13 8,0 14,7 13,15 -1,7 -7,13 -14,13l-2 0zm2495 -61c-1,-8 5,-15 13,-16 7,-1 15,5 16,12 1,8 -5,15 -13,16 -1,0 -1,0 -2,0 -7,0 -13,-5 -14,-12zm-2490 10c-8,-1 -13,-8 -12,-16 1,-8 8,-13 16,-13 8,1 13,9 12,16 -1,8 -7,13 -14,13 -1,0 -1,0 -2,0zm2483 -61c-1,-7 4,-15 12,-16 8,-1 15,4 16,12 1,8 -4,15 -12,16 0,0 -1,1 -2,1 -7,0 -13,-5 -14,-13zm-2476 10c-8,-1 -13,-9 -12,-17 1,-7 9,-13 17,-11 7,1 13,8 11,16 -1,7 -7,12 -14,12 0,0 -1,0 -2,0zm2467 -59c-2,-8 3,-16 11,-17 8,-2 15,3 17,11 1,7 -4,15 -11,17 -1,0 -2,0 -3,0 -7,0 -13,-5 -14,-11zm-2458 8c-8,-1 -13,-9 -11,-17 1,-7 9,-12 17,-11 7,2 12,9 11,17 -2,7 -8,12 -14,12 -1,0 -2,-1 -3,-1zm2447 -58c-2,-8 2,-15 10,-17 8,-2 15,2 17,10l0 0c2,8 -3,16 -10,17 -1,1 -3,1 -4,1 -6,0 -12,-4 -13,-11zm-2436 8c-8,-2 -13,-10 -11,-17 2,-8 10,-13 18,-11 7,2 12,10 10,18 -2,6 -7,10 -14,10 -1,0 -2,0 -3,0zm2422 -57l0 0c-2,-8 2,-16 10,-18 7,-2 15,2 18,10 2,7 -2,15 -10,18 -1,0 -3,0 -4,0 -6,0 -12,-4 -14,-10zm-2409 7c-8,-2 -12,-10 -10,-18 2,-7 10,-11 18,-9 7,2 12,10 9,18l0 0c-1,6 -7,10 -13,10 -2,0 -3,0 -4,-1zm2394 -56c-3,-7 1,-15 9,-18 7,-2 16,2 18,9 3,8 -1,16 -9,18 -1,1 -3,1 -4,1 -7,0 -12,-4 -14,-10zm-2379 7c-8,-2 -12,-11 -9,-18 2,-8 10,-12 18,-9 7,3 11,11 9,18 -2,6 -8,10 -14,10 -1,0 -3,0 -4,-1zm2362 -54c-3,-8 0,-16 8,-19 7,-3 15,1 18,8 3,8 -1,16 -8,19 -2,0 -3,1 -5,1 -6,0 -11,-4 -13,-9zm-2345 6c-8,-3 -11,-12 -9,-19l0 0c3,-7 12,-11 19,-8 7,3 11,11 8,18 -2,6 -7,10 -13,10 -2,0 -4,-1 -5,-1zm2325 -54c-3,-7 1,-15 8,-18 7,-4 15,0 19,7 3,7 -1,16 -8,19 -2,1 -4,1 -5,1 -6,0 -11,-3 -14,-9zm-2306 6c-8,-3 -11,-12 -8,-19 3,-7 12,-11 19,-7 7,3 11,11 7,18 -2,6 -7,9 -13,9 -2,0 -4,0 -5,-1zm2285 -52c-3,-7 0,-16 7,-19 7,-3 16,0 19,7 3,7 0,15 -7,19 -2,1 -4,1 -6,1 -5,0 -10,-3 -13,-8zm-2265 5c-7,-3 -10,-12 -6,-19 3,-7 12,-10 19,-7 7,4 10,12 6,19 -2,6 -7,8 -12,8 -2,0 -5,0 -7,-1zm2242 -50c-4,-7 -1,-16 6,-20 7,-3 16,-1 19,6 4,7 1,16 -6,20 -2,1 -4,1 -6,1 -5,0 -10,-3 -13,-7zm-2219 4c-7,-4 -9,-12 -6,-19 4,-7 13,-10 20,-6 7,4 9,12 6,19 -3,5 -8,8 -13,8 -2,0 -5,-1 -7,-2zm2194 -49c-4,-7 -1,-15 5,-19 7,-4 16,-2 20,5 4,7 2,15 -5,19 -2,2 -5,2 -7,2 -5,0 -10,-2 -13,-7zm-2169 4c-7,-4 -9,-13 -5,-20 4,-6 13,-9 19,-5 7,4 9,13 5,20 -2,4 -7,7 -12,7 -2,0 -5,-1 -7,-2zm2143 -47l0 0c-5,-7 -3,-16 4,-20 6,-4 15,-2 20,4 4,7 2,16 -5,20 -2,2 -5,2 -7,2 -5,0 -10,-2 -12,-6zm-2117 3c-6,-4 -8,-13 -4,-20 4,-6 13,-8 20,-4 6,4 8,13 4,20 -3,4 -7,6 -12,6 -3,0 -5,0 -8,-2zm2088 -45c-4,-7 -3,-16 4,-20 6,-5 15,-3 20,3 4,7 3,16 -4,20 -2,2 -5,3 -8,3 -5,0 -9,-2 -12,-6zm-2059 2c-7,-4 -8,-13 -4,-20 5,-6 14,-8 20,-3 6,4 8,13 4,20 -3,4 -8,6 -12,6 -3,0 -6,-1 -8,-3zm2029 -43c-5,-7 -4,-15 3,-20 6,-5 15,-4 20,2 5,7 3,16 -3,20 -2,2 -5,3 -9,3 -4,0 -8,-2 -11,-5zm-1999 1c-7,-4 -8,-13 -3,-20 5,-6 14,-7 20,-2 6,4 7,14 3,20 -3,3 -7,5 -12,5 -3,0 -6,-1 -8,-3zm1967 -41c-5,-6 -4,-15 2,-20 6,-5 15,-4 20,2l0 0c5,6 5,15 -2,20 -2,2 -5,3 -9,3 -4,0 -8,-2 -11,-5zm-1936 1c-6,-5 -7,-14 -2,-20 5,-6 14,-7 21,-2 6,5 6,14 1,20 -3,4 -7,5 -11,5 -3,0 -6,-1 -9,-3zm1903 -39c-5,-6 -5,-15 1,-21 6,-5 15,-5 20,1 5,6 5,15 -1,21 -2,2 -6,3 -9,3 -4,0 -8,-1 -11,-4zm-1870 0c-5,-6 -6,-15 -1,-20 6,-6 15,-7 21,-1 5,5 6,14 1,20 -3,3 -7,4 -11,4 -3,0 -7,-1 -10,-3zm1835 -37c-5,-6 -5,-15 0,-21 6,-5 15,-5 21,1 5,5 5,14 -1,20 -2,3 -6,4 -10,4 -3,0 -7,-2 -10,-4zm-1800 -1c-5,-6 -5,-15 0,-20 6,-6 15,-6 20,0 6,5 6,14 0,20 -2,3 -6,4 -10,4 -3,0 -7,-1 -10,-4zm1764 -35c-6,-5 -6,-15 -1,-20 6,-6 15,-6 20,-1 6,6 6,15 1,20 -3,3 -6,5 -10,5 -4,0 -7,-1 -10,-4zm-1727 -1c-6,-6 -6,-15 0,-21 6,-5 15,-5 20,1 6,6 6,15 0,20 -3,3 -6,4 -10,4 -4,0 -8,-1 -10,-4zm1689 -33c-6,-5 -6,-14 -1,-20 5,-6 14,-7 20,-2 6,5 6,14 1,20 -2,4 -7,5 -10,5 -4,0 -7,-1 -10,-3zm-1652 -2c-5,-6 -4,-15 2,-20 6,-6 15,-5 20,1 5,6 5,15 -1,20 -3,3 -6,4 -10,4 -4,0 -8,-2 -11,-5zm1613 -31c-6,-5 -7,-14 -2,-20 5,-6 14,-7 20,-2 6,5 7,14 2,20 -3,4 -7,5 -11,5 -3,0 -6,-1 -9,-3zm-1573 -3c-5,-6 -4,-15 2,-20l0 0c6,-5 15,-4 20,3 5,6 4,15 -2,20 -3,2 -6,3 -9,3 -4,0 -9,-2 -11,-6zm1533 -28c-7,-4 -8,-13 -3,-19 4,-7 13,-8 20,-4 6,5 7,14 3,20 -3,4 -7,6 -12,6 -3,0 -6,-1 -8,-3zm-1493 -3c-5,-7 -3,-16 3,-20 7,-5 15,-4 20,3 5,6 3,15 -3,20 -3,2 -5,3 -8,3 -5,0 -9,-3 -12,-6zm1451 -26c-6,-4 -8,-13 -4,-20 5,-6 14,-8 20,-3 7,4 9,13 4,19 -3,5 -7,7 -12,7 -3,0 -5,-1 -8,-3zm-1409 -4c-5,-7 -3,-16 4,-20 6,-5 15,-3 20,4 4,6 2,15 -4,20 -3,1 -6,2 -8,2 -5,0 -9,-2 -12,-6zm1367 -23c-7,-4 -9,-13 -5,-20 4,-7 13,-9 20,-5 6,5 8,13 4,20 -2,5 -7,7 -12,7 -2,0 -5,-1 -7,-2zm-1324 -6c-4,-6 -2,-15 5,-19 6,-4 15,-2 19,4 4,7 2,16 -5,20 -2,2 -4,2 -7,2 -5,0 -9,-2 -12,-7zm1280 -20c-7,-4 -9,-12 -6,-19 4,-7 13,-10 20,-6 7,4 9,13 5,20 -2,4 -7,7 -12,7 -3,0 -5,-1 -7,-2zm-1236 -6c-4,-7 -1,-16 5,-20 7,-4 16,-1 20,6 4,7 1,15 -6,19 -2,2 -4,2 -7,2 -5,0 -9,-3 -12,-7zm1191 -18c-7,-3 -10,-12 -6,-19 3,-7 12,-10 19,-6 7,3 10,12 6,19 -2,5 -7,8 -12,8 -3,0 -5,-1 -7,-2zm-1146 -7c-3,-7 -1,-16 6,-19 7,-4 16,-1 20,6 3,7 0,16 -7,19 -2,1 -4,2 -6,2 -5,0 -10,-3 -13,-8zm1100 -15c-7,-3 -10,-12 -7,-19 4,-7 12,-10 19,-7 8,3 11,12 7,19 -2,5 -7,8 -13,8 -2,0 -4,0 -6,-1zm-1054 -8c-3,-7 0,-15 7,-19 8,-3 16,0 19,7 4,8 0,16 -7,19 -2,1 -4,2 -6,2 -5,0 -10,-3 -13,-9zm1008 -12c-7,-3 -11,-11 -8,-19 3,-7 12,-11 19,-8 7,3 11,12 8,19 -3,6 -8,9 -14,9 -1,0 -3,0 -5,-1zm-961 -9c-3,-7 1,-15 8,-18 8,-3 16,0 19,7 3,8 -1,16 -8,19 -2,1 -4,1 -5,1 -6,0 -11,-3 -14,-9zm914 -9c-8,-3 -12,-11 -9,-19 3,-7 11,-11 18,-8 8,2 12,11 9,18 -2,6 -8,10 -14,10 -1,0 -3,-1 -4,-1zm-866 -10c-2,-7 1,-15 9,-18 7,-3 15,1 18,9 3,7 -1,15 -8,18 -2,0 -4,1 -5,1 -6,0 -12,-4 -14,-10zm817 -7c-7,-2 -11,-10 -9,-18 2,-7 11,-11 18,-9 8,2 12,10 9,18 -2,6 -7,10 -13,10 -2,0 -3,0 -5,-1zm-768 -10c-2,-7 2,-15 9,-18 8,-2 16,2 18,10 3,7 -2,15 -9,18 -2,0 -3,0 -4,0 -7,0 -12,-4 -14,-10zm720 -4c-8,-2 -12,-10 -10,-18 2,-7 10,-12 17,-10 8,2 12,10 10,18 -2,6 -7,10 -14,10 -1,0 -2,0 -3,0zm-671 -11c-2,-7 2,-15 10,-17 8,-2 16,2 18,10 2,7 -3,15 -10,17 -2,1 -3,1 -4,1 -6,0 -12,-4 -14,-11zm621 -1c-7,-2 -12,-10 -10,-17 1,-8 9,-13 17,-11l0 0c7,2 12,9 10,17 -1,7 -7,11 -13,11 -1,0 -3,0 -4,0zm-571 -12c-2,-7 3,-15 11,-17 7,-2 15,3 17,11 2,8 -3,15 -11,17 -1,0 -2,0 -3,0 -7,0 -13,-4 -14,-11zm522 1c-8,-1 -13,-9 -12,-16 2,-8 9,-13 17,-12 8,2 13,9 11,17 -1,7 -7,12 -14,12 -1,0 -2,-1 -2,-1zm-472 -12c-1,-7 4,-15 12,-16 7,-2 15,3 16,11 2,8 -4,15 -11,17 -1,0 -2,0 -3,0 -7,0 -13,-5 -14,-12zm421 4c-7,-1 -13,-8 -12,-16 1,-8 9,-13 17,-12l0 0c7,1 13,8 12,16 -1,7 -7,12 -14,12 -1,0 -2,0 -3,0zm-370 -12c-1,-8 4,-15 12,-17 8,-1 15,5 16,13 1,7 -4,15 -12,16 -1,0 -2,0 -2,0 -7,0 -13,-5 -14,-12zm320 6l0 0c-8,-1 -14,-8 -13,-16 1,-8 8,-13 16,-12 8,0 13,7 13,15 -1,8 -7,13 -14,13 -1,0 -1,0 -2,0zm-269 -13c-1,-8 5,-15 12,-16 8,-1 15,5 16,13 1,8 -5,15 -13,16 0,0 -1,0 -1,0 -7,0 -14,-6 -14,-13zm218 9c-8,-1 -13,-7 -13,-15 0,-8 7,-14 15,-14 8,1 14,8 14,15 -1,8 -7,14 -15,14l-1 0zm-167 -14c-1,-8 5,-14 13,-15 8,0 15,6 15,13 1,8 -5,15 -13,16 0,0 -1,0 -1,0 -7,0 -14,-6 -14,-14zm117 12c-8,0 -15,-7 -14,-15 0,-8 6,-14 14,-14l0 0c8,0 14,7 14,15 0,7 -6,14 -14,14l0 0z"/>
 </g>
</svg>
