<svg xmlns="http://www.w3.org/2000/svg" width="75" height="30.203" viewBox="0 0 75 30.203">
  <g id="Grupo_211" data-name="Grupo 211" transform="translate(-1986 -2718)">
    <path id="Trazado_197" data-name="Trazado 197" d="M60.188,21H0V0H75V30.2Z" transform="translate(1986 2718)" fill="#fff"/>
    <g id="Grupo_210" data-name="Grupo 210" transform="translate(-1.5 2)">
      <path id="Trazado_198" data-name="Trazado 198" d="M5.5,0,7.15,3.693,11,4.2,8.17,6.993,8.9,11,5.5,9.032,2.1,11,2.83,6.993,0,4.2l3.85-.509Z" transform="translate(2045.5 2721)" fill="#4df1bc"/>
      <path id="Trazado_199" data-name="Trazado 199" d="M5.5,0,7.15,3.693,11,4.2,8.17,6.993,8.9,11,5.5,9.032,2.1,11,2.83,6.993,0,4.2l3.85-.509Z" transform="translate(2032.5 2721)" fill="#4df1bc"/>
      <path id="Trazado_200" data-name="Trazado 200" d="M5.5,0,7.15,3.693,11,4.2,8.17,6.993,8.9,11,5.5,9.032,2.1,11,2.83,6.993,0,4.2l3.85-.509Z" transform="translate(2019.5 2721)" fill="#4df1bc"/>
      <path id="Trazado_201" data-name="Trazado 201" d="M5.5,0,7.15,3.693,11,4.2,8.17,6.993,8.9,11,5.5,9.032,2.1,11,2.83,6.993,0,4.2l3.85-.509Z" transform="translate(2006.5 2721)" fill="#4df1bc"/>
      <path id="Trazado_202" data-name="Trazado 202" d="M5.5,0,7.15,3.693,11,4.2,8.17,6.993,8.9,11,5.5,9.032,2.1,11,2.83,6.993,0,4.2l3.85-.509Z" transform="translate(1993.5 2721)" fill="#4df1bc"/>
    </g>
  </g>
</svg>
