<svg xmlns="http://www.w3.org/2000/svg" xmlns:xlink="http://www.w3.org/1999/xlink" width="349.227" height="57.092" viewBox="0 0 349.227 57.092">
  <defs>
    <linearGradient id="linear-gradient" y1="0.5" x2="1" y2="0.5" gradientUnits="objectBoundingBox">
      <stop offset="0" stop-color="#44ffc9"/>
      <stop offset="0.192" stop-color="#44ffc9"/>
      <stop offset="0.21" stop-color="#4cfdca"/>
      <stop offset="0.329" stop-color="#7df7d3"/>
      <stop offset="0.441" stop-color="#a4f1db" stop-opacity="0.69"/>
      <stop offset="0.544" stop-color="#c0eee0" stop-opacity="0.6"/>
      <stop offset="0.634" stop-color="#d1ebe3" stop-opacity="0.271"/>
      <stop offset="0.702" stop-color="#d7ebe5" stop-opacity="0.478"/>
      <stop offset="1" stop-color="#d7ebe5" stop-opacity="0.4"/>
    </linearGradient>
  </defs>
  <path id="Trazado_198" data-name="Trazado 198" d="M2140.654,536.21l-18.891,10.907-18.891,10.907a6.723,6.723,0,0,1-10.084-5.822V508.575a6.722,6.722,0,0,1,10.084-5.822l18.891,10.907,18.891,10.906A6.723,6.723,0,0,1,2140.654,536.21Zm59.627-11.644-18.89-10.906L2162.5,502.753a6.723,6.723,0,0,0-10.084,5.822V552.2a6.723,6.723,0,0,0,10.084,5.822l18.891-10.907,18.89-10.907A6.723,6.723,0,0,0,2200.281,524.566Zm59.628,0-18.89-10.906-18.891-10.907a6.723,6.723,0,0,0-10.084,5.822V552.2a6.723,6.723,0,0,0,10.084,5.822l18.891-10.907,18.89-10.907A6.722,6.722,0,0,0,2259.909,524.566ZM2319.4,536.21l-18.891,10.907-18.891,10.907a6.723,6.723,0,0,1-10.084-5.822V508.575a6.723,6.723,0,0,1,10.084-5.822l18.891,10.907,18.891,10.906A6.723,6.723,0,0,1,2319.4,536.21Zm59.628-11.644-18.891-10.906-18.891-10.907a6.723,6.723,0,0,0-10.084,5.822V552.2a6.723,6.723,0,0,0,10.084,5.822l18.891-10.907,18.891-10.907A6.723,6.723,0,0,0,2379.026,524.566Zm59.628,0-18.891-10.906-18.891-10.907a6.722,6.722,0,0,0-10.084,5.822V552.2a6.723,6.723,0,0,0,10.084,5.822l18.891-10.907,18.891-10.907A6.723,6.723,0,0,0,2438.654,524.566Z" transform="translate(-2092.788 -501.842)" fill="url(#linear-gradient)"/>
</svg>
