<svg xmlns="http://www.w3.org/2000/svg" xmlns:xlink="http://www.w3.org/1999/xlink" width="305.414" height="1386.345" viewBox="0 0 305.414 1386.345">
  <defs>
    <linearGradient id="linear-gradient" x1="0.5" y1="1" x2="0.5" gradientUnits="objectBoundingBox">
      <stop offset="0" stop-color="#2bf0a2"/>
      <stop offset="0.093" stop-color="#30f0a4" stop-opacity="0.973"/>
      <stop offset="0.225" stop-color="#41f1ab" stop-opacity="0.894"/>
      <stop offset="0.381" stop-color="#5cf3b7" stop-opacity="0.769"/>
      <stop offset="0.554" stop-color="#81f6c8" stop-opacity="0.592"/>
      <stop offset="0.741" stop-color="#b1f9dd" stop-opacity="0.365"/>
      <stop offset="0.939" stop-color="#ebfdf6" stop-opacity="0.09"/>
      <stop offset="1" stop-color="#fff" stop-opacity="0"/>
    </linearGradient>
    <linearGradient id="linear-gradient-2" y1="0" y2="1" xlink:href="#linear-gradient"/>
    <style type="text/css">
      <![CDATA[
      .puntos{-webkit-animation: animado 1250ms linear infinite; animation: animado 1250ms linear infinite;}
      @-webkit-keyframes animado
      {
        to{-webkit-transform: translate(2091.036, 1000px); transform: translate(2091.036px, 1000px);}
      }

      @keyframes animado
      {
        to{-webkit-transform: translate(2091.036px, 1000px); transform: translate(2091.036px, 1000px);}
      }
      ]]>
    </style>
  </defs>
  <g id="Grupo_208" data-name="Grupo 208" transform="translate(-1940.964 -689.948)">
    <g id="Grupo_205" data-name="Grupo 205" transform="translate(1908.763 423.849)">
      <circle id="Elipse_176" data-name="Elipse 176" cx="138.881" cy="138.881" r="138.881" transform="translate(46.028 511.237)" fill="#333" opacity="0.11"/>
      <circle id="Elipse_175" data-name="Elipse 175" cx="122.309" cy="122.309" r="122.309" transform="translate(62.599 527.809)" fill="#333" opacity="0.06"/>
      <g id="Grupo_134" data-name="Grupo 134" transform="translate(32.201 497.407)" opacity="0.1">
        <g id="Grupo_133" data-name="Grupo 133">
          <g id="Grupo_132" data-name="Grupo 132">
            <path id="Trazado_160" data-name="Trazado 160" d="M185.466,498.349a.938.938,0,0,1-.936.948h0a.949.949,0,0,1-.948-.942h0a.945.945,0,0,1,.943-.943v-.005A.943.943,0,0,1,185.466,498.349Zm2.472-.913a.949.949,0,0,1,.924.962h0a.949.949,0,0,1-.962.93h0v-.005h0a.938.938,0,0,1-.924-.96h0a.941.941,0,0,1,.943-.926h.019Zm-5.86.936a.94.94,0,0,1-.919.967h0a.935.935,0,0,1-.966-.918h0a.943.943,0,0,1,.918-.967h.024A.943.943,0,0,1,182.078,498.373Zm9.262-.833a.954.954,0,0,1,.906.984h0a.953.953,0,0,1-.986.906h0a.944.944,0,0,1-.9-.984h0a.938.938,0,0,1,.936-.906h.042Zm-12.652.937a.944.944,0,0,1-.9.984h0a.94.94,0,0,1-.984-.9h0a.944.944,0,0,1,.9-.986h.043A.948.948,0,0,1,178.688,498.476Zm16.059-.756h0a.946.946,0,0,1,.882,1h0a.945.945,0,0,1-1,.882h0a.948.948,0,0,1-.882-1h0a.95.95,0,0,1,.948-.882h.054Zm-19.449.924a.942.942,0,0,1-.875,1.01h0a.941.941,0,0,1-1-.877h0a.948.948,0,0,1,.877-1.008h.065A.936.936,0,0,1,175.3,498.645Zm22.851-.671a.951.951,0,0,1,.863,1.021h0a.943.943,0,0,1-1.021.858h0a.947.947,0,0,1-.863-1.021h0a.95.95,0,0,1,.943-.858h.078Zm-26.234.924a.933.933,0,0,1-.851,1.021h0a.934.934,0,0,1-1.021-.851h0a.935.935,0,0,1,.851-1.021h0a.4.4,0,0,1,.085-.007h0A.94.94,0,0,1,171.915,498.9Zm29.634-.592a.945.945,0,0,1,.834,1.04h0a.934.934,0,0,1-1.039.833h0a.942.942,0,0,1-.839-1.039h0a.947.947,0,0,1,.942-.839h0A.7.7,0,0,1,201.549,498.306Zm-33.006.913a.945.945,0,0,1-.833,1.045h0a.942.942,0,0,1-1.045-.834h0a.945.945,0,0,1,.834-1.039h0a.73.73,0,0,1,.108-.005h0A.945.945,0,0,1,168.543,499.219Zm36.39-.507a.942.942,0,0,1,.816,1.057h0a.942.942,0,0,1-1.057.81h0a.941.941,0,0,1-.816-1.057h0a.948.948,0,0,1,.936-.817h0A.713.713,0,0,1,204.934,498.711Zm-39.761.907a.937.937,0,0,1-.8,1.063h0a.937.937,0,0,1-1.063-.809h0a.934.934,0,0,1,.809-1.057h-.005a.816.816,0,0,1,.133-.013h0A.948.948,0,0,1,165.172,499.619Zm43.145-.424a.937.937,0,0,1,.785,1.069h0a.943.943,0,0,1-1.076.792h0a.943.943,0,0,1-.785-1.076h0a.941.941,0,0,1,.93-.8h0A.6.6,0,0,1,208.317,499.195Zm-46.5.9a.943.943,0,0,1-.785,1.081h0a.944.944,0,0,1-1.076-.785h0a.934.934,0,0,1,.786-1.076h0a.592.592,0,0,1,.145-.012h0A.935.935,0,0,1,161.813,500.1Zm49.869-.344a.941.941,0,0,1,.768,1.087h0a.943.943,0,0,1-1.1.768h.007a.945.945,0,0,1-.768-1.093h0a.939.939,0,0,1,.93-.78h0A.684.684,0,0,1,211.682,499.751Zm-53.215.894a.934.934,0,0,1-.756,1.093h0a.941.941,0,0,1-1.1-.756h0a.949.949,0,0,1,.761-1.1h0a1.461,1.461,0,0,1,.17-.012h0A.939.939,0,0,1,158.467,500.645Zm56.568-.266a.947.947,0,0,1,.743,1.11h0a.947.947,0,0,1-1.112.737h0a.937.937,0,0,1-.743-1.105h0a.942.942,0,0,1,.923-.761h0A.907.907,0,0,1,215.035,500.38Zm-59.9.887a.951.951,0,0,1-.737,1.117h0a.941.941,0,0,1-1.112-.736h0a.94.94,0,0,1,.732-1.112h0a1.05,1.05,0,0,1,.193-.019h0A.952.952,0,0,1,155.137,501.267Zm63.239-.181a.946.946,0,0,1,.713,1.129h0a.942.942,0,0,1-1.125.713h0a.944.944,0,0,1-.719-1.124h0a.948.948,0,0,1,.924-.742h0A1.151,1.151,0,0,1,218.376,501.086Zm-66.561.882a.938.938,0,0,1-.708,1.129h0a.934.934,0,0,1-1.129-.707h0a.934.934,0,0,1,.707-1.129h0a.858.858,0,0,1,.211-.025h0A.943.943,0,0,1,151.815,501.968Zm69.878-.1a.945.945,0,0,1,.695,1.141h0a.95.95,0,0,1-1.148.689h0a.952.952,0,0,1-.689-1.142h0a.947.947,0,0,1,.918-.719h0A.931.931,0,0,1,221.693,501.871Zm-73.178.87a.945.945,0,0,1-.688,1.148h0a.943.943,0,0,1-1.142-.683h0a.943.943,0,0,1,.683-1.148h0a.974.974,0,0,1,.23-.031h0A.948.948,0,0,1,148.515,502.741ZM225,502.73a.933.933,0,0,1,.664,1.154h0a.942.942,0,0,1-1.16.664h.005a.939.939,0,0,1-.664-1.16h0a.946.946,0,0,1,.906-.695h0A.857.857,0,0,1,225,502.73Zm-79.769.858a.941.941,0,0,1-.659,1.16h0a.939.939,0,0,1-1.16-.659h0a.94.94,0,0,1,.659-1.154h0a.911.911,0,0,1,.247-.036h0A.944.944,0,0,1,145.229,503.588Zm83.055.066a.951.951,0,0,1,.635,1.178h0a.944.944,0,0,1-1.173.634h0a.942.942,0,0,1-.634-1.172h0a.944.944,0,0,1,.906-.677h0A1.051,1.051,0,0,1,228.284,503.654Zm-86.317.858a.94.94,0,0,1-.635,1.172h0a.933.933,0,0,1-1.172-.628h0a.936.936,0,0,1,.628-1.172h0a.837.837,0,0,1,.271-.042h0A.95.95,0,0,1,141.967,504.512Zm89.58.15h0a.945.945,0,0,1,.611,1.185h0a.952.952,0,0,1-1.19.61h0a.941.941,0,0,1-.61-1.183h0a.941.941,0,0,1,.9-.659h0A.993.993,0,0,1,231.546,504.662Zm-92.837.846a.941.941,0,0,1-.6,1.19h0a.942.942,0,0,1-1.19-.6h0a.941.941,0,0,1,.6-1.189h0a.921.921,0,0,1,.29-.049h0A.95.95,0,0,1,138.71,505.508Zm96.075.23a.946.946,0,0,1,.58,1.2h0a.946.946,0,0,1-1.2.58h0a.942.942,0,0,1-.58-1.2h0a.939.939,0,0,1,.894-.634h0A.917.917,0,0,1,234.785,505.738Zm-99.307.846a.933.933,0,0,1-.574,1.2h0v.007h0a.951.951,0,0,1-1.209-.58h0a.95.95,0,0,1,.58-1.2h0a.961.961,0,0,1,.313-.054h0A.944.944,0,0,1,135.478,506.584Zm102.516.308a.935.935,0,0,1,.555,1.209h0a.933.933,0,0,1-1.209.555h0a.938.938,0,0,1-.555-1.209h0a.939.939,0,0,1,.882-.616h0A.888.888,0,0,1,237.994,506.892Zm-105.718.834a.943.943,0,0,1-.557,1.214h0a.947.947,0,0,1-1.214-.55h0a.946.946,0,0,1,.55-1.214h0a.943.943,0,0,1,.332-.061h0A.953.953,0,0,1,132.275,507.727Zm108.908.387a.942.942,0,0,1,.526,1.226h0a.936.936,0,0,1-1.221.526h0a.941.941,0,0,1-.531-1.227h0a.94.94,0,0,1,.875-.592h0A1.02,1.02,0,0,1,241.183,508.113Zm-112.086.828a.943.943,0,0,1-.525,1.226h0a.935.935,0,0,1-1.226-.519h0a.94.94,0,0,1,.525-1.227h0a.9.9,0,0,1,.351-.072h0A.944.944,0,0,1,129.1,508.941Zm115.234.458h0a.947.947,0,0,1,.5,1.239h0a.944.944,0,0,1-1.233.5h0a.945.945,0,0,1-.5-1.238h0a.948.948,0,0,1,.87-.574h0A1.013,1.013,0,0,1,244.331,509.4Zm-118.381.829a.942.942,0,0,1-.5,1.238h0a.941.941,0,0,1-1.239-.5h0a.945.945,0,0,1,.49-1.239h0a1.014,1.014,0,0,1,.375-.072h0A.946.946,0,0,1,125.95,510.228Zm121.5.531a.945.945,0,0,1,.472,1.25h0a.945.945,0,0,1-1.251.472h.007a.942.942,0,0,1-.478-1.245h0a.95.95,0,0,1,.865-.562h0A1,1,0,0,1,247.449,510.759Zm-124.623.828a.942.942,0,0,1-.465,1.251h0a.946.946,0,0,1-1.25-.466h0a.943.943,0,0,1,.47-1.25h-.005a.888.888,0,0,1,.392-.085h0A.934.934,0,0,1,122.826,511.587Zm127.71.6a.939.939,0,0,1,.441,1.257h0a.942.942,0,0,1-1.257.448h0a.948.948,0,0,1-.441-1.263h0a.93.93,0,0,1,.851-.533h0A.976.976,0,0,1,250.536,512.191Zm-130.8.821a.941.941,0,0,1-.436,1.263h0a.948.948,0,0,1-1.262-.441h0a.94.94,0,0,1,.441-1.257h0a.909.909,0,0,1,.41-.1h0A.938.938,0,0,1,119.739,513.012Zm133.848.677a.945.945,0,0,1,.417,1.268h0a.946.946,0,0,1-1.269.417h0a.948.948,0,0,1-.412-1.268h0a.932.932,0,0,1,.841-.521h0A.868.868,0,0,1,253.587,513.689Zm-136.9.821a.941.941,0,0,1-.405,1.27h0a.951.951,0,0,1-1.275-.412h0a.948.948,0,0,1,.412-1.269h0a.906.906,0,0,1,.429-.1h0A.937.937,0,0,1,116.688,514.51Zm139.92.744a.941.941,0,0,1,.393,1.274h0a.948.948,0,0,1-1.275.393h-.005a.945.945,0,0,1-.387-1.275h0a.94.94,0,0,1,.833-.5h0A.942.942,0,0,1,256.607,515.254Zm-142.935.821a.939.939,0,0,1-.38,1.275h0a.946.946,0,0,1-1.282-.38h0a.939.939,0,0,1,.381-1.275h0a.932.932,0,0,1,.448-.114h0A.935.935,0,0,1,113.673,516.075Zm145.926.817a.94.94,0,0,1,.356,1.28h0a.942.942,0,0,1-1.28.363h0a.949.949,0,0,1-.363-1.287h0a.95.95,0,0,1,.822-.483h0A.93.93,0,0,1,259.6,516.892Zm-148.911.809a.939.939,0,0,1-.349,1.287h0a.942.942,0,0,1-1.287-.351h0a.949.949,0,0,1,.356-1.287h0a.931.931,0,0,1,.465-.121h0A.933.933,0,0,1,110.688,517.7Zm151.858.887h0a.945.945,0,0,1,.332,1.294h0a.945.945,0,0,1-1.292.332h0a.946.946,0,0,1-.332-1.292h0a.946.946,0,0,1,.816-.465h0A.929.929,0,0,1,262.546,518.588Zm-154.8.81a.943.943,0,0,1-.32,1.3h0a.943.943,0,0,1-1.292-.327h0a.935.935,0,0,1,.32-1.292h0a.945.945,0,0,1,.483-.133h0A.932.932,0,0,1,107.746,519.4Zm157.714.96h0a.94.94,0,0,1,.3,1.294h0a.946.946,0,0,1-1.3.308h0a.944.944,0,0,1-.3-1.3h0a.931.931,0,0,1,.8-.446h0A.951.951,0,0,1,265.459,520.359Zm-160.613.8a.941.941,0,0,1-.3,1.3h0a.939.939,0,0,1-1.3-.29h0a.953.953,0,0,1,.291-1.306h0a.968.968,0,0,1,.5-.145h0A.953.953,0,0,1,104.846,521.162Zm163.482,1.027a.947.947,0,0,1,.279,1.306h0a.953.953,0,0,1-1.311.272h0a.944.944,0,0,1-.272-1.306h0a.943.943,0,0,1,.792-.429h0A.907.907,0,0,1,268.328,522.189Zm-166.346.8a.95.95,0,0,1-.266,1.311h0a.952.952,0,0,1-1.311-.266h0a.951.951,0,0,1,.266-1.311h0a.98.98,0,0,1,.519-.158h0A.951.951,0,0,1,101.982,522.987Zm169.179,1.093a.941.941,0,0,1,.242,1.311h0a.935.935,0,0,1-1.311.247h0a.944.944,0,0,1-.242-1.311h0a.948.948,0,0,1,.78-.41h0A.957.957,0,0,1,271.162,524.081Zm-172,.8a.955.955,0,0,1-.235,1.318h0a.951.951,0,0,1-1.318-.242h0a.941.941,0,0,1,.236-1.311h.005a.929.929,0,0,1,.531-.169h0A.961.961,0,0,1,99.161,524.878Zm174.793,1.161h-.007a.935.935,0,0,1,.218,1.316h0a.94.94,0,0,1-1.318.218h0a.945.945,0,0,1-.217-1.316h0a.959.959,0,0,1,.766-.393h0A1,1,0,0,1,273.954,526.039Zm-177.572.792a.944.944,0,0,1-.206,1.316h0a.947.947,0,0,1-1.323-.2h0a.947.947,0,0,1,.211-1.318h0a.941.941,0,0,1,.555-.182h0A.94.94,0,0,1,96.382,526.83ZM276.7,528.062h0a.939.939,0,0,1,.187,1.318h0a.944.944,0,0,1-1.323.187h0a.943.943,0,0,1-.187-1.323h0a.959.959,0,0,1,.754-.375h0A.95.95,0,0,1,276.7,528.062Zm-183.046.78a.943.943,0,0,1-.182,1.323h0a.942.942,0,0,1-1.323-.175h0a.945.945,0,0,1,.181-1.323h0a.914.914,0,0,1,.569-.193h0A.955.955,0,0,1,93.651,528.841Zm185.746,1.3a.954.954,0,0,1,.157,1.33h0a.948.948,0,0,1-1.328.151h0a.941.941,0,0,1-.151-1.324h0a.926.926,0,0,1,.737-.356h0A.97.97,0,0,1,279.4,530.14Zm-188.435.773a.943.943,0,0,1-.151,1.33h0a.942.942,0,0,1-1.323-.15h0a.942.942,0,0,1,.145-1.324h0a.939.939,0,0,1,.592-.2h0A.959.959,0,0,1,90.963,530.914Zm191.087,1.372a.94.94,0,0,1,.126,1.323h0a.94.94,0,0,1-1.328.128h0a.94.94,0,0,1-.128-1.324h0a.938.938,0,0,1,.731-.344h0A.931.931,0,0,1,282.05,532.286Zm-193.728.761a.946.946,0,0,1-.121,1.328h0a.938.938,0,0,1-1.328-.114h0a.937.937,0,0,1,.121-1.328h0a.923.923,0,0,1,.6-.224h0A.941.941,0,0,1,88.322,533.047Zm196.331,1.439v-.007a.947.947,0,0,1,.1,1.335h0a.946.946,0,0,1-1.335.1h0a.946.946,0,0,1-.1-1.33h0a.944.944,0,0,1,.712-.327h0A.905.905,0,0,1,284.653,534.485ZM85.73,535.24a.946.946,0,0,1-.09,1.33h0a.949.949,0,0,1-1.336-.09h0a.947.947,0,0,1,.09-1.33h0a.957.957,0,0,1,.623-.235h0A.931.931,0,0,1,85.73,535.24Zm201.479,1.5a.952.952,0,0,1,.073,1.335h0a.944.944,0,0,1-1.335.066h0a.945.945,0,0,1-.068-1.335h0a.947.947,0,0,1,.7-.308h0A.922.922,0,0,1,287.209,536.738Zm-204.022.744a.945.945,0,0,1-.061,1.335h0a.945.945,0,0,1-1.335-.061h0a.944.944,0,0,1,.061-1.33h0a.93.93,0,0,1,.64-.247h0A.954.954,0,0,1,83.187,537.482Zm206.53,1.57a.946.946,0,0,1,.043,1.335h0a.946.946,0,0,1-1.336.037h0v.005h0a.946.946,0,0,1-.043-1.335h0a.948.948,0,0,1,.689-.3h0A.945.945,0,0,1,289.717,539.052ZM80.7,539.783a.952.952,0,0,1-.031,1.336h-.005a.933.933,0,0,1-1.33-.031h0a.938.938,0,0,1,.031-1.33h0a.938.938,0,0,1,.652-.266h0A.951.951,0,0,1,80.7,539.783Zm211.471,1.638a.937.937,0,0,1,.012,1.335h0a.945.945,0,0,1-1.335.013h0a.947.947,0,0,1-.005-1.336h0a.931.931,0,0,1,.671-.278h0A.941.941,0,0,1,292.169,541.42Zm-213.911.72a.945.945,0,0,1,0,1.335h0a.935.935,0,0,1-1.336,0h0a.939.939,0,0,1,0-1.33h0a.931.931,0,0,1,.671-.278h0A.961.961,0,0,1,78.257,542.14Zm-1.336.005h0v0Zm217.653,1.7a.944.944,0,0,1-.019,1.335h0a.944.944,0,0,1-1.335-.024h0a.945.945,0,0,1,.017-1.335h0a.969.969,0,0,1,.659-.267h0A.925.925,0,0,1,294.574,543.85Zm-218.7.707a.942.942,0,0,1,.031,1.328h0a.94.94,0,0,1-1.336.031h0a.944.944,0,0,1-.029-1.335h0a.941.941,0,0,1,.683-.29h0A.938.938,0,0,1,75.87,544.557Zm221.054,1.769a.944.944,0,0,1-.048,1.33h0a.945.945,0,0,1-1.335-.048h0a.943.943,0,0,1,.048-1.335h0a.956.956,0,0,1,.64-.248h0A.953.953,0,0,1,296.924,546.326Zm-223.386.689a.939.939,0,0,1,.06,1.33h0a.945.945,0,0,1-1.335.06h0a.938.938,0,0,1-.054-1.328H72.2a.939.939,0,0,1,.7-.308h0A.925.925,0,0,1,73.538,547.015Zm225.676,1.837h0a.947.947,0,0,1-.078,1.335h0a.947.947,0,0,1-1.335-.085h.005a.939.939,0,0,1,.078-1.33h0a.946.946,0,0,1,.623-.235h0A.939.939,0,0,1,299.214,548.852Zm-227.948.676a.944.944,0,0,1,.084,1.33h0a.938.938,0,0,1-1.328.09h0a.945.945,0,0,1-.09-1.335h0a.946.946,0,0,1,.712-.32h0A.955.955,0,0,1,71.266,549.528Zm230.183,1.9h0a.941.941,0,0,1-.109,1.33h0a.942.942,0,0,1-1.33-.109h0a.942.942,0,0,1,.109-1.33h0a.941.941,0,0,1,.611-.223h0A.941.941,0,0,1,301.45,551.432Zm-232.407.659a.946.946,0,0,1,.121,1.328h0a.939.939,0,0,1-1.328.116h0a.946.946,0,0,1-.122-1.33h0a.943.943,0,0,1,.725-.339h0A.926.926,0,0,1,69.043,552.091Zm234.588,1.969a.949.949,0,0,1-.139,1.33h0a.946.946,0,0,1-1.328-.139h0a.946.946,0,0,1,.138-1.328h0a.951.951,0,0,1,.592-.206h0A.946.946,0,0,1,303.631,554.059ZM66.88,554.7a.937.937,0,0,1,.151,1.323h0a.938.938,0,0,1-1.324.15h0a.942.942,0,0,1-.15-1.328h0a.943.943,0,0,1,.736-.351h0A.926.926,0,0,1,66.88,554.7Zm238.87,2.036a.941.941,0,0,1-.169,1.322h0a.941.941,0,0,1-1.323-.162h0v-.007h0a.944.944,0,0,1,.169-1.323h0a.929.929,0,0,1,.574-.194h0A.955.955,0,0,1,305.751,556.737Zm-240.973.622a.937.937,0,0,1,.181,1.318h0a.946.946,0,0,1-1.323.181h0a.938.938,0,0,1-.175-1.323h0a.935.935,0,0,1,.749-.368h0A.913.913,0,0,1,64.778,557.359Zm243.033,2.1a.95.95,0,0,1-.2,1.323h0a.951.951,0,0,1-1.323-.2h0a.951.951,0,0,1,.2-1.323h0a.973.973,0,0,1,.562-.182h0A.95.95,0,0,1,307.811,559.461Zm-245.076.6a.939.939,0,0,1,.206,1.318h0a.938.938,0,0,1-1.316.2h0a.95.95,0,0,1-.206-1.316h0a.944.944,0,0,1,.766-.388h0A.934.934,0,0,1,62.735,560.059Zm247.077,2.176h0a.944.944,0,0,1-.23,1.31h0a.934.934,0,0,1-1.311-.228h0v.005h0a.946.946,0,0,1,.223-1.316h0a.946.946,0,0,1,.545-.17h0A.95.95,0,0,1,309.811,562.235Zm-249.058.574a.935.935,0,0,1,.236,1.311h0a.946.946,0,0,1-1.311.235h0a.942.942,0,0,1-.236-1.311h0a.942.942,0,0,1,.774-.41h0A.925.925,0,0,1,60.753,562.809Zm250.992,2.241a.942.942,0,0,1-.255,1.306h0a.949.949,0,0,1-1.311-.254h0a.945.945,0,0,1,.26-1.312h0a.931.931,0,0,1,.519-.162h0A.943.943,0,0,1,311.745,565.05Zm-252.913.543A.947.947,0,0,1,59.1,566.9H59.1a.943.943,0,0,1-1.3.267h0a.95.95,0,0,1-.266-1.311h0a.947.947,0,0,1,.785-.424h0A.956.956,0,0,1,58.832,565.593ZM313.624,567.9a.947.947,0,0,1-.29,1.3h0a.933.933,0,0,1-1.3-.283h0a.942.942,0,0,1,.283-1.306h0a.924.924,0,0,1,.509-.145h0A.954.954,0,0,1,313.624,567.9Zm-256.646.526a.941.941,0,0,1,.3,1.3h0a.941.941,0,0,1-1.3.295h0a.94.94,0,0,1-.3-1.3h0a.943.943,0,0,1,.8-.442h0A.932.932,0,0,1,56.978,568.427ZM315.43,570.8h0a.943.943,0,0,1-.315,1.3h0a.946.946,0,0,1-1.3-.315h0a.952.952,0,0,1,.314-1.3h0a.979.979,0,0,1,.5-.139h0A.944.944,0,0,1,315.43,570.8Zm-260.241.5a.946.946,0,0,1,.321,1.3h0a.949.949,0,0,1-1.294.32h0a.944.944,0,0,1-.325-1.292h0a.954.954,0,0,1,.816-.46h0A.941.941,0,0,1,55.189,571.3Zm261.987,2.447a.94.94,0,0,1-.344,1.287h0a.937.937,0,0,1-1.286-.344h-.007a.946.946,0,0,1,.351-1.287h0a.926.926,0,0,1,.47-.128h0A.941.941,0,0,1,317.175,573.743Zm-263.714.466a.939.939,0,0,1,.349,1.286h0a.94.94,0,0,1-1.287.351h0a.938.938,0,0,1-.349-1.286h0a.937.937,0,0,1,.816-.478h0A.954.954,0,0,1,53.462,574.21Zm265.394,2.512a.942.942,0,0,1-.375,1.282h0a.946.946,0,0,1-1.28-.375h0a.941.941,0,0,1,.375-1.281h0a.938.938,0,0,1,.453-.115h0A.94.94,0,0,1,318.856,576.721Zm-267.062.436a.94.94,0,0,1,.387,1.275h0a.943.943,0,0,1-1.28.38h0a.938.938,0,0,1-.38-1.274h0a.93.93,0,0,1,.828-.5h0A.908.908,0,0,1,51.793,577.157Zm268.675,2.58a.938.938,0,0,1-.4,1.27h0a.942.942,0,0,1-1.269-.4h0a.944.944,0,0,1,.4-1.274h0a.938.938,0,0,1,.436-.1h0A.944.944,0,0,1,320.468,579.737ZM50.2,580.142a.947.947,0,0,1,.405,1.269h0a.94.94,0,0,1-1.269.405h0a.942.942,0,0,1-.412-1.269h0a.952.952,0,0,1,.846-.514h0A.935.935,0,0,1,50.2,580.142Zm271.8,2.646a.94.94,0,0,1-.429,1.263h0a.944.944,0,0,1-1.262-.429h0a.946.946,0,0,1,.428-1.263h0a.94.94,0,0,1,.418-.1h0A.938.938,0,0,1,322.009,582.788Zm-273.333.369a.939.939,0,0,1,.436,1.257h0a.948.948,0,0,1-1.263.441h0a.948.948,0,0,1-.436-1.263h0a.945.945,0,0,1,.853-.531h0A.929.929,0,0,1,48.676,583.157Zm274.813,2.719h0a.942.942,0,0,1-.458,1.25h0a.952.952,0,0,1-1.257-.46h0v.007h0a.947.947,0,0,1,.458-1.257h0a.932.932,0,0,1,.4-.09h0A.948.948,0,0,1,323.489,585.876Zm-276.275.332a.932.932,0,0,1,.466,1.245h0a.942.942,0,0,1-1.251.47h0a.945.945,0,0,1-.465-1.25h0a.94.94,0,0,1,.858-.555h0A.894.894,0,0,1,47.213,586.208Zm277.678,2.785h0a.943.943,0,0,1-.484,1.243h0a.951.951,0,0,1-1.245-.489h0a.941.941,0,0,1,.49-1.238h0a.906.906,0,0,1,.373-.085h0A.939.939,0,0,1,324.892,588.994Zm-279.067.3a.936.936,0,0,1,.49,1.238h.005a.943.943,0,0,1-1.245.489h0a.939.939,0,0,1-.489-1.238h0a.937.937,0,0,1,.863-.568h0A.884.884,0,0,1,45.824,589.29Zm280.4,2.857a.936.936,0,0,1-.514,1.226h0a.934.934,0,0,1-1.226-.514h0a.936.936,0,0,1,.514-1.226h0a.813.813,0,0,1,.356-.072h0A.932.932,0,0,1,326.227,592.147ZM44.5,592.394a.945.945,0,0,1,.519,1.233h0a.942.942,0,0,1-1.226.521h0a.937.937,0,0,1-.519-1.227h0a.939.939,0,0,1,.877-.592h0A1.018,1.018,0,0,1,44.5,592.394Zm282.994,2.93a.942.942,0,0,1-.543,1.221h0a.947.947,0,0,1-1.221-.543h0a.939.939,0,0,1,.543-1.215h0a.987.987,0,0,1,.339-.066h0A.944.944,0,0,1,327.5,595.324Zm-284.251.223a.941.941,0,0,1,.55,1.215h0a.942.942,0,0,1-1.214.55h0a.945.945,0,0,1-.55-1.215h0a.941.941,0,0,1,.882-.61h0A.922.922,0,0,1,43.245,595.547Zm285.441,2.986a.943.943,0,0,1-.567,1.207h0a.946.946,0,0,1-1.209-.567h0a.946.946,0,0,1,.568-1.209h0a1.015,1.015,0,0,1,.319-.055h0A.942.942,0,0,1,328.685,598.534Zm-286.624.193a.947.947,0,0,1,.579,1.2h-.005a.937.937,0,0,1-1.2.574h0a.941.941,0,0,1-.574-1.2h0a.944.944,0,0,1,.887-.628h0A.938.938,0,0,1,42.061,598.726ZM329.8,601.771h.005a.949.949,0,0,1-.6,1.2h0a.95.95,0,0,1-1.2-.6h.007a.931.931,0,0,1,.592-1.19h0a.856.856,0,0,1,.295-.055h0A.941.941,0,0,1,329.8,601.771Zm-288.854.158a.944.944,0,0,1,.6,1.19h0a.945.945,0,0,1-1.191.6h0a.944.944,0,0,1-.6-1.19h0a.947.947,0,0,1,.894-.654h0A.978.978,0,0,1,40.949,601.929Zm289.905,3.106a.942.942,0,0,1-.622,1.178h0a.935.935,0,0,1-1.178-.623h-.007a.949.949,0,0,1,.628-1.178h0a.877.877,0,0,1,.278-.042h0A.947.947,0,0,1,330.854,605.034Zm-290.945.126a.938.938,0,0,1,.628,1.173h0a.942.942,0,0,1-1.178.628h0a.945.945,0,0,1-.628-1.173h0a.957.957,0,0,1,.907-.671h0A.837.837,0,0,1,39.909,605.16Zm291.912,3.148a.941.941,0,0,1-.647,1.166h0a.951.951,0,0,1-1.166-.652h0a.951.951,0,0,1,.647-1.166h0a.956.956,0,0,1,.26-.037h0A.941.941,0,0,1,331.821,608.308Zm-292.878.1a.944.944,0,0,1,.658,1.16h0a.951.951,0,0,1-1.165.659h0a.95.95,0,0,1-.654-1.166h0a.943.943,0,0,1,.907-.688h0A.938.938,0,0,1,38.943,608.411ZM332.722,611.6a.946.946,0,0,1-.677,1.148h0a.943.943,0,0,1-1.154-.676h0a.95.95,0,0,1,.677-1.149h0a1.193,1.193,0,0,1,.242-.029h0A.946.946,0,0,1,332.722,611.6Zm-294.674.078a.942.942,0,0,1,.683,1.148h0a.942.942,0,0,1-1.148.683h0a.948.948,0,0,1-.683-1.148h0a.948.948,0,0,1,.919-.713h0A1.014,1.014,0,0,1,38.048,611.68Zm295.495,3.232a.952.952,0,0,1-.707,1.137h0a.939.939,0,0,1-1.129-.7h0a.942.942,0,0,1,.7-1.136h0a.871.871,0,0,1,.218-.024h0A.94.94,0,0,1,333.543,614.911Zm-296.309.061a.942.942,0,0,1,.707,1.129h0a.948.948,0,0,1-1.136.708h0a.945.945,0,0,1-.708-1.13h0a.949.949,0,0,1,.919-.731h0A.878.878,0,0,1,37.234,614.973Zm297.053,3.269a.946.946,0,0,1-.725,1.122h0a.94.94,0,0,1-1.118-.731h0a.943.943,0,0,1,.725-1.117h0a1,1,0,0,1,.194-.019h0A.938.938,0,0,1,334.287,618.242Zm-297.8.036a.942.942,0,0,1,.732,1.117h0a.932.932,0,0,1-1.112.732h0a.948.948,0,0,1-.737-1.112h0a.952.952,0,0,1,.924-.756h0A1.039,1.039,0,0,1,36.483,618.277Zm298.474,3.31a.949.949,0,0,1-.749,1.106h0a.949.949,0,0,1-1.106-.756h0a.95.95,0,0,1,.756-1.1h0a.866.866,0,0,1,.175-.017h0A.944.944,0,0,1,334.957,621.588Zm-299.143.019a.938.938,0,0,1,.754,1.1h0a.932.932,0,0,1-1.093.754h0a.941.941,0,0,1-.756-1.1h-.005a.949.949,0,0,1,.93-.773h0A.836.836,0,0,1,35.814,621.606Zm299.741,3.341a.945.945,0,0,1-.773,1.088h0a.941.941,0,0,1-1.088-.773h0v-.007h0a.939.939,0,0,1,.773-1.081h0a1.343,1.343,0,0,1,.157-.012h0A.946.946,0,0,1,335.555,624.947Zm-300.334,0a.935.935,0,0,1,.78,1.076h0a.948.948,0,0,1-1.083.785h0a.942.942,0,0,1-.778-1.081h0a.936.936,0,0,1,.93-.792h0A.667.667,0,0,1,35.222,624.947Zm300.853,3.378a.941.941,0,0,1-.8,1.064h0a.936.936,0,0,1-1.063-.8h0a.948.948,0,0,1,.8-1.069h0a.961.961,0,0,1,.138-.007h0A.942.942,0,0,1,336.075,628.325ZM34.7,628.294a.944.944,0,0,1,.809,1.063h0a.938.938,0,0,1-1.063.8h0a.94.94,0,0,1-.809-1.063h0a.943.943,0,0,1,.936-.809h0A1,1,0,0,1,34.7,628.294Zm301.827,3.414a.944.944,0,0,1-.829,1.045h0a.936.936,0,0,1-1.045-.822h0a.941.941,0,0,1,.822-1.051h0c.036,0,.073-.007.116-.007h0A.952.952,0,0,1,336.522,631.708ZM34.248,631.66a.937.937,0,0,1,.834,1.039h0a.944.944,0,0,1-1.045.834h0a.945.945,0,0,1-.828-1.045h0a.936.936,0,0,1,.931-.834h0A.585.585,0,0,1,34.248,631.66ZM336.89,635.1v.005a.941.941,0,0,1-.846,1.027h0a.946.946,0,0,1-1.032-.845h0a.946.946,0,0,1,.845-1.033h0c.031,0,.061-.007.1-.007h0A.948.948,0,0,1,336.89,635.1Zm-303.01-.066a.937.937,0,0,1,.853,1.02h0a.944.944,0,0,1-1.028.853h0a.937.937,0,0,1-.851-1.021h0a.947.947,0,0,1,.936-.858h0A.413.413,0,0,1,33.88,635.031ZM337.186,638.5a.942.942,0,0,1-.877,1.01h0a.944.944,0,0,1-1.008-.863h0a.949.949,0,0,1,.87-1.015h.072A.947.947,0,0,1,337.186,638.5Zm-303.6-.09a.94.94,0,0,1,.877,1h0a.948.948,0,0,1-1.01.877h0a.948.948,0,0,1-.875-1v-.007a.947.947,0,0,1,.942-.875h0A.262.262,0,0,1,33.584,638.408Zm303.82,3.5V641.9a.952.952,0,0,1-.9,1h0a.947.947,0,0,1-.99-.894h0a.945.945,0,0,1,.893-.992h.049A.945.945,0,0,1,337.4,641.907Zm-304.038-.116a.942.942,0,0,1,.9.991h0v-.005h0a.945.945,0,0,1-.986.9h0a.944.944,0,0,1-.9-.99h0a.945.945,0,0,1,.942-.9h.048Zm304.176,3.523h0a.943.943,0,0,1-.913.972h0a.943.943,0,0,1-.972-.911h0a.945.945,0,0,1,.913-.974h.031A.938.938,0,0,1,337.542,645.314Zm-304.326-.133a.946.946,0,0,1,.924.967h0a.948.948,0,0,1-.967.918h0a.937.937,0,0,1-.919-.967h0a.94.94,0,0,1,.943-.918h.019Zm304.4,3.547a.944.944,0,0,1-.936.948h0a.944.944,0,0,1-.955-.936h0a.948.948,0,0,1,.936-.948h.007A.948.948,0,0,1,337.615,648.727Zm-304.466-.157a.944.944,0,0,1,.936.948h0a1.01,1.01,0,0,1-.049.3h0a.948.948,0,0,1,.049.3h0a.944.944,0,0,1-.943.942h0a.943.943,0,0,1-.942-.942h0a1.008,1.008,0,0,1,.048-.3h0a1.01,1.01,0,0,1-.048-.3h0a.946.946,0,0,1,.942-.942h.007Zm302.574.169v.005h0v-.005Zm.948,2.441a.941.941,0,0,1,.931.96h0a.944.944,0,0,1-.955.93h0a.943.943,0,0,1-.93-.96h0a.945.945,0,0,1,.942-.93h.012ZM34.122,653.488a.945.945,0,0,1-.924.967h0a.948.948,0,0,1-.96-.924h0a.95.95,0,0,1,.924-.967h.019A.943.943,0,0,1,34.122,653.488Zm302.491,1.081a.942.942,0,0,1,.913.972h0a.948.948,0,0,1-.979.914h0a.941.941,0,0,1-.906-.979h0a.94.94,0,0,1,.942-.907h.031Zm-302.377,2.29h0a.949.949,0,0,1-.9.986h0a.939.939,0,0,1-.986-.9h0a.939.939,0,0,1,.9-.986h.042A.943.943,0,0,1,34.236,656.859Zm302.244,1.1a.944.944,0,0,1,.887,1h0a.944.944,0,0,1-1,.889h0a.945.945,0,0,1-.889-1h0a.946.946,0,0,1,.943-.889h.054ZM34.418,660.224h.005a.949.949,0,0,1-.882,1h0a.943.943,0,0,1-1-.883h0a.946.946,0,0,1,.877-1h.06A.941.941,0,0,1,34.418,660.224Zm301.851,1.118a.949.949,0,0,1,.869,1.015h0a.949.949,0,0,1-1.015.87h0a.951.951,0,0,1-.87-1.015h0a.947.947,0,0,1,.943-.87h.073ZM34.677,663.585h0a.933.933,0,0,1-.858,1.02h0a.944.944,0,0,1-1.02-.852h0a.951.951,0,0,1,.858-1.027h.084A.938.938,0,0,1,34.677,663.585Zm301.307,1.141a.943.943,0,0,1,.845,1.033h0a.94.94,0,0,1-1.032.839h0a.938.938,0,0,1-.846-1.032h0a.942.942,0,0,1,.936-.846h0A.568.568,0,0,1,335.984,664.726ZM35.016,666.937a.949.949,0,0,1-.833,1.045h0a.952.952,0,0,1-1.045-.834h0a.949.949,0,0,1,.833-1.045h0c.037,0,.073-.005.109-.005h0A.946.946,0,0,1,35.016,666.937Zm300.611,1.16a.939.939,0,0,1,.817,1.052h0a.941.941,0,0,1-1.052.821h0a.951.951,0,0,1-.822-1.057h.007a.935.935,0,0,1,.936-.821h0A.861.861,0,0,1,335.627,668.1ZM35.421,670.285h0a.941.941,0,0,1-.809,1.063h0a.943.943,0,0,1-1.057-.816v.007a.939.939,0,0,1,.809-1.064h0a.972.972,0,0,1,.121-.005h0A.938.938,0,0,1,35.421,670.285Zm299.772,1.178a.935.935,0,0,1,.792,1.069h0a.946.946,0,0,1-1.069.8h0a.952.952,0,0,1-.8-1.076h0a.953.953,0,0,1,.936-.8h0A.52.52,0,0,1,335.193,671.463ZM35.9,673.62a.935.935,0,0,1-.785,1.075h0a.933.933,0,0,1-1.076-.785h0a.942.942,0,0,1,.785-1.076h0a1.346,1.346,0,0,1,.145-.012h0A.942.942,0,0,1,35.9,673.62Zm298.774,1.19a.952.952,0,0,1,.773,1.093V675.9a.938.938,0,0,1-1.087.774h0a.947.947,0,0,1-.774-1.088h0a.947.947,0,0,1,.931-.786h0A1.359,1.359,0,0,1,334.678,674.81ZM36.466,676.942h0a.936.936,0,0,1-.761,1.093h0a.945.945,0,0,1-1.1-.761h0a.952.952,0,0,1,.761-1.093h0a1.523,1.523,0,0,1,.169-.012h0A.946.946,0,0,1,36.466,676.942Zm297.627,1.209a.948.948,0,0,1,.749,1.105h0a.942.942,0,0,1-1.105.749h0a.942.942,0,0,1-.749-1.105h0a.944.944,0,0,1,.93-.761h0A1.64,1.64,0,0,1,334.093,678.151Zm-297,2.1a.936.936,0,0,1-.732,1.112h0a.937.937,0,0,1-1.112-.737h0a.94.94,0,0,1,.737-1.112h0a.944.944,0,0,1,.182-.019h0A.943.943,0,0,1,37.094,680.253Zm296.339,1.226a.953.953,0,0,1,.725,1.124h0a.944.944,0,0,1-1.124.719h0a.943.943,0,0,1-.725-1.117h0l.007-.007h0a.936.936,0,0,1,.918-.743h0A1.126,1.126,0,0,1,333.434,681.479ZM37.808,683.552H37.8a.939.939,0,0,1-.707,1.13h0a.946.946,0,0,1-1.129-.713h0a.944.944,0,0,1,.712-1.129h0a.775.775,0,0,1,.206-.025h0A.949.949,0,0,1,37.808,683.552Zm294.9,1.238a.951.951,0,0,1,.695,1.142v-.007a.945.945,0,0,1-1.136.7h0a.946.946,0,0,1-.7-1.136h0v-.005h0a.949.949,0,0,1,.919-.72h0A1.022,1.022,0,0,1,332.7,684.79ZM38.586,686.833a.943.943,0,0,1-.688,1.142h0a.944.944,0,0,1-1.142-.689h0a.945.945,0,0,1,.689-1.142h0a.979.979,0,0,1,.223-.029h0A.945.945,0,0,1,38.586,686.833Zm293.307,1.25a.947.947,0,0,1,.671,1.154h0a.946.946,0,0,1-1.153.671h0a.944.944,0,0,1-.671-1.154h0a.934.934,0,0,1,.911-.7h0A1.2,1.2,0,0,1,331.893,688.082ZM39.439,690.09a.945.945,0,0,1-.659,1.16h0a.945.945,0,0,1-1.161-.659h0a.942.942,0,0,1,.659-1.16h0a.933.933,0,0,1,.248-.037h0A.95.95,0,0,1,39.439,690.09Zm291.567,1.269a.945.945,0,0,1,.646,1.172h0a.936.936,0,0,1-1.165.64h0a.938.938,0,0,1-.647-1.166h0a.947.947,0,0,1,.906-.681h0A.925.925,0,0,1,331.006,691.358ZM40.369,693.333a.945.945,0,0,1-.635,1.172h0a.949.949,0,0,1-1.178-.634h0a.954.954,0,0,1,.642-1.178h0a.978.978,0,0,1,.266-.036h0A.953.953,0,0,1,40.369,693.333Zm289.682,1.282a.945.945,0,0,1,.622,1.184v-.007a.949.949,0,0,1-1.184.623h0a.944.944,0,0,1-.616-1.185h0a.938.938,0,0,1,.9-.657h0A.841.841,0,0,1,330.051,694.615ZM41.366,696.548h0a.943.943,0,0,1-.6,1.19h0a.952.952,0,0,1-1.19-.611h0a.942.942,0,0,1,.61-1.183h0a.968.968,0,0,1,.291-.049h0A.94.94,0,0,1,41.366,696.548Zm287.658,1.3a.944.944,0,0,1,.591,1.2h0a.949.949,0,0,1-1.2.592h0a.944.944,0,0,1-.592-1.2h0a.939.939,0,0,1,.9-.64h0A.885.885,0,0,1,329.024,697.847ZM42.448,699.756h-.007a.942.942,0,0,1-.579,1.2h0a.942.942,0,0,1-1.2-.579h0a.936.936,0,0,1,.58-1.2h0a.893.893,0,0,1,.308-.054h0A.954.954,0,0,1,42.448,699.756Zm285.471,1.3a.94.94,0,0,1,.567,1.207h0a.945.945,0,0,1-1.207.563h0a.946.946,0,0,1-.569-1.209h0a.95.95,0,0,1,.887-.623h0A.839.839,0,0,1,327.919,701.055ZM43.6,702.934a.945.945,0,0,1-.555,1.214h0a.94.94,0,0,1-1.215-.55h0a.943.943,0,0,1,.557-1.214h0a.883.883,0,0,1,.325-.061h0A.95.95,0,0,1,43.6,702.934Zm283.151,1.3a.947.947,0,0,1,.538,1.219h0a.935.935,0,0,1-1.221.538h0a.946.946,0,0,1-.538-1.221h0a.948.948,0,0,1,.877-.6h0A.979.979,0,0,1,326.746,704.233ZM44.809,706.088l.007.007h0a.947.947,0,0,1-.526,1.226h0a.95.95,0,0,1-1.226-.533h0a.933.933,0,0,1,.519-1.219h0a.922.922,0,0,1,.356-.073h0A.933.933,0,0,1,44.809,706.088Zm280.7,1.286a.948.948,0,0,1,.507,1.239h0a.944.944,0,0,1-1.233.507h0a.945.945,0,0,1-.507-1.233h0a.939.939,0,0,1,.87-.579h0A.969.969,0,0,1,325.508,707.373ZM46.1,709.211a.941.941,0,0,1-.494,1.239h0a.944.944,0,0,1-1.239-.5h0a.944.944,0,0,1,.5-1.238h0a1,1,0,0,1,.369-.08h0A.944.944,0,0,1,46.1,709.211Zm278.1,1.282a.948.948,0,0,1,.482,1.245h0a.943.943,0,0,1-1.243.484h0a.943.943,0,0,1-.483-1.246h0a.949.949,0,0,1,.863-.562h0A.958.958,0,0,1,324.2,710.492ZM47.462,712.3a.941.941,0,0,1-.472,1.251h0a.938.938,0,0,1-1.245-.466h0a.939.939,0,0,1,.472-1.25h0a.889.889,0,0,1,.387-.085h0A.939.939,0,0,1,47.462,712.3Zm275.351,1.275a.943.943,0,0,1,.453,1.257h.007a.955.955,0,0,1-1.257.453h0a.943.943,0,0,1-.453-1.257h0a.936.936,0,0,1,.851-.543h0A.942.942,0,0,1,322.813,713.579ZM48.894,715.367h0a.952.952,0,0,1-.448,1.263h0a.949.949,0,0,1-1.257-.441h0a.955.955,0,0,1,.441-1.263h0a1,1,0,0,1,.412-.09h0A.945.945,0,0,1,48.894,715.367Zm272.47,1.269a.948.948,0,0,1,.429,1.263h0a.944.944,0,0,1-1.27.422h0a.942.942,0,0,1-.422-1.262h0a.946.946,0,0,1,.846-.526h0A.951.951,0,0,1,321.364,716.636ZM50.392,718.394a.942.942,0,0,1-.417,1.268h0a.937.937,0,0,1-1.269-.41h0a.944.944,0,0,1,.417-1.269h0a.949.949,0,0,1,.422-.1h0A.95.95,0,0,1,50.392,718.394Zm269.455,1.262a.942.942,0,0,1,.4,1.275h0a.944.944,0,0,1-1.275.393h0a.941.941,0,0,1-.4-1.269h0a.933.933,0,0,1,.834-.507h0A.961.961,0,0,1,319.847,719.656Zm-267.89,1.735h0a.938.938,0,0,1-.387,1.275h0a.939.939,0,0,1-1.275-.381h0A.945.945,0,0,1,50.676,721h0a.988.988,0,0,1,.446-.109h0A.947.947,0,0,1,51.957,721.391Zm266.306,1.251a.955.955,0,0,1,.369,1.286h0a.955.955,0,0,1-1.287.369h0a.956.956,0,0,1-.369-1.287h0a.952.952,0,0,1,.828-.484h0A.959.959,0,0,1,318.263,722.642Zm-264.675,1.7h0a.94.94,0,0,1-.356,1.287h0a.938.938,0,0,1-1.287-.356h0A.94.94,0,0,1,52.3,724h0a.926.926,0,0,1,.466-.128h0A.957.957,0,0,1,53.588,724.345Zm263.02,1.251a.947.947,0,0,1,.344,1.292h-.005a.945.945,0,0,1-1.287.339h0a.947.947,0,0,1-.345-1.292h0a.958.958,0,0,1,.822-.466h0A.967.967,0,0,1,316.608,725.6ZM55.286,727.263a.947.947,0,0,1-.332,1.3h0a.944.944,0,0,1-1.294-.332h0a.951.951,0,0,1,.327-1.292h0a.952.952,0,0,1,.483-.134h0A.941.941,0,0,1,55.286,727.263Zm259.606,1.251a.946.946,0,0,1,.308,1.3h0a.943.943,0,0,1-1.292.308h0a.944.944,0,0,1-.315-1.3h0a.938.938,0,0,1,.8-.446h0A.929.929,0,0,1,314.892,728.515ZM57.044,730.146h0a.94.94,0,0,1-.3,1.3h0a.949.949,0,0,1-1.306-.3h.007a.941.941,0,0,1,.3-1.3h0a.941.941,0,0,1,.5-.146h0A.945.945,0,0,1,57.044,730.146Zm256.06,1.243a.944.944,0,0,1,.284,1.306h0a.946.946,0,0,1-1.306.284h0a.945.945,0,0,1-.278-1.3h0a.947.947,0,0,1,.792-.436h0A.929.929,0,0,1,313.1,731.389Zm-254.236,1.6a.935.935,0,0,1-.266,1.3h0a.947.947,0,0,1-1.311-.266h0a.944.944,0,0,1,.272-1.306h0a.929.929,0,0,1,.519-.157h0A.924.924,0,0,1,58.868,732.986Zm252.392,1.243a.942.942,0,0,1,.254,1.306v.005a.943.943,0,0,1-1.311.248h0a.933.933,0,0,1-.254-1.306h0a.936.936,0,0,1,.78-.416h0A.966.966,0,0,1,311.26,734.229Zm-250.5,1.553a.942.942,0,0,1-.242,1.311h0a.936.936,0,0,1-1.311-.242v.007a.954.954,0,0,1,.235-1.318h0a.982.982,0,0,1,.539-.162h0A.942.942,0,0,1,60.76,735.782Zm248.587,1.245a.936.936,0,0,1,.223,1.311h0a.934.934,0,0,1-1.311.224h0a.939.939,0,0,1-.223-1.311h0a.93.93,0,0,1,.766-.4h0A.909.909,0,0,1,309.346,737.026Zm-246.641,1.51h0a.945.945,0,0,1-.206,1.318h0a.945.945,0,0,1-1.318-.211h0a.944.944,0,0,1,.206-1.318h0a.953.953,0,0,1,.557-.181h0A.94.94,0,0,1,62.706,738.537Zm244.671,1.239a.946.946,0,0,1,.194,1.323h0a.939.939,0,0,1-1.318.194h0a.939.939,0,0,1-.194-1.318h0a.918.918,0,0,1,.756-.381h0A.976.976,0,0,1,307.377,739.776Zm-242.66,1.468a.943.943,0,0,1-.181,1.323h0a.936.936,0,0,1-1.318-.181h-.005a.949.949,0,0,1,.181-1.323h0a.952.952,0,0,1,.569-.187h0A.945.945,0,0,1,64.717,741.244Zm240.629,1.245a.94.94,0,0,1,.163,1.323h0a.943.943,0,0,1-1.323.163h0a.944.944,0,0,1-.169-1.323h0a.953.953,0,0,1,.749-.363h0A.962.962,0,0,1,305.346,742.488Zm-238.557,1.42a.946.946,0,0,1-.15,1.323h0a.943.943,0,0,1-1.33-.151h0a.947.947,0,0,1,.151-1.323h0a.94.94,0,0,1,.586-.2h0A.945.945,0,0,1,66.789,743.908Zm236.461,1.245a.933.933,0,0,1,.133,1.323h0a.941.941,0,0,1-1.323.139h0a.95.95,0,0,1-.139-1.33h0a.94.94,0,0,1,.732-.344h0A.93.93,0,0,1,303.25,745.153ZM68.915,746.525a.945.945,0,0,1-.12,1.328h0a.946.946,0,0,1-1.33-.121h0a.945.945,0,0,1,.121-1.328h0a.945.945,0,0,1,.6-.218h0A.936.936,0,0,1,68.915,746.525Zm232.177,1.243a.94.94,0,0,1,.109,1.33h0a.939.939,0,0,1-1.328.109h0a.94.94,0,0,1-.109-1.33h0a.931.931,0,0,1,.719-.332h0A.932.932,0,0,1,301.092,747.768ZM71.1,749.093a.938.938,0,0,1-.1,1.328h0a.938.938,0,0,1-1.328-.09h0a.939.939,0,0,1,.09-1.33h0a.951.951,0,0,1,.622-.235h0A.959.959,0,0,1,71.1,749.093Zm227.779,1.245a.941.941,0,0,1,.078,1.335h0a.939.939,0,0,1-1.33.072h0a.944.944,0,0,1-.078-1.328h0a.959.959,0,0,1,.707-.315h0A.926.926,0,0,1,298.882,750.337ZM73.344,751.611h0a.947.947,0,0,1-.065,1.336h0a.94.94,0,0,1-1.33-.068h0a.937.937,0,0,1,.06-1.328h0a.932.932,0,0,1,.635-.248h0A.938.938,0,0,1,73.344,751.611Zm223.272,1.251a.937.937,0,0,1,.049,1.328h0a.946.946,0,0,1-1.336.049h0a.951.951,0,0,1-.048-1.335h0a.947.947,0,0,1,.695-.3h0A.939.939,0,0,1,296.616,752.863ZM75.641,754.077a.945.945,0,0,1-.036,1.335h0a.951.951,0,0,1-1.336-.031h0a.944.944,0,0,1,.037-1.335h0a.928.928,0,0,1,.652-.259h0A.951.951,0,0,1,75.641,754.077Zm218.655,1.25a.951.951,0,0,1,.019,1.336h0a.944.944,0,0,1-1.335.017h0a.944.944,0,0,1-.019-1.335h0a.943.943,0,0,1,.677-.283h0A.967.967,0,0,1,294.3,755.327ZM77.99,756.494a.944.944,0,0,1-.005,1.335h0a.945.945,0,0,1-1.335,0h0a.956.956,0,0,1,.005-1.342h0a.946.946,0,0,1,.664-.272h0A.966.966,0,0,1,77.99,756.494Zm0,0Zm213.925,1.25a.944.944,0,0,1-.012,1.335h0a.944.944,0,0,1-1.335-.012h0a.95.95,0,0,1,.012-1.335h0a.952.952,0,0,1,.664-.272h0A.936.936,0,0,1,291.915,757.744ZM80.395,758.856a.944.944,0,0,1,.025,1.335h0a.946.946,0,0,1-1.336.024h0a.937.937,0,0,1-.024-1.328h0a.933.933,0,0,1,.677-.291h0A.954.954,0,0,1,80.395,758.856Zm209.092,1.257a.951.951,0,0,1-.043,1.335v-.005a.949.949,0,0,1-1.335-.037h0a.945.945,0,0,1,.043-1.335h0a.917.917,0,0,1,.646-.26h0A.951.951,0,0,1,289.487,760.112ZM82.848,761.163A.946.946,0,0,1,82.9,762.5h0a.944.944,0,0,1-1.33.053h0a.945.945,0,0,1-.06-1.335h0a.953.953,0,0,1,.695-.3h0A.961.961,0,0,1,82.848,761.163ZM287,762.42a.947.947,0,0,1-.066,1.336h0a.951.951,0,0,1-1.335-.073h0a.945.945,0,0,1,.072-1.335h0a.934.934,0,0,1,.628-.242h0A.94.94,0,0,1,287,762.42Zm-201.642,1h-.007a.946.946,0,0,1,.085,1.335h0a.945.945,0,0,1-1.33.085h0a.952.952,0,0,1-.085-1.335h0a.952.952,0,0,1,.713-.321h0A.959.959,0,0,1,85.356,763.417Zm199.11,1.257a.94.94,0,0,1-.1,1.33h0a.94.94,0,0,1-1.33-.1h0a.941.941,0,0,1,.1-1.33h0a.907.907,0,0,1,.611-.229h0A.942.942,0,0,1,284.466,764.674ZM87.9,765.617a.938.938,0,0,1,.114,1.328h0a.944.944,0,0,1-1.328.116h0a.947.947,0,0,1-.114-1.33h0a.947.947,0,0,1,.724-.339h0A.913.913,0,0,1,87.9,765.617Zm193.975,1.257a.941.941,0,0,1-.133,1.328h0a.938.938,0,0,1-1.323-.126h0a.947.947,0,0,1,.128-1.33h0a.948.948,0,0,1,.6-.218h0A.952.952,0,0,1,281.88,766.873Zm-191.37.882a.942.942,0,0,1,.145,1.323h0a.947.947,0,0,1-1.33.145h0a.94.94,0,0,1-.145-1.323h0a.933.933,0,0,1,.737-.356h0A.946.946,0,0,1,90.51,767.755Zm188.737,1.257a.951.951,0,0,1-.158,1.33h0a.951.951,0,0,1-1.328-.163h0a.941.941,0,0,1,.162-1.323h0a.932.932,0,0,1,.58-.2h0A.952.952,0,0,1,279.247,769.012Zm-186.091.822h0a.936.936,0,0,1,.175,1.322h0a.947.947,0,0,1-1.323.175v-.005a.94.94,0,0,1-.175-1.316h0a.931.931,0,0,1,.749-.376h0A.927.927,0,0,1,93.156,769.834ZM276.564,771.1a.944.944,0,0,1-.187,1.323h0a.946.946,0,0,1-1.323-.193h0a.944.944,0,0,1,.193-1.318h0a.94.94,0,0,1,.562-.193h0A.935.935,0,0,1,276.564,771.1Zm-180.715.756h0a.931.931,0,0,1,.2,1.316h0a.937.937,0,0,1-1.316.206h0a.944.944,0,0,1-.2-1.318h0a.933.933,0,0,1,.761-.387h0A.95.95,0,0,1,95.849,771.852Zm177.99,1.268a.947.947,0,0,1-.218,1.316h0a.942.942,0,0,1-1.318-.223h0a.949.949,0,0,1,.218-1.318h0a.974.974,0,0,1,.55-.175h0A.934.934,0,0,1,273.84,773.12Zm-175.253.695a.94.94,0,0,1,.235,1.311h0a.947.947,0,0,1-1.316.235h0a.952.952,0,0,1-.236-1.316h0a.96.96,0,0,1,.78-.405h0A.932.932,0,0,1,98.587,773.815Zm172.479,1.263a.941.941,0,0,1-.248,1.31h0a.943.943,0,0,1-1.311-.247h0a.949.949,0,0,1,.248-1.311h0a.96.96,0,0,1,.531-.163h0A.941.941,0,0,1,271.066,775.078Zm-169.7.634v-.005h0a.95.95,0,0,1,.266,1.311h0a.943.943,0,0,1-1.311.259h0a.936.936,0,0,1-.259-1.306h0a.94.94,0,0,1,.78-.422h0A.942.942,0,0,1,101.366,775.712Zm166.884,1.263a.947.947,0,0,1-.278,1.311h0a.944.944,0,0,1-1.3-.279h0a.952.952,0,0,1,.278-1.311h0a.953.953,0,0,1,.513-.15h0A.94.94,0,0,1,268.25,776.975Zm-164.063.567h0a.949.949,0,0,1,.291,1.306h0a.952.952,0,0,1-1.306.29h0a.953.953,0,0,1-.29-1.306h0a.958.958,0,0,1,.8-.434h0A.962.962,0,0,1,104.187,777.542Zm161.206,1.268a.937.937,0,0,1-.308,1.3h0a.941.941,0,0,1-1.3-.3h0a.947.947,0,0,1,.308-1.3h0a.939.939,0,0,1,.5-.145h0A.946.946,0,0,1,265.393,778.811Zm-158.347.5a.945.945,0,0,1,.32,1.3h0a.944.944,0,0,1-1.294.32h0a.951.951,0,0,1-.32-1.3h0a.949.949,0,0,1,.81-.453h0A.948.948,0,0,1,107.046,779.313ZM262.5,780.588a.944.944,0,0,1-.339,1.287h0a.946.946,0,0,1-1.292-.333h0a.945.945,0,0,1,.339-1.292h0a.919.919,0,0,1,.477-.133h0A.953.953,0,0,1,262.5,780.588Zm-152.553.434a.941.941,0,0,1,.351,1.287h0a.944.944,0,0,1-1.287.351h0a.944.944,0,0,1-.351-1.287h0a.934.934,0,0,1,.816-.477h0A.962.962,0,0,1,109.945,781.023Zm149.611,1.269a.95.95,0,0,1-.363,1.287h0a.95.95,0,0,1-1.287-.368h0a.94.94,0,0,1,.369-1.282h0a.907.907,0,0,1,.458-.121h0A.942.942,0,0,1,259.556,782.291Zm-146.674.375a.944.944,0,0,1,.375,1.275h0a.947.947,0,0,1-1.282.381h0a.95.95,0,0,1-.375-1.282h0a.94.94,0,0,1,.828-.489h0A.96.96,0,0,1,112.882,782.666Zm143.7,1.27a.947.947,0,0,1-.392,1.274h0a.954.954,0,0,1-1.282-.392h0a.941.941,0,0,1,.4-1.275h0a.882.882,0,0,1,.44-.109h0A.938.938,0,0,1,256.583,783.936Zm-140.735.3a.944.944,0,0,1,.405,1.274h0a.945.945,0,0,1-1.27.405h0a.954.954,0,0,1-.405-1.274h0a.951.951,0,0,1,.841-.507h0A.91.91,0,0,1,115.848,784.237Zm137.721,1.269a.953.953,0,0,1-.424,1.269h0a.942.942,0,0,1-1.262-.422h0a.943.943,0,0,1,.416-1.268h0a.985.985,0,0,1,.424-.1h0A.948.948,0,0,1,253.57,785.506Zm-134.719.242a.941.941,0,0,1,.436,1.263h0a.94.94,0,0,1-1.257.429h0a.935.935,0,0,1-.436-1.258h0a.936.936,0,0,1,.846-.531h0A.908.908,0,0,1,118.85,785.747Zm131.667,1.263a.939.939,0,0,1-.446,1.257h0a.942.942,0,0,1-1.257-.448h0a.945.945,0,0,1,.453-1.257h0a.947.947,0,0,1,.4-.09h0A.933.933,0,0,1,250.517,787.011Zm-128.628.175a.944.944,0,0,1,.465,1.25h0a.952.952,0,0,1-1.257.465h0a.943.943,0,0,1-.458-1.25h0a.933.933,0,0,1,.857-.55h0A.893.893,0,0,1,121.889,787.186Zm125.547,1.262a.935.935,0,0,1-.478,1.245h0a.944.944,0,0,1-1.243-.477h0a.946.946,0,0,1,.477-1.245h0a.97.97,0,0,1,.387-.085h0A.941.941,0,0,1,247.437,788.448Zm-122.478.109h0a.942.942,0,0,1,.489,1.239h0a.948.948,0,0,1-1.245.494h0a.949.949,0,0,1-.489-1.243h0a.945.945,0,0,1,.87-.569h0A.948.948,0,0,1,124.959,788.557Zm119.365,1.257a.945.945,0,0,1-.507,1.238h0a.942.942,0,0,1-1.233-.507h0a.942.942,0,0,1,.507-1.233h0a.867.867,0,0,1,.363-.072h0A.946.946,0,0,1,244.325,789.813Zm-116.272.042a.951.951,0,0,1,.519,1.233h0a.951.951,0,0,1-1.233.519h0a.943.943,0,0,1-.514-1.233h0a.935.935,0,0,1,.87-.586h0A1.038,1.038,0,0,1,128.053,789.856Zm113.124,1.257a.945.945,0,0,1-.531,1.227h0a.941.941,0,0,1-1.219-.539h0a.939.939,0,0,1,.531-1.219h0a.989.989,0,0,1,.344-.066h0A.942.942,0,0,1,241.177,791.112Zm-109.989-.019a.943.943,0,0,1,.545,1.214h0a.94.94,0,0,1-1.214.55h0a.947.947,0,0,1-.55-1.219h0a.949.949,0,0,1,.882-.6h0A.923.923,0,0,1,131.188,791.094Zm106.818,1.251a.944.944,0,0,1-.562,1.209h0a.945.945,0,0,1-1.209-.563h0a.938.938,0,0,1,.562-1.207h0a.862.862,0,0,1,.325-.061h0A.941.941,0,0,1,238.006,792.345Zm-103.658-.085h0a.943.943,0,0,1,.574,1.2h0a.941.941,0,0,1-1.2.574h0a.942.942,0,0,1-.574-1.2h0a.946.946,0,0,1,.887-.628h0A.964.964,0,0,1,134.348,792.26ZM234.8,793.5a.945.945,0,0,1-.586,1.2h0a.947.947,0,0,1-1.2-.591h0a.94.94,0,0,1,.587-1.2h0a.886.886,0,0,1,.3-.049h0A.946.946,0,0,1,234.8,793.5Zm-97.266-.145a.937.937,0,0,1,.6,1.189h0a.941.941,0,0,1-1.19.6h0a.94.94,0,0,1-.6-1.19h0a.95.95,0,0,1,.894-.647h0A.993.993,0,0,1,137.537,793.355Zm94.04,1.226a.932.932,0,0,1-.616,1.178h0a.944.944,0,0,1-1.185-.611h0a.946.946,0,0,1,.618-1.183h0a.953.953,0,0,1,.283-.049h0A.942.942,0,0,1,231.577,794.581Zm-90.825-.206a.942.942,0,0,1,.623,1.178h0a.946.946,0,0,1-1.178.628h0a.952.952,0,0,1-.623-1.184h0a.938.938,0,0,1,.9-.666h0A.893.893,0,0,1,140.751,794.375Zm87.587,1.209a.949.949,0,0,1-.64,1.172h0a.948.948,0,0,1-1.173-.647h0a.941.941,0,0,1,.642-1.165h0a1.045,1.045,0,0,1,.266-.036h0A.942.942,0,0,1,228.338,795.583Zm-84.354-.26a.943.943,0,0,1,.652,1.166h0a.946.946,0,0,1-1.166.652h0a.954.954,0,0,1-.652-1.165h0a.947.947,0,0,1,.913-.689h0A.928.928,0,0,1,143.984,795.323Zm81.092,1.2a.943.943,0,0,1-.671,1.153h0a.947.947,0,0,1-1.154-.669h0a.948.948,0,0,1,.671-1.154h0a.838.838,0,0,1,.242-.031h0A.947.947,0,0,1,225.076,796.52Zm-77.835-.32h0a.945.945,0,0,1,.676,1.148h0a.935.935,0,0,1-1.148.676h0a.934.934,0,0,1-.677-1.148h0a.943.943,0,0,1,.913-.707h0A1.042,1.042,0,0,1,147.241,796.2Zm74.554,1.178a.942.942,0,0,1-.695,1.136h0a.945.945,0,0,1-1.142-.695h0a.945.945,0,0,1,.7-1.136h0v-.007h0a1.491,1.491,0,0,1,.223-.024h0A.945.945,0,0,1,221.8,797.378ZM150.509,797a.94.94,0,0,1,.707,1.129h0a.938.938,0,0,1-1.129.708h0a.942.942,0,0,1-.707-1.136h0a.947.947,0,0,1,.918-.725h0A.815.815,0,0,1,150.509,797Zm67.988,1.154a.941.941,0,0,1-.719,1.122h0a.934.934,0,0,1-1.125-.719h0a.941.941,0,0,1,.72-1.124h0a1.128,1.128,0,0,1,.2-.019h0A.943.943,0,0,1,218.5,798.158Zm-64.7-.429a.948.948,0,0,1,.732,1.117h0a.945.945,0,0,1-1.118.731h0a.943.943,0,0,1-.731-1.117h0a.945.945,0,0,1,.924-.749h0A.963.963,0,0,1,153.8,797.729Zm61.378,1.141a.949.949,0,0,1-.744,1.107h0a.935.935,0,0,1-1.105-.744h0a.94.94,0,0,1,.737-1.105h0a1.039,1.039,0,0,1,.187-.019h0A.943.943,0,0,1,215.18,798.87Zm-58.073-.484a.942.942,0,0,1,.756,1.1h0a.94.94,0,0,1-1.1.756h0a.942.942,0,0,1-.756-1.1h0a.949.949,0,0,1,.924-.773h0A.83.83,0,0,1,157.107,798.386Zm54.738,1.118a.944.944,0,0,1-.768,1.093h0a.954.954,0,0,1-1.093-.773h0a.948.948,0,0,1,.773-1.088h0a.759.759,0,0,1,.163-.017h0A.942.942,0,0,1,211.845,799.5Zm-51.415-.538a.944.944,0,0,1,.78,1.081h0a.946.946,0,0,1-1.088.78h0a.948.948,0,0,1-.78-1.081h0a.946.946,0,0,1,.936-.792h0A.67.67,0,0,1,160.43,798.967Zm48.073,1.1a.942.942,0,0,1-.8,1.069h0a.937.937,0,0,1-1.069-.792h0a.937.937,0,0,1,.792-1.069h0a.6.6,0,0,1,.145-.012h0A.95.95,0,0,1,208.5,800.066Zm-44.744-.6a.945.945,0,0,1,.8,1.068h0a.945.945,0,0,1-1.064.8h0a.945.945,0,0,1-.8-1.063h0a.942.942,0,0,1,.931-.816h0C163.674,799.462,163.716,799.469,163.759,799.469Zm41.386,1.081a.946.946,0,0,1-.816,1.057h0a.946.946,0,0,1-1.057-.822h0a.943.943,0,0,1,.816-1.051h.005a.705.705,0,0,1,.121-.007h0A.938.938,0,0,1,205.145,800.55Zm-38.039-.647a.938.938,0,0,1,.821,1.045h0a.938.938,0,0,1-1.045.828h0a.939.939,0,0,1-.828-1.045h0a.946.946,0,0,1,.936-.833h0A.871.871,0,0,1,167.106,799.9Zm34.673,1.057a.948.948,0,0,1-.839,1.039h0a.948.948,0,0,1-1.039-.845h0a.942.942,0,0,1,.839-1.033h0a.5.5,0,0,1,.1-.007h0A.953.953,0,0,1,201.779,800.961Zm-31.325-.7a.944.944,0,0,1,.851,1.028h0a.942.942,0,0,1-1.027.851h0a.949.949,0,0,1-.853-1.033h0a.95.95,0,0,1,.943-.852h0A.494.494,0,0,1,170.454,800.259ZM198.4,801.3a.943.943,0,0,1-.865,1.016h0a.942.942,0,0,1-1.015-.865h0a.941.941,0,0,1,.865-1.015h-.007a.419.419,0,0,1,.078-.005h0A.948.948,0,0,1,198.4,801.3Zm-24.591-.761a.957.957,0,0,1,.877,1.016h0a.949.949,0,0,1-1.01.87h0a.95.95,0,0,1-.875-1.009h0a.948.948,0,0,1,.943-.877h.065Zm21.208,1.021a.939.939,0,0,1-.882,1h0a.941.941,0,0,1-1-.889h0a.94.94,0,0,1,.882-1h.061A.941.941,0,0,1,195.019,801.558Zm-17.842-.809a.944.944,0,0,1,.894.991h0a.939.939,0,0,1-.984.894h0a.95.95,0,0,1-.9-.991h0a.946.946,0,0,1,.943-.894h.048Zm14.457.991a.945.945,0,0,1-.906.979h0a.946.946,0,0,1-.979-.907h0a.946.946,0,0,1,.906-.979h.037A.945.945,0,0,1,191.635,801.74Zm-11.086-.858a.935.935,0,0,1,.913.966h0a.945.945,0,0,1-.967.919h0a.953.953,0,0,1-.918-.972h0a.945.945,0,0,1,.942-.913h.031Zm7.7.966a.947.947,0,0,1-.931.962h0a.949.949,0,0,1-.96-.93h0a.943.943,0,0,1,.931-.955h.012A.945.945,0,0,1,188.246,801.848Zm-4.332-.911a.942.942,0,0,1,.936.954h0a.943.943,0,0,1-.95.936h0a.949.949,0,0,1-.936-.954h0a.947.947,0,0,1,.943-.936h.007Z" transform="translate(-32.201 -497.407)"/>
          </g>
        </g>
      </g>
    </g>
    <g id="Grupo_206" data-name="Grupo 206" transform="translate(373 -172)">
      <path id="Trazado_161" data-name="Trazado 161" d="M333.148,1201.4V473.346h-28V1201.4Z" transform="translate(1401.816 388.602)" fill="url(#linear-gradient)"/>
      <path id="Trazado_196" data-name="Trazado 196" d="M333.148,473.346v620h-28v-620Z" transform="translate(1401.816 1116.654)" fill="url(#linear-gradient-2)"/>
    </g>
    <g class="puntos" data-name="Grupo 207" transform="translate(2091.036 902.601)">
      <path id="Trazado_180" data-name="Trazado 180" d="M1.5,0A1.5,1.5,0,1,1,0,1.5,1.5,1.5,0,0,1,1.5,0Z" transform="translate(0.928 0.399)" fill="#5933a8" opacity="0.35"/>
      <path id="Trazado_181" data-name="Trazado 181" d="M1.5,0A1.5,1.5,0,1,1,0,1.5,1.5,1.5,0,0,1,1.5,0Z" transform="translate(0.928 68.399)" fill="#5933a8" opacity="0.35"/>
      <path id="Trazado_182" data-name="Trazado 182" d="M1.5,0A1.5,1.5,0,1,1,0,1.5,1.5,1.5,0,0,1,1.5,0Z" transform="translate(0.928 137.399)" fill="#5933a8" opacity="0.35"/>
      <path id="Trazado_183" data-name="Trazado 183" d="M1.5,0A1.5,1.5,0,1,1,0,1.5,1.5,1.5,0,0,1,1.5,0Z" transform="translate(0.928 205.399)" fill="#5933a8" opacity="0.35"/>
      <path id="Trazado_184" data-name="Trazado 184" d="M1.5,0A1.5,1.5,0,1,1,0,1.5,1.5,1.5,0,0,1,1.5,0Z" transform="translate(0.928 274.399)" fill="#5933a8" opacity="0.35"/>
      <path id="Trazado_185" data-name="Trazado 185" d="M1.5,0A1.5,1.5,0,1,1,0,1.5,1.5,1.5,0,0,1,1.5,0Z" transform="translate(0.928 342.399)" fill="#5933a8" opacity="0.35"/>
      <path id="Trazado_186" data-name="Trazado 186" d="M1.5,0A1.5,1.5,0,1,1,0,1.5,1.5,1.5,0,0,1,1.5,0Z" transform="translate(0.928 411.399)" fill="#5933a8" opacity="0.35"/>
      <path id="Trazado_187" data-name="Trazado 187" d="M1.5,0A1.5,1.5,0,1,1,0,1.5,1.5,1.5,0,0,1,1.5,0Z" transform="translate(0.928 479.399)" fill="#5933a8" opacity="0.35"/>
      <path id="Trazado_188" data-name="Trazado 188" d="M1.5,0A1.5,1.5,0,1,1,0,1.5,1.5,1.5,0,0,1,1.5,0Z" transform="translate(0.928 548.399)" fill="#5933a8" opacity="0.35"/>
      <path id="Trazado_189" data-name="Trazado 189" d="M1.5,0A1.5,1.5,0,1,1,0,1.5,1.5,1.5,0,0,1,1.5,0Z" transform="translate(0.928 616.399)" fill="#5933a8" opacity="0.35"/>
      <path id="Trazado_190" data-name="Trazado 190" d="M1.5,0A1.5,1.5,0,1,1,0,1.5,1.5,1.5,0,0,1,1.5,0Z" transform="translate(0.928 685.399)" fill="#5933a8" opacity="0.35"/>
      <path id="Trazado_191" data-name="Trazado 191" d="M1.5,0A1.5,1.5,0,1,1,0,1.5,1.5,1.5,0,0,1,1.5,0Z" transform="translate(0.928 753.399)" fill="#5933a8" opacity="0.35"/>
      <path id="Trazado_192" data-name="Trazado 192" d="M1.5,0A1.5,1.5,0,1,1,0,1.5,1.5,1.5,0,0,1,1.5,0Z" transform="translate(0.928 822.399)" fill="#5933a8" opacity="0.35"/>
      <path id="Trazado_193" data-name="Trazado 193" d="M1.5,0A1.5,1.5,0,1,1,0,1.5,1.5,1.5,0,0,1,1.5,0Z" transform="translate(0.928 890.399)" fill="#5933a8" opacity="0.35"/>
      <path id="Trazado_194" data-name="Trazado 194" d="M1.5,0A1.5,1.5,0,1,1,0,1.5,1.5,1.5,0,0,1,1.5,0Z" transform="translate(0.928 959.399)" fill="#5933a8" opacity="0.35"/>
      <path id="Trazado_195" data-name="Trazado 195" d="M1.5,0A1.5,1.5,0,1,1,0,1.5,1.5,1.5,0,0,1,1.5,0Z" transform="translate(0.928 1027.399)" fill="#5933a8" opacity="0.35"/>
    </g>
  </g>
</svg>
