<svg xmlns="http://www.w3.org/2000/svg" width="32" height="32" viewBox="0 0 32 32">
  <g id="icon-whatsapp" transform="translate(-119 -399)">
    <g id="Grupo_130" data-name="Grupo 130" transform="translate(124 404)">
      <path id="Trazado_138" data-name="Trazado 138" d="M95.806,424.25l1.591-5.937a10.987,10.987,0,1,1,4.376,4.338Zm6.264-3.823.376.224a8.922,8.922,0,1,0-3.051-3.024l.23.379-.888,3.315Z" transform="translate(-95.806 -402.056)" fill="#5a30bc"/>
      <path id="Trazado_139" data-name="Trazado 139" d="M114.555,418.08a1.841,1.841,0,0,0-1.57-.354c-.408.167-.668.8-.932,1.131a.391.391,0,0,1-.506.11,7.107,7.107,0,0,1-3.549-3.04.435.435,0,0,1,.055-.594,2.4,2.4,0,0,0,.645-1.047,2.286,2.286,0,0,0-.288-1.238,2.936,2.936,0,0,0-.915-1.379,1.253,1.253,0,0,0-1.361.2,2.763,2.763,0,0,0-.957,2.189,3.1,3.1,0,0,0,.086.694,5.755,5.755,0,0,0,.666,1.536,12.057,12.057,0,0,0,.7,1.058,10.742,10.742,0,0,0,3.017,2.8,9.142,9.142,0,0,0,1.882.894,4.182,4.182,0,0,0,2.19.346,2.65,2.65,0,0,0,1.985-1.477,1.282,1.282,0,0,0,.092-.754C115.678,418.639,114.974,418.331,114.555,418.08Z" transform="translate(-99.299 -405.593)" fill-rule="evenodd" fill="#5a30bc"/>
    </g>
  </g>
</svg>
