<svg xmlns="http://www.w3.org/2000/svg" width="32" height="32" viewBox="0 0 32 32">
  <g id="vuesax_linear_location" data-name="vuesax/linear/location" transform="translate(-428 -188)">
    <g id="location" transform="translate(428 188)">
      <path id="Vector" d="M8.32,4.16A4.16,4.16,0,1,1,4.16,0,4.16,4.16,0,0,1,8.32,4.16Z" transform="translate(11.84 9.587)" fill="none" stroke="#fff" stroke-width="2"/>
      <path id="Vector-2" data-name="Vector" d="M.324,8.653C2.95-2.893,20.057-2.88,22.67,8.667,24.2,15.44,19.99,21.173,16.3,24.72a6.925,6.925,0,0,1-9.613,0C3,21.173-1.21,15.427.324,8.653Z" transform="translate(4.503 2.667)" fill="none" stroke="#fff" stroke-width="2"/>
      <path id="Vector-3" data-name="Vector" d="M0,0H32V32H0Z" transform="translate(32 32) rotate(180)" fill="none" opacity="0"/>
    </g>
  </g>
</svg>
