<svg xmlns="http://www.w3.org/2000/svg" width="24" height="24" viewBox="0 0 24 24">
  <g id="Grupo_16238" data-name="Grupo 16238" transform="translate(-114)">
    <path id="Trazado_5791" data-name="Trazado 5791" d="M29,17.1A11.8,11.8,0,0,1,11.523,27.333L5,29.406l2.127-6.273A11.568,11.568,0,0,1,5.436,17.1,11.782,11.782,0,0,1,29,17.1" transform="translate(109 -5.406)" fill="#fff"/>
    <path id="Trazado_5792" data-name="Trazado 5792" d="M25.325,21.907c-.073-.119-.265-.191-.554-.334s-1.709-.837-1.973-.932-.458-.144-.65.143-.746.932-.915,1.123-.337.216-.626.072a7.9,7.9,0,0,1-2.322-1.422,8.64,8.64,0,0,1-1.607-1.984c-.168-.287-.018-.442.127-.584s.289-.335.433-.5a1.921,1.921,0,0,0,.289-.478.522.522,0,0,0-.024-.5c-.072-.143-.65-1.553-.891-2.127s-.481-.478-.65-.478-.361-.024-.554-.024a1.066,1.066,0,0,0-.77.358,3.2,3.2,0,0,0-1.01,2.39,5.547,5.547,0,0,0,1.179,2.964,11.806,11.806,0,0,0,4.933,4.326c2.936,1.147,2.936.764,3.466.716a2.921,2.921,0,0,0,1.95-1.362,2.389,2.389,0,0,0,.168-1.363" transform="translate(106.372 -7.524)" fill="#67c15e"/>
  </g>
</svg>
