<svg xmlns="http://www.w3.org/2000/svg" width="32" height="32" viewBox="0 0 32 32">
  <g id="icon-instagram" transform="translate(-211 -396)">
    <rect id="Rectángulo_102" data-name="Rectángulo 102" width="32" height="32" transform="translate(211 396)" fill="#fff" opacity="0"/>
    <g id="Grupo_202" data-name="Grupo 202" transform="translate(216 401)">
      <g id="Grupo_128" data-name="Grupo 128">
        <path id="Trazado_134" data-name="Trazado 134" d="M259.647,408.374a1.3,1.3,0,1,0,1.3,1.3A1.3,1.3,0,0,0,259.647,408.374Z" transform="translate(-242.674 -404.411)"/>
        <path id="Trazado_135" data-name="Trazado 135" d="M247.95,411.034a5.465,5.465,0,1,0,5.465,5.465A5.472,5.472,0,0,0,247.95,411.034Zm0,8.967a3.5,3.5,0,1,1,3.5-3.5A3.505,3.505,0,0,1,247.95,420Z" transform="translate(-236.762 -405.402)"/>
        <path id="Trazado_136" data-name="Trazado 136" d="M248.889,424.25h-8.861a6.674,6.674,0,0,1-6.666-6.667v-8.861a6.674,6.674,0,0,1,6.666-6.667h8.861a6.675,6.675,0,0,1,6.667,6.667v8.861A6.674,6.674,0,0,1,248.889,424.25Zm-8.861-20.106a4.583,4.583,0,0,0-4.579,4.579v8.861a4.583,4.583,0,0,0,4.579,4.578h8.861a4.584,4.584,0,0,0,4.579-4.578v-8.861a4.584,4.584,0,0,0-4.579-4.579Z" transform="translate(-233.362 -402.056)"/>
      </g>
    </g>
  </g>
</svg>
