<?xml version="1.0" encoding="UTF-8"?>
<!DOCTYPE svg PUBLIC "-//W3C//DTD SVG 1.1//EN" "http://www.w3.org/Graphics/SVG/1.1/DTD/svg11.dtd">
<!-- Creator: CorelDRAW X7 -->
<svg xmlns="http://www.w3.org/2000/svg" xml:space="preserve" width="100%" height="100%" version="1.1" style="shape-rendering:geometricPrecision; text-rendering:geometricPrecision; image-rendering:optimizeQuality; fill-rule:evenodd; clip-rule:evenodd"
viewBox="0 0 7379 2075"
 xmlns:xlink="http://www.w3.org/1999/xlink">
 <defs>
  <style type="text/css">
   <![CDATA[
    .fil1 {fill:#44ffbd}
    .fil0 {fill:#ffffff;fill-rule:nonzero}

    .icono {fill:#44FFBD}
    .icono{-webkit-animation: icono 8000ms ease infinite; animation: icono 8000ms ease infinite; -webkit-transform-origin: 14% 50%; transform-origin: 14% 50%;}

    @-webkit-keyframes icono
    {
        0%{-webkit-transform: rotate(0deg); transform: rotate(0deg);}
        20%{-webkit-transform: rotate(360deg); transform: rotate(360deg);}
        80%{-webkit-transform: rotate(360deg); transform: rotate(360deg);}
        100%{-webkit-transform: rotate(360deg); transform: rotate(360deg);}
    }

    @keyframes icono
    {
        0%{-webkit-transform: rotate(0deg); transform: rotate(0deg);}
        20%{-webkit-transform: rotate(360deg); transform: rotate(360deg);}
        80%{-webkit-transform: rotate(360deg); transform: rotate(360deg);}
        100%{-webkit-transform: rotate(360deg); transform: rotate(360deg);}
    }

    .letras{-webkit-animation: anima 1000ms ease 1000ms forwards; animation: anima 1000ms ease 1000ms forwards; -webkit-transform: translate(-20%); transform: translate(-20%); -webkit-transform-origin: 50% 50%; transform-origin: 50% 50%; opacity: 0}

    @-webkit-keyframes anima
    {
        0%{-webkit-transform: translate(-20%); transform: translate(-20%); opacity: 0}
        100%{-webkit-transform: translate(0); transform: translate(0); opacity: 1}
    }

    @keyframes anima
    {
        0%{-webkit-transform: translate(-20%); transform: translate(-20%); opacity: 0}
        100%{-webkit-transform: translate(0); transform: translate(0); opacity: 1}
    }

    .letras:nth-child(2){-webkit-animation-delay: 0.25s; animation-delay: 0.25s;}

   ]]>
  </style>
 </defs>
 <g id="Capa_x0020_1">
  <path class="fil1 icono" d="M2056 1048l0 -28 -773 0 0 -15 757 -134 -5 -27 -752 132 0 -17 711 -259 -9 -27 -702 256 0 -23 636 -367 -14 -25 -622 360 0 -33 534 -448 -18 -21 -516 439 0 -28 -42 0 463 -544 -22 -18 -471 562 -26 0 373 -646 -24 -14 -381 660 -18 0 262 -722 -26 -9 -266 731 -15 0 135 -768 -27 -4 -136 772 -14 0 0 -783 -28 0 0 783 -13 0 -136 -768 -27 5 134 763 -16 0 -262 -722 -27 10 259 712 -20 0 -373 -646 -25 14 365 632 -29 0 -457 -544 -21 18 441 526 -40 0 0 37 -534 -448 -18 21 552 463 0 29 -636 -368 -14 24 650 376 0 20 -712 -259 -9 26 721 263 0 16 -758 -133 -4 27 762 135 0 15 -773 0 0 28 773 0 0 15 -758 134 5 28 753 -133 0 18 -712 259 10 26 702 -256 0 23 -636 368 14 24 622 -359 0 32 -534 448 18 22 516 -434 0 23 55 0 -456 544 21 18 472 -562 25 0 -373 646 24 14 381 -660 19 0 -263 721 26 9 266 -730 15 0 -135 767 27 5 137 -772 13 0 0 782 28 0 0 -782 14 0 135 767 28 -5 -135 -762 16 0 263 721 26 -10 -259 -711 21 0 373 646 24 -14 -365 -632 30 0 456 544 22 -18 -447 -526 26 0 0 -43 534 454 18 -22 -552 -463 0 -28 636 367 14 -24 -650 -375 0 -21 711 259 10 -26 -721 -263 0 -16 757 133 5 -27 -762 -135 0 -15 773 0zm-1028 195l-206 -205 206 -206 206 206 -206 205z"/>
   <path class="letras fil0" d="M2633 1097c-30,-23 -72,-37 -123,-43l-45 -4c-26,-3 -45,-9 -56,-18 -11,-9 -17,-22 -17,-38 0,-17 7,-32 23,-43 15,-11 36,-17 65,-17 30,0 53,6 68,18 15,12 24,27 25,44l91 0c-1,-47 -18,-82 -52,-106 -33,-24 -78,-36 -132,-36 -35,0 -67,5 -94,17 -27,11 -48,27 -63,48 -16,21 -23,47 -23,78 0,39 14,69 41,92 28,23 65,37 112,42l46 4c31,4 54,10 67,20 14,10 21,24 21,41 0,19 -10,34 -28,47 -18,12 -43,19 -75,19 -37,0 -64,-8 -81,-22 -16,-14 -25,-30 -26,-47l-93 0c2,46 20,83 55,109 34,26 82,39 144,39 39,0 73,-6 102,-18 30,-13 52,-30 69,-52 16,-22 25,-48 25,-78 0,-41 -15,-73 -46,-96zm2523 -156l0 -74 -150 0 0 -134 -95 0 0 134 -76 0 0 74 76 0 0 209 0 13 0 82 0 31 0 56 176 0 69 0 0 -87 -150 0 0 -73 0 -22 0 0 0 -209 150 0zm-2195 -89c-135,0 -245,110 -245,245 0,136 110,246 245,246 136,0 246,-110 246,-246 0,-135 -110,-245 -246,-245zm0 432l-186 -187 186 -186 187 186 -187 187zm2525 -405c-31,-12 -70,-18 -117,-18 -14,0 -30,1 -46,1 -16,1 -32,1 -47,2 -15,1 -29,2 -41,3l0 86c14,-1 30,-2 49,-3 18,0 37,-1 56,-2 20,0 37,-1 53,-1 29,0 51,8 66,23 15,14 22,36 22,65l0 8 -105 0c-40,0 -75,5 -104,16 -29,11 -51,27 -67,49 -16,22 -23,49 -23,82 0,31 7,58 20,81 14,22 33,39 58,51 25,11 55,17 88,17 33,0 60,-6 82,-17 23,-12 41,-29 53,-51 6,-9 11,-21 15,-33l0 89 79 0 0 -287c0,-44 -8,-78 -23,-104 -15,-26 -38,-45 -68,-57zm-62 375c-16,7 -33,10 -50,10 -30,0 -53,-7 -69,-21 -16,-14 -24,-32 -24,-56 0,-23 8,-42 24,-56 16,-15 39,-22 69,-22l107 0 0 48c-1,27 -7,49 -17,64 -11,16 -24,27 -40,33zm-791 -400l-4 0c-37,0 -68,8 -93,24 -25,16 -44,40 -56,71 -4,9 -7,19 -9,29l0 -111 -80 0 0 460 100 0 0 -272c0,-34 10,-60 30,-81 20,-20 46,-30 79,-30 32,0 57,10 75,29 18,20 27,46 27,78l0 276 100 0 0 -263c0,-68 -14,-121 -42,-157 -28,-35 -70,-53 -127,-53zm-405 30c-34,-21 -75,-32 -124,-32 -38,0 -72,7 -101,20 -28,13 -52,31 -71,54 -19,22 -33,47 -42,76 -9,28 -14,57 -14,87l0 16c0,30 5,59 14,87 9,28 23,53 42,76 19,22 43,40 73,54 29,14 64,21 104,21 37,0 70,-7 99,-19 29,-13 53,-31 72,-54 19,-23 32,-51 38,-82l-93 0c-5,19 -17,35 -38,49 -20,14 -46,21 -78,21 -32,0 -58,-7 -79,-21 -20,-14 -35,-33 -45,-57 -7,-18 -12,-38 -14,-60l356 0 0 -40c0,-40 -9,-77 -25,-112 -17,-34 -42,-62 -74,-84zm-199 73c20,-14 45,-21 75,-21 28,0 52,7 71,19 18,12 33,29 42,52 6,13 10,29 12,45l-255 0c3,-14 6,-27 11,-39 10,-24 25,-43 44,-56zm-369 313l-20 0 -128 -403 -95 0 150 460 28 0 43 0 28 0 41 0 24 0 130 -460 -89 0 -112 403zm-453 -537l0 76 60 0 0 518 101 0 0 -518 0 -76 -101 0 -60 0z"/>
   <path class="letras fil1" d="M6371 884c-30,-21 -70,-32 -119,-32 -38,0 -73,7 -103,20 -30,13 -57,31 -78,54 -22,22 -39,47 -52,76 -13,28 -22,57 -25,87l-2 16c-4,30 -3,59 3,87 5,28 16,53 32,76 16,22 38,40 66,54 28,14 61,21 101,21 37,0 71,-7 102,-19 30,-13 57,-31 79,-54 22,-23 38,-51 48,-82l-93 0c-7,19 -21,35 -44,49 -22,14 -49,21 -81,21 -32,0 -57,-7 -76,-21 -18,-14 -31,-33 -38,-57 -5,-18 -7,-38 -6,-60l355 0 5 -40c6,-40 2,-77 -10,-112 -12,-34 -33,-62 -64,-84zm-207 73c22,-14 47,-21 77,-21 28,0 51,7 69,19 17,12 29,29 36,52 4,13 6,29 6,45l-255 0c4,-14 9,-27 16,-39 12,-24 30,-43 51,-56zm1211 108l-33 262 -100 0 35 -276c5,-33 -2,-59 -18,-78 -17,-19 -40,-29 -70,-29 -33,0 -60,11 -83,32 -23,22 -36,51 -41,86l-1 10 -33 255 -99 0 75 -594 100 0 -27 215c15,-29 35,-52 59,-68 27,-18 58,-26 95,-26l5 0c54,0 92,18 115,54 23,37 30,89 21,157zm-561 98l96 0c-7,36 -21,68 -43,95 -23,27 -50,48 -83,62 -33,15 -69,23 -108,23 -39,0 -72,-7 -99,-20 -27,-14 -49,-32 -65,-55 -17,-22 -28,-48 -34,-76 -6,-28 -7,-57 -3,-87l1 -8 1 -7c3,-30 12,-59 25,-87 14,-29 31,-54 54,-77 22,-23 48,-41 79,-54 30,-13 65,-20 103,-20 40,0 74,7 103,22 29,15 51,36 67,63 15,27 21,58 19,94l-96 0c0,-25 -9,-47 -27,-65 -17,-17 -43,-26 -77,-26 -29,0 -55,7 -76,20 -21,14 -38,33 -51,56 -12,24 -20,51 -24,81 -4,31 -3,58 4,81 6,24 19,43 36,56 18,14 41,21 71,21 34,0 62,-9 84,-27 22,-17 36,-39 43,-65zm-984 -222l-26 209 0 0 -3 22 -9 73 150 0 -11 87 -70 0 -175 0 7 -56 4 -31 10 -82 2 -13 27 -209 -76 0 9 -74 76 0 17 -134 95 0 -17 134 150 0 -10 74 -150 0z"/>
 </g>
</svg>
