<svg xmlns="http://www.w3.org/2000/svg" xmlns:xlink="http://www.w3.org/1999/xlink" width="144.417" height="17.291" viewBox="0 0 144.417 17.291">
  <defs>
    <linearGradient id="linear-gradient" x1="1.079" y1="0.5" x2="-0.364" y2="0.5" gradientUnits="objectBoundingBox">
      <stop offset="0.192" stop-color="#00ffb7"/>
      <stop offset="0.702" stop-color="#00ffb7"/>
    </linearGradient>
  </defs>
  <g id="logo" transform="translate(-374.174 -414.578)">
    <path id="Trazado_140" data-name="Trazado 140" d="M384.057,424.913a6.964,6.964,0,0,0-3.5-1.221l-1.282-.121a3.1,3.1,0,0,1-1.572-.508,1.288,1.288,0,0,1-.484-1.065,1.483,1.483,0,0,1,.641-1.234,3.033,3.033,0,0,1,1.851-.484,3.12,3.12,0,0,1,1.935.508,1.689,1.689,0,0,1,.7,1.258h2.588a3.6,3.6,0,0,0-1.475-3.012,6.279,6.279,0,0,0-3.75-1.028,6.79,6.79,0,0,0-2.65.484,4.181,4.181,0,0,0-1.8,1.379,3.639,3.639,0,0,0-.653,2.2,3.209,3.209,0,0,0,1.173,2.613,5.892,5.892,0,0,0,3.182,1.185l1.282.121a4.06,4.06,0,0,1,1.923.569,1.357,1.357,0,0,1,.569,1.149,1.573,1.573,0,0,1-.775,1.33,3.708,3.708,0,0,1-2.129.533,3.5,3.5,0,0,1-2.3-.605,1.925,1.925,0,0,1-.75-1.331h-2.613a3.835,3.835,0,0,0,1.537,3.073,6.649,6.649,0,0,0,4.1,1.112,7.451,7.451,0,0,0,2.891-.52,4.53,4.53,0,0,0,1.948-1.463,3.59,3.59,0,0,0,.7-2.2A3.223,3.223,0,0,0,384.057,424.913Z" fill="#1d1d1b"/>
    <path id="Trazado_141" data-name="Trazado 141" d="M400.32,414.578v2.177h1.717v14.678h2.855V414.578H400.32Z" fill="#1d1d1b"/>
    <path id="Trazado_142" data-name="Trazado 142" d="M413.168,429.8h-.558l-3.625-11.405h-2.714l4.258,13.04h4.645l3.7-13.04h-2.536Z" fill="#1d1d1b"/>
    <path id="Trazado_143" data-name="Trazado 143" d="M429.255,418.877a6.274,6.274,0,0,0-3.508-.919,6.688,6.688,0,0,0-2.843.568,5.729,5.729,0,0,0-2.02,1.525,6.548,6.548,0,0,0-1.2,2.152,7.8,7.8,0,0,0-.4,2.481v.459a7.719,7.719,0,0,0,.4,2.456,6.553,6.553,0,0,0,1.2,2.153,5.785,5.785,0,0,0,2.056,1.536,7.729,7.729,0,0,0,5.758.049,5.316,5.316,0,0,0,2.045-1.524,5.232,5.232,0,0,0,1.076-2.323h-2.637a2.388,2.388,0,0,1-1.064,1.391,4.475,4.475,0,0,1-4.452,0,3.466,3.466,0,0,1-1.283-1.621,5.871,5.871,0,0,1-.385-1.706h10.063v-1.137a7.222,7.222,0,0,0-.7-3.157A5.832,5.832,0,0,0,429.255,418.877Zm-5.613,2.057a4.118,4.118,0,0,1,4.112-.061,3.231,3.231,0,0,1,1.21,1.476,5.009,5.009,0,0,1,.342,1.294h-7.232a5.464,5.464,0,0,1,.309-1.113A3.452,3.452,0,0,1,423.642,420.934Z" fill="#1d1d1b"/>
    <path id="Trazado_144" data-name="Trazado 144" d="M440.746,418.006h-.121a4.76,4.76,0,0,0-2.637.689,4.106,4.106,0,0,0-1.584,2.021,6.51,6.51,0,0,0-.254.83v-3.153H433.9v13.041h2.831v-7.718a3.114,3.114,0,0,1,.846-2.286,2.986,2.986,0,0,1,2.226-.86,2.763,2.763,0,0,1,2.129.835,3.093,3.093,0,0,1,.774,2.19v7.839h2.831v-7.452a7.151,7.151,0,0,0-1.186-4.452A4.283,4.283,0,0,0,440.746,418.006Z" fill="#1d1d1b"/>
    <path id="Trazado_145" data-name="Trazado 145" d="M464.915,418.732a9.148,9.148,0,0,0-3.29-.508q-.63,0-1.318.024t-1.331.06q-.642.037-1.173.085v2.444q.6-.05,1.391-.085t1.609-.06c.547-.016,1.048-.025,1.5-.025a2.528,2.528,0,0,1,1.863.629,2.5,2.5,0,0,1,.629,1.839v.242h-2.976a8.5,8.5,0,0,0-2.951.459,3.993,3.993,0,0,0-1.9,1.379,3.863,3.863,0,0,0-.666,2.323,4.324,4.324,0,0,0,.581,2.287,3.7,3.7,0,0,0,1.645,1.451,5.857,5.857,0,0,0,2.492.5,5.029,5.029,0,0,0,2.335-.5,3.65,3.65,0,0,0,1.5-1.427,4.518,4.518,0,0,0,.4-.932v2.517h2.251V423.28a5.815,5.815,0,0,0-.642-2.939A3.731,3.731,0,0,0,464.915,418.732Zm-1.742,10.633a3.71,3.71,0,0,1-1.427.278,2.886,2.886,0,0,1-1.96-.593,2,2,0,0,1-.677-1.584,2.076,2.076,0,0,1,.677-1.609,2.812,2.812,0,0,1,1.96-.617h3.048V426.6a3.5,3.5,0,0,1-.495,1.839A2.506,2.506,0,0,1,463.173,429.365Z" fill="#1d1d1b"/>
    <path id="Trazado_146" data-name="Trazado 146" d="M393.359,417.958a6.955,6.955,0,1,0,6.956,6.955A6.955,6.955,0,0,0,393.359,417.958Zm0,12.237-5.281-5.282,5.281-5.281,5.282,5.281Z" fill="#1d1d1b"/>
    <path id="Trazado_147" data-name="Trazado 147" d="M455.577,420.5v-2.1h-4.258v-3.8h-2.685v3.8H446.48v2.1h2.153v11.08h6.943v-2.466H451.32v-2.7h0V420.5Z" fill="#1d1d1b"/>
    <path id="Trazado_148" data-name="Trazado 148" d="M490.027,418.877a5.7,5.7,0,0,0-3.39-.919,7.2,7.2,0,0,0-2.916.568,6.849,6.849,0,0,0-2.214,1.525,7.768,7.768,0,0,0-1.473,2.152,8.455,8.455,0,0,0-.715,2.481l-.059.459a7.444,7.444,0,0,0,.086,2.456,5.65,5.65,0,0,0,.923,2.153,4.826,4.826,0,0,0,1.86,1.536,6.48,6.48,0,0,0,2.878.581,7.551,7.551,0,0,0,2.875-.532,6.353,6.353,0,0,0,2.238-1.524,6.113,6.113,0,0,0,1.373-2.323h-2.637a2.856,2.856,0,0,1-1.242,1.391,4.244,4.244,0,0,1-2.3.593,3.517,3.517,0,0,1-2.151-.593,2.906,2.906,0,0,1-1.075-1.621,5.511,5.511,0,0,1-.169-1.706h10.064l.145-1.137a6.805,6.805,0,0,0-.3-3.157A4.851,4.851,0,0,0,490.027,418.877Zm-5.875,2.057a4,4,0,0,1,2.179-.581,3.291,3.291,0,0,1,1.942.52,2.709,2.709,0,0,1,1.021,1.476,4.654,4.654,0,0,1,.176,1.294h-7.231a6.023,6.023,0,0,1,.452-1.113A4.137,4.137,0,0,1,484.152,420.934Zm34.337,3.072-.948,7.428H514.71l1-7.839a2.7,2.7,0,0,0-.527-2.214,2.5,2.5,0,0,0-1.99-.811,3.271,3.271,0,0,0-2.343.92,3.9,3.9,0,0,0-1.155,2.419l-.037.291-.923,7.234H505.9l2.149-16.847h2.831l-.777,6.088a5.084,5.084,0,0,1,1.686-1.931,4.793,4.793,0,0,1,2.695-.738h.121a3.566,3.566,0,0,1,3.274,1.549A6.734,6.734,0,0,1,518.489,424.006Zm-15.923,2.782H505.3a5.866,5.866,0,0,1-1.236,2.674,6.382,6.382,0,0,1-2.344,1.778,7.4,7.4,0,0,1-3.068.629,6.273,6.273,0,0,1-2.8-.568,4.932,4.932,0,0,1-1.848-1.537,5.726,5.726,0,0,1-.958-2.165,7.307,7.307,0,0,1-.094-2.48l.026-.206.026-.2a8.23,8.23,0,0,1,.728-2.48,7.884,7.884,0,0,1,1.51-2.165,7.093,7.093,0,0,1,2.24-1.537,7.26,7.26,0,0,1,2.94-.568,6.342,6.342,0,0,1,2.907.629,4.41,4.41,0,0,1,1.891,1.778,4.708,4.708,0,0,1,.554,2.673h-2.734a2.542,2.542,0,0,0-.746-1.838,2.942,2.942,0,0,0-2.19-.75,3.879,3.879,0,0,0-2.155.58,4.236,4.236,0,0,0-1.436,1.585,6.6,6.6,0,0,0-.7,2.3,5.775,5.775,0,0,0,.118,2.3,2.955,2.955,0,0,0,1.031,1.585,3.19,3.19,0,0,0,2.007.58,3.676,3.676,0,0,0,2.382-.75A3.433,3.433,0,0,0,502.566,426.788Zm-27.878-6.29-.755,5.914h0l-.078.61-.266,2.091h4.257l-.315,2.466h-6.943l.2-1.594.111-.872.3-2.349.045-.352L472,420.5h-2.154l.269-2.1h2.153l.485-3.8h2.685l-.485,3.8h4.259l-.269,2.1Z" fill="url(#linear-gradient)"/>
  </g>
</svg>
